<svg width="75" height="76" viewBox="0 0 75 76" fill="none" xmlns="http://www.w3.org/2000/svg">
<g id="Group 132498">
<g id="Clip path group">
<mask id="mask0_5_83" style="mask-type:luminance" maskUnits="userSpaceOnUse" x="0" y="0" width="76" height="76">
<g id="clip-path">
<path id="Rectangle 41813" d="M75.001 0.585938H0.000976562V75.5859H75.001V0.585938Z" fill="white"/>
</g>
</mask>
<g mask="url(#mask0_5_83)">
<g id="Group 132497">
<path id="Path 144094" d="M34.324 50.158H4.824C3.88513 50.158 2.98472 49.785 2.32084 49.1212C1.65696 48.4573 1.284 47.5569 1.284 46.618C1.284 45.6791 1.65696 44.7787 2.32084 44.1148C2.98472 43.451 3.88513 43.078 4.824 43.078H34.324" stroke="black" stroke-width="2" stroke-linecap="round" stroke-linejoin="round"/>
<path id="Path 144095" d="M37.864 72.578H20.164C3.64398 72.578 3.64398 56.058 3.64398 56.058V50.158" stroke="black" stroke-width="2" stroke-linecap="round" stroke-linejoin="round"/>
<path id="Line 104" d="M17.532 73.213L16.08 74.665" stroke="black" stroke-width="2" stroke-linecap="round" stroke-linejoin="round"/>
<path id="Path 144096" d="M69.724 50.158H70.904C71.8429 50.158 72.7433 49.785 73.4072 49.1212C74.071 48.4573 74.444 47.5569 74.444 46.618C74.444 45.6791 74.071 44.7787 73.4072 44.1148C72.7433 43.451 71.8429 43.078 70.904 43.078H67.364" stroke="black" stroke-width="2" stroke-linecap="round" stroke-linejoin="round"/>
<path id="Path 144097" d="M37.864 72.578H55.564C72.084 72.578 72.084 56.058 72.084 56.058V50.158" stroke="black" stroke-width="2" stroke-linecap="round" stroke-linejoin="round"/>
<path id="Line 105" d="M58.196 73.213L59.648 74.665" stroke="black" stroke-width="2" stroke-linecap="round" stroke-linejoin="round"/>
<path id="Path 144098" d="M43.764 21.838C42.464 21.838 40.224 19.601 40.224 18.298C40.224 17.6721 40.4726 17.0718 40.9152 16.6292C41.3578 16.1866 41.9581 15.938 42.584 15.938H44.944C45.2539 15.938 45.5608 15.999 45.8471 16.1176C46.1335 16.2362 46.3936 16.4101 46.6128 16.6292C46.8319 16.8484 47.0058 17.1085 47.1244 17.3949C47.243 17.6812 47.304 17.9881 47.304 18.298C47.304 19.601 45.067 21.838 43.764 21.838Z" stroke="black" stroke-width="2" stroke-linecap="round" stroke-linejoin="round"/>
<path id="Path 144099" d="M43.764 21.838C43.764 24.445 41.123 26.558 37.864 26.558C34.605 26.558 31.964 24.445 31.964 21.838" stroke="black" stroke-width="2" stroke-linecap="round" stroke-linejoin="round"/>
<path id="Path 144100" d="M55.564 21.838C55.564 24.445 52.923 26.558 49.664 26.558C46.405 26.558 43.764 24.445 43.764 21.838" stroke="black" stroke-width="2" stroke-linecap="round" stroke-linejoin="round"/>
<path id="Path 144101" d="M48.484 26.558V30.098C48.484 31.3498 47.9867 32.5504 47.1015 33.4355C46.2164 34.3207 45.0158 34.818 43.764 34.818C42.5122 34.818 41.3116 34.3207 40.4265 33.4355C39.5413 32.5504 39.044 31.3498 39.044 30.098V26.558" stroke="black" stroke-width="2" stroke-linecap="round" stroke-linejoin="round"/>
<path id="Path 144102" d="M34.324 10.038C35.1193 9.28037 36.1756 8.85779 37.274 8.85779C38.3724 8.85779 39.4287 9.28037 40.224 10.038" stroke="black" stroke-width="2" stroke-linecap="round" stroke-linejoin="round"/>
<path id="Path 144103" d="M47.304 10.038C48.0994 9.28059 49.1557 8.85815 50.254 8.85815C51.3523 8.85815 52.4086 9.28059 53.204 10.038" stroke="black" stroke-width="2" stroke-linecap="round" stroke-linejoin="round"/>
<path id="Path 144104" d="M29.605 8.85795L28.425 13.578L25.095 11.065C24.656 10.6518 24.3061 10.1531 24.067 9.59973C23.8279 9.04632 23.7045 8.44982 23.7045 7.84695C23.7045 7.24409 23.8279 6.64759 24.067 6.09418C24.3061 5.54076 24.656 5.04213 25.095 4.62895C26.738 2.78995 28.424 1.77795 29.605 1.77795C30.2309 1.77795 30.8312 2.0266 31.2738 2.46918C31.7164 2.91177 31.965 3.51204 31.965 4.13795" stroke="black" stroke-width="2" stroke-linecap="round" stroke-linejoin="round"/>
<path id="Path 144105" d="M57.924 8.85795L59.104 13.578L62.434 11.065C62.873 10.6518 63.2229 10.1531 63.462 9.59973C63.7011 9.04632 63.8245 8.44982 63.8245 7.84695C63.8245 7.24409 63.7011 6.64759 63.462 6.09418C63.2229 5.54076 62.873 5.04213 62.434 4.62895C60.79 2.78995 59.104 1.77795 57.924 1.77795C57.2981 1.77795 56.6978 2.0266 56.2552 2.46918C55.8127 2.91177 55.564 3.51204 55.564 4.13795" stroke="black" stroke-width="2" stroke-linecap="round" stroke-linejoin="round"/>
<path id="Path 144106" d="M53.204 43.0779C53.204 41.8261 53.7013 40.6255 54.5864 39.7404C55.4716 38.8552 56.6722 38.3579 57.924 38.3579C60.531 38.3579 61.478 40.7459 62.644 43.0779C63.824 45.4379 65.004 46.6179 65.004 50.1579C65.004 51.7227 64.3824 53.2234 63.2759 54.3298C62.1694 55.4363 60.6688 56.0579 59.104 56.0579C57.5392 56.0579 56.0385 55.4363 54.9321 54.3298C53.8256 53.2234 53.204 51.7227 53.204 50.1579V47.7979" stroke="black" stroke-width="2" stroke-linecap="round" stroke-linejoin="round"/>
<path id="Path 144107" d="M34.324 43.0779C34.324 41.8261 34.8213 40.6255 35.7064 39.7404C36.5916 38.8552 37.7922 38.3579 39.044 38.3579C41.651 38.3579 42.598 40.7459 43.764 43.0779C44.944 45.4379 46.124 46.6179 46.124 50.1579C46.124 51.7227 45.5024 53.2234 44.3959 54.3298C43.2894 55.4363 41.7888 56.0579 40.224 56.0579C38.6592 56.0579 37.1585 55.4363 36.052 54.3298C34.9456 53.2234 34.324 51.7227 34.324 50.1579V47.7979" stroke="black" stroke-width="2" stroke-linecap="round" stroke-linejoin="round"/>
<path id="Line 106" d="M48.03 42.715H53.839" stroke="black" stroke-width="2" stroke-linecap="round" stroke-linejoin="round"/>
<path id="Line 107" d="M53.84 49.976H50.935" stroke="black" stroke-width="2" stroke-linecap="round" stroke-linejoin="round"/>
<path id="Path 144108" d="M59.104 13.578C59.104 13.578 65.004 27.738 53.204 32.458" stroke="black" stroke-width="2" stroke-linecap="round" stroke-linejoin="round"/>
<path id="Path 144109" d="M28.424 13.578C28.424 13.578 22.524 27.738 34.324 32.458" stroke="black" stroke-width="2" stroke-linecap="round" stroke-linejoin="round"/>
<path id="Path 144110" d="M56.744 30.376C56.744 30.376 57.825 31.176 57.924 33.638" stroke="black" stroke-width="2" stroke-linecap="round" stroke-linejoin="round"/>
<path id="Path 144111" d="M11.904 43.078C11.904 43.078 12.042 39.796 16.624 37.178C24.884 32.458 26.949 21.838 26.949 21.838" stroke="black" stroke-width="2" stroke-linecap="round" stroke-linejoin="round"/>
<path id="Path 144112" d="M6.00502 43.078C6.00502 43.078 4.82502 37.178 10.725 32.458C10.725 32.458 9.54502 39.538 11.905 43.078" stroke="black" stroke-width="2" stroke-linecap="round" stroke-linejoin="round"/>
<path id="Ellipse 1593" d="M6.63997 25.288C8.64532 25.288 10.271 23.6623 10.271 21.657C10.271 19.6517 8.64532 18.026 6.63997 18.026C4.63463 18.026 3.00897 19.6517 3.00897 21.657C3.00897 23.6623 4.63463 25.288 6.63997 25.288Z" stroke="black" stroke-width="2" stroke-linecap="round" stroke-linejoin="round"/>
<path id="Ellipse 1594" d="M13.901 13.668C15.1039 13.668 16.079 12.6929 16.079 11.49C16.079 10.2871 15.1039 9.31201 13.901 9.31201C12.6981 9.31201 11.723 10.2871 11.723 11.49C11.723 12.6929 12.6981 13.668 13.901 13.668Z" stroke="black" stroke-width="2" stroke-linecap="round" stroke-linejoin="round"/>
<path id="Path 144113" d="M55.564 4.13795C55.2243 3.47528 54.7206 2.91054 54.101 2.49746C53.4814 2.08438 52.7664 1.83669 52.024 1.77795H35.504C34.7616 1.83669 34.0466 2.08438 33.427 2.49746C32.8074 2.91054 32.3037 3.47528 31.964 4.13795" stroke="black" stroke-width="2" stroke-linecap="round" stroke-linejoin="round"/>
</g>
</g>
</g>
</g>
</svg>
