<svg width="76" height="77" viewBox="0 0 76 77" fill="none" xmlns="http://www.w3.org/2000/svg">
<g id="Group 132507">
<g id="Clip path group">
<mask id="mask0_5_120" style="mask-type:luminance" maskUnits="userSpaceOnUse" x="0" y="0" width="76" height="77">
<g id="clip-path-2">
<path id="Rectangle 41818" d="M75.636 0.913086H0.411987V76.1371H75.636V0.913086Z" fill="white"/>
</g>
</mask>
<g mask="url(#mask0_5_120)">
<g id="Group 132506">
<path id="Path 144122" d="M35.561 13.6571C35.561 13.6571 33.207 33.1511 33.207 40.7251C33.2342 43.5163 34.362 46.184 36.3453 48.1482C38.3287 50.1123 41.0072 51.2142 43.7985 51.2142C46.5899 51.2142 49.2684 50.1123 51.2517 48.1482C53.2351 46.184 54.3629 43.5163 54.39 40.7251C54.39 33.1511 43.798 26.8951 43.798 13.6571" stroke="black" stroke-width="2" stroke-linecap="round" stroke-linejoin="round"/>
<path id="Path 144123" d="M67.3361 18.811V21.927C67.3361 24.239 69.5871 25.427 71.8851 25.427H74.3971" stroke="black" stroke-width="2" stroke-linecap="round" stroke-linejoin="round"/>
<path id="Path 144124" d="M59.1021 38.3711H61.4561C70.1771 38.1921 74.4011 30.0991 74.4011 25.9161C74.4011 21.7491 74.4011 18.3641 63.8091 18.3641H61.4551C61.4511 10.0171 54.7381 1.88806 43.8151 1.88806C32.8921 1.88806 28.5021 11.3031 27.3221 19.5411L27.1641 20.6481" stroke="black" stroke-width="2" stroke-linecap="round" stroke-linejoin="round"/>
<path id="Path 144125" d="M55.567 18.3641C55.5543 17.7483 55.3008 17.162 54.8608 16.731C54.4208 16.3 53.8294 16.0586 53.2135 16.0586C52.5976 16.0586 52.0062 16.3 51.5662 16.731C51.1262 17.162 50.8727 17.7483 50.86 18.3641" stroke="black" stroke-width="2" stroke-linecap="round" stroke-linejoin="round"/>
<path id="Path 144126" d="M33.207 25.425H16.732V40.7251H1.43201V59.555H16.732V74.855H35.562V59.555H50.862V54.896" stroke="black" stroke-width="2" stroke-linecap="round" stroke-linejoin="round"/>
</g>
</g>
</g>
</g>
</svg>
