<svg width="51" height="51" viewBox="0 0 51 51" fill="none" xmlns="http://www.w3.org/2000/svg">
<g id="Group 132521" clip-path="url(#clip0_40_108)">
<g id="Clip path group">
<mask id="mask0_40_108" style="mask-type:luminance" maskUnits="userSpaceOnUse" x="0" y="0" width="51" height="51">
<g id="clip-path">
<path id="Rectangle 41823" d="M51 0H0V51H51V0Z" fill="white"/>
</g>
</mask>
<g mask="url(#mask0_40_108)">
<g id="Group 132520">
<path id="Ellipse 1597" d="M25.4999 47.0162C32.1016 47.0162 37.4534 41.6645 37.4534 35.0628C37.4534 28.4611 32.1016 23.1094 25.4999 23.1094C18.8982 23.1094 13.5465 28.4611 13.5465 35.0628C13.5465 41.6645 18.8982 47.0162 25.4999 47.0162Z" stroke="#3D3D3D" stroke-width="2" stroke-linecap="round" stroke-linejoin="round"/>
<path id="Ellipse 1598" d="M25.5 50.2024C33.8619 50.2024 40.6405 43.4238 40.6405 35.0619C40.6405 26.7 33.8619 19.9214 25.5 19.9214C17.1381 19.9214 10.3595 26.7 10.3595 35.0619C10.3595 43.4238 17.1381 50.2024 25.5 50.2024Z" stroke="#3D3D3D" stroke-width="2" stroke-linecap="round" stroke-linejoin="round"/>
<path id="Path 144159" d="M12.1615 27.8929L1.55508 13.5473C0.641933 12.2788 0.450076 10.6678 1.55508 9.56284L9.18888 1.89746" stroke="#3D3D3D" stroke-width="2" stroke-linecap="round" stroke-linejoin="round"/>
<path id="Path 144160" d="M38.8385 27.8929L49.4433 13.5473C50.3564 12.2788 50.5483 10.6678 49.4433 9.56284L41.8086 1.89746" stroke="#3D3D3D" stroke-width="2" stroke-linecap="round" stroke-linejoin="round"/>
<path id="Path 144161" d="M34.6039 22.9628L42.3672 5.15324C42.5578 4.66982 42.6273 4.14714 42.5696 3.63073C42.512 3.11431 42.329 2.61981 42.0366 2.19028C41.7442 1.76075 41.3512 1.40921 40.8919 1.16627C40.4325 0.923327 39.9208 0.796347 39.4012 0.796387H11.6345C11.115 0.796399 10.6033 0.923381 10.1441 1.16628C9.68484 1.40918 9.29192 1.76063 8.99952 2.19005C8.70712 2.61948 8.5241 3.11385 8.46639 3.63016C8.40868 4.14646 8.47802 4.66905 8.66839 5.15243L16.422 22.9417" stroke="#3D3D3D" stroke-width="2" stroke-linecap="round" stroke-linejoin="round"/>
<path id="Path 144162" d="M36.6949 9.56201H14.344" stroke="#3D3D3D" stroke-width="2" stroke-linecap="round" stroke-linejoin="round"/>
<path id="Path 144163" d="M28.5722 36.6566C29.1388 37.2232 29.7112 39.0471 31.7034 39.0471C32.3829 39.0471 33.0346 38.7771 33.5151 38.2966C33.9956 37.8161 34.2655 37.1645 34.2655 36.4849C34.1879 35.8716 33.9075 35.3017 33.469 34.8659C33.9051 34.471 34.1873 33.9344 34.2655 33.3513C34.2645 32.7477 34.0239 32.1693 33.5966 31.7431C33.1693 31.3169 32.5903 31.0777 31.9867 31.0781C29.7112 31.0781 29.1421 32.8996 28.5722 33.4687H22.4279C21.8612 32.902 21.2889 31.0781 19.0133 31.0781C18.7141 31.0779 18.4178 31.1367 18.1414 31.251C17.8649 31.3653 17.6137 31.533 17.402 31.7445C17.1904 31.956 17.0225 32.2071 16.908 32.4835C16.7935 32.7599 16.7345 33.0561 16.7345 33.3553C16.8127 33.9384 17.0949 34.475 17.5311 34.8699C17.0925 35.3057 16.8121 35.8756 16.7345 36.489C16.7345 36.8255 16.8008 37.1586 16.9295 37.4695C17.0583 37.7803 17.247 38.0628 17.4849 38.3007C17.7229 38.5386 18.0053 38.7273 18.3161 38.8561C18.627 38.9849 18.9602 39.0511 19.2966 39.0511C21.2889 39.0511 21.8588 37.2297 22.4279 36.6606L28.5722 36.6566Z" stroke="#3D3D3D" stroke-width="2" stroke-linecap="round" stroke-linejoin="round"/>
</g>
</g>
</g>
</g>
<defs>
<clipPath id="clip0_40_108">
<rect width="51" height="51" fill="white"/>
</clipPath>
</defs>
</svg>
