<svg width="52" height="49" viewBox="0 0 52 49" fill="none" xmlns="http://www.w3.org/2000/svg">
<g id="Group 23303" clip-path="url(#clip0_40_92)">
<g id="Clip path group">
<mask id="mask0_40_92" style="mask-type:luminance" maskUnits="userSpaceOnUse" x="0" y="0" width="52" height="49">
<g id="clip-path">
<path id="Rectangle 38299" d="M52 0H0V49H52V0Z" fill="white"/>
</g>
</mask>
<g mask="url(#mask0_40_92)">
<g id="Group 23302">
<path id="Path 133866" d="M6.91252 15.1001C5.97467 15.7717 5.30942 16.7603 5.03879 17.8846L0.965454 34.2095C0.819337 34.7838 0.778807 35.38 0.845854 35.969C1.74979 43.6028 12.6663 48.1833 26 48.1833C39.3337 48.1833 50.2502 43.6028 51.155 35.969C51.2218 35.3815 51.1816 34.7868 51.0363 34.2139C50.3568 31.4938 47.9362 21.7916 46.9629 17.8802C46.6926 16.7575 46.0279 15.7704 45.0909 15.1001" stroke="#3D3D3D" stroke-width="2" stroke-linecap="round" stroke-linejoin="round"/>
<path id="Path 133867" d="M11.3594 19.6006C15.4266 22.0509 19.8007 22.8671 26 22.8671C32.5866 22.8671 37.3871 22.0501 41.4544 19.6006" stroke="#3D3D3D" stroke-width="2" stroke-linecap="round" stroke-linejoin="round"/>
<path id="Path 133868" d="M12.9853 13.8835C12.1224 13.8835 11.2949 13.5393 10.6847 12.9267C10.0746 12.3141 9.73181 11.4833 9.73181 10.6169C9.73181 9.75057 10.0746 8.91971 10.6847 8.30711C11.2949 7.69452 12.1224 7.35036 12.9853 7.35036C13.5712 7.3528 14.1454 7.51588 14.6458 7.82199C14.7022 7.23787 14.9157 6.68015 15.2635 6.20853C15.6114 5.73692 16.0804 5.36918 16.6205 5.14469C17.1605 4.92021 17.7512 4.84743 18.3293 4.93416C18.9074 5.02089 19.4511 5.26385 19.9021 5.63703C19.6907 5.26114 19.556 4.84676 19.5057 4.41805C19.4555 3.98934 19.4907 3.55486 19.6094 3.13996C19.7281 2.72506 19.9278 2.33802 20.197 2.00142C20.4661 1.66481 20.7994 1.38537 21.1772 1.17938C21.555 0.973387 21.9699 0.844968 22.3977 0.801607C22.8255 0.758246 23.2576 0.800811 23.6688 0.92682C24.08 1.05283 24.4621 1.25976 24.7929 1.53556C25.1236 1.81135 25.3964 2.15049 25.5953 2.5332" stroke="#3D3D3D" stroke-width="2" stroke-linecap="round" stroke-linejoin="round"/>
<path id="Path 133869" d="M26.4065 5.79994C26.7289 5.1946 27.2343 4.70751 27.8498 4.40866C28.4653 4.10981 29.1594 4.01461 29.8322 4.13674C30.505 4.25887 31.1219 4.59203 31.5943 5.08835C32.0666 5.58467 32.3701 6.21857 32.461 6.89894C32.8868 6.38133 33.4615 6.0086 34.1065 5.83187C34.7516 5.65514 35.4352 5.68305 36.0638 5.91179C36.6924 6.14052 37.2351 6.55888 37.6176 7.10949C38.0001 7.66011 38.2035 8.31602 38.2001 8.98731" stroke="#3D3D3D" stroke-width="2" stroke-linecap="round" stroke-linejoin="round"/>
<path id="Path 133870" d="M37.3871 15.0635C37.8795 15.3574 38.441 15.5139 39.0138 15.5169C39.5151 15.5208 40.0106 15.4083 40.4615 15.1882C40.9123 14.9682 41.3065 14.6465 41.6131 14.2482C41.9197 13.85 42.1305 13.386 42.229 12.8924C42.3275 12.3989 42.3111 11.8892 42.1811 11.4031C42.051 10.9169 41.8109 10.4676 41.4793 10.09C41.1477 9.71249 40.7337 9.41699 40.2696 9.22659C39.8056 9.03619 39.3039 8.95605 38.8039 8.99243C38.3039 9.0288 37.819 9.1807 37.3871 9.43627" stroke="#3D3D3D" stroke-width="2" stroke-linecap="round" stroke-linejoin="round"/>
<path id="Path 133871" d="M19.0865 13.1491C19.409 12.5437 19.9143 12.0566 20.5298 11.7578C21.1454 11.4589 21.8394 11.3637 22.5122 11.4859C23.1851 11.608 23.802 11.9412 24.2743 12.4375C24.7467 12.9338 25.0501 13.5677 25.1411 14.2481C25.5668 13.7304 26.1416 13.3577 26.7866 13.181C27.4316 13.0043 28.1153 13.0322 28.7439 13.2609C29.3725 13.4896 29.9152 13.908 30.2977 14.4586C30.6801 15.0092 30.8836 15.6651 30.8801 16.3364" stroke="#3D3D3D" stroke-width="2" stroke-linecap="round" stroke-linejoin="round"/>
<path id="Path 133872" d="M23.5282 35.376L22.7482 36.75L21.0686 38.6739C20.7473 39.0423 20.5433 39.4989 20.483 39.9849C20.4226 40.4708 20.5088 40.9637 20.7303 41.4001C20.9517 41.8364 21.2984 42.196 21.7254 42.4325C22.1525 42.6691 22.6404 42.7717 23.1261 42.7271L26.0008 42.466L28.8756 42.7271C29.3611 42.7713 29.8488 42.6684 30.2755 42.4317C30.7023 42.195 31.0487 41.8354 31.2699 41.3991C31.4911 40.9629 31.5771 40.4701 31.5168 39.9844C31.4564 39.4986 31.2525 39.0422 30.9313 38.6739L29.2534 36.7491L28.4734 35.3752C28.2244 34.9373 27.8645 34.5734 27.4303 34.3203C26.996 34.0673 26.5027 33.934 26.0006 33.9341C25.4984 33.9342 25.0052 34.0676 24.571 34.3208C24.1368 34.5741 23.7771 34.9381 23.5282 35.376Z" stroke="#3D3D3D" stroke-width="2" stroke-linecap="round" stroke-linejoin="round"/>
<path id="Path 133873" d="M30.8862 29.877C30.8715 30.1448 30.8041 30.4071 30.6879 30.6486C30.5717 30.8901 30.409 31.1061 30.2091 31.2841C30.0093 31.4621 29.7762 31.5986 29.5235 31.6856C29.2708 31.7727 29.0035 31.8086 28.7369 31.7913C28.2165 31.6196 27.7808 31.2555 27.5181 30.7729C27.2554 30.2903 27.1854 29.7255 27.3225 29.193C27.337 28.9252 27.4043 28.6629 27.5205 28.4213C27.6367 28.1797 27.7994 27.9636 27.9993 27.7856C28.1992 27.6076 28.4323 27.4711 28.685 27.3841C28.9378 27.2971 29.2052 27.2613 29.4718 27.2787C29.9924 27.4501 30.4284 27.8141 30.6912 28.2968C30.9539 28.7795 31.0237 29.3445 30.8862 29.877Z" fill="#3D3D3D"/>
<path id="Path 133874" d="M34.8175 34.4998C34.7725 34.7325 34.6805 34.9533 34.5469 35.1487C34.4134 35.3441 34.2412 35.5098 34.0412 35.6356C33.8412 35.7613 33.6175 35.8444 33.3841 35.8797C33.1508 35.915 32.9127 35.9018 32.6846 35.8408C32.2544 35.5939 31.9292 35.1974 31.7705 34.7262C31.6118 34.255 31.6305 33.7417 31.8231 33.2834C31.8683 33.0509 31.9605 32.8302 32.0941 32.635C32.2278 32.4398 32.3999 32.2742 32.5999 32.1486C32.7999 32.0229 33.0234 31.9399 33.2567 31.9046C33.49 31.8693 33.728 31.8825 33.956 31.9433C34.3865 32.1896 34.7121 32.5859 34.8709 33.0571C35.0297 33.5284 35.0107 34.0417 34.8175 34.4998Z" fill="#3D3D3D"/>
<path id="Path 133875" d="M20.176 33.2844C20.1311 33.0518 20.039 32.8309 19.9054 32.6356C19.7719 32.4402 19.5998 32.2745 19.3997 32.1487C19.1997 32.0229 18.976 31.9398 18.7427 31.9045C18.5093 31.8692 18.2712 31.8825 18.0431 31.9435C17.613 32.1903 17.2878 32.5868 17.129 33.0581C16.9703 33.5293 16.989 34.0426 17.1817 34.5009C17.2268 34.7334 17.319 34.9541 17.4527 35.1493C17.5863 35.3445 17.7584 35.51 17.9584 35.6357C18.1584 35.7613 18.382 35.8444 18.6152 35.8797C18.8485 35.915 19.0865 35.9018 19.3145 35.8409C19.7451 35.5947 20.0706 35.1984 20.2294 34.7271C20.3882 34.2559 20.3692 33.7425 20.176 33.2844Z" fill="#3D3D3D"/>
<path id="Path 133876" d="M24.6766 29.193C24.662 28.9252 24.5947 28.6629 24.4785 28.4213C24.3623 28.1797 24.1996 27.9636 23.9997 27.7856C23.7998 27.6076 23.5668 27.4711 23.314 27.3841C23.0613 27.2971 22.7939 27.2613 22.5272 27.2787C22.0061 27.4497 21.5696 27.8138 21.3065 28.2967C21.0433 28.7796 20.9735 29.345 21.1111 29.8778C21.1257 30.1457 21.193 30.408 21.3092 30.6496C21.4253 30.8912 21.5881 31.1072 21.788 31.2853C21.9878 31.4633 22.2209 31.5997 22.4736 31.6868C22.7264 31.7738 22.9938 31.8096 23.2604 31.7922C23.7815 31.6212 24.2181 31.2571 24.4812 30.7742C24.7443 30.2913 24.8142 29.7258 24.6766 29.193Z" fill="#3D3D3D"/>
</g>
</g>
</g>
</g>
<defs>
<clipPath id="clip0_40_92">
<rect width="52" height="49" fill="white"/>
</clipPath>
</defs>
</svg>
