<svg width="60" height="60" viewBox="0 0 60 60" fill="none" xmlns="http://www.w3.org/2000/svg">
<g id="Group 23301" clip-path="url(#clip0_40_78)">
<g id="Clip path group">
<mask id="mask0_40_78" style="mask-type:luminance" maskUnits="userSpaceOnUse" x="0" y="0" width="60" height="60">
<g id="clip-path">
<path id="Rectangle 38298" d="M60 0H0V60H60V0Z" fill="white"/>
</g>
</mask>
<g mask="url(#mask0_40_78)">
<g id="Group 23300">
<path id="Path 133857" d="M43.125 13.125H41.709C39.9389 13.1258 38.2139 13.6834 36.7782 14.7187C35.3425 15.7541 34.2688 17.2147 33.709 18.894L33.336 20.013C33.1784 20.4848 32.8985 20.9063 32.5248 21.2346C32.1512 21.563 31.6971 21.7863 31.209 21.882L30.622 21.999C29.9374 22.1363 29.3282 22.5233 28.9131 23.0848C28.498 23.6463 28.3065 24.3422 28.376 25.037L28.553 26.809C28.6917 28.1976 29.3417 29.485 30.3766 30.421C31.4116 31.3571 32.7576 31.875 34.153 31.874H34.687C36.1785 31.8748 37.6086 32.4679 38.6629 33.5229C39.7172 34.578 40.3093 36.0085 40.309 37.5V38.438" stroke="#3D3D3D" stroke-width="2" stroke-linecap="round" stroke-linejoin="round"/>
<path id="Path 133858" d="M36.562 20.625C36.562 20.1277 36.7596 19.6508 37.1112 19.2992C37.4628 18.9475 37.9397 18.75 38.437 18.75C38.9343 18.75 39.4112 18.9475 39.7628 19.2992C40.1145 19.6508 40.312 20.1277 40.312 20.625" fill="#3D3D3D"/>
<path id="Path 133859" d="M43.125 15V7.5C43.125 7.5 59.063 13.125 59.063 30" stroke="#3D3D3D" stroke-width="2" stroke-linecap="round" stroke-linejoin="round"/>
<path id="Path 133860" d="M15 10.312C15 9.81473 15.1975 9.33782 15.5492 8.98619C15.9008 8.63456 16.3777 8.43701 16.875 8.43701C17.3723 8.43701 17.8492 8.63456 18.2008 8.98619C18.5525 9.33782 18.75 9.81473 18.75 10.312" fill="#3D3D3D"/>
<path id="Path 133861" d="M35.625 5.62483C35.625 5.62483 30.937 0.93683 24.375 0.93683C21.6748 0.922554 18.9769 1.10067 16.302 1.46983C15.6345 1.56486 15.0049 1.83786 14.4793 2.26016C13.9538 2.68245 13.5516 3.23847 13.315 3.86983L11.924 7.57783C11.7151 8.13361 11.3773 8.63188 10.9383 9.03171C10.4994 9.43155 9.97182 9.72153 9.39901 9.87783L0.937012 12.1868L2.68501 19.1758C2.989 20.392 3.69056 21.4719 4.67831 22.2438C5.66606 23.0158 6.88338 23.4357 8.13701 23.4368H17.807" stroke="#3D3D3D" stroke-width="2" stroke-linecap="round" stroke-linejoin="round"/>
<path id="Path 133862" d="M6.563 11.25V12.188C6.563 13.1826 6.16791 14.1364 5.46465 14.8397C4.76139 15.5429 3.80756 15.938 2.813 15.938H1.875" stroke="#3D3D3D" stroke-width="2" stroke-linecap="round" stroke-linejoin="round"/>
<path id="Path 133863" d="M24.371 9.375C24.371 9.375 24.371 13.125 19.684 21.563C16.219 27.803 20.625 31.875 24.371 31.875" stroke="#3D3D3D" stroke-width="2" stroke-linecap="round" stroke-linejoin="round"/>
<path id="Path 133864" d="M59.062 30C59.062 35.2213 56.9879 40.2288 53.2958 43.9208C49.6038 47.6129 44.5963 49.687 39.375 49.687H21.562V59.062H10.312V49.687H0.937012V38.437H10.312V29.062H13.125" stroke="#3D3D3D" stroke-width="2" stroke-linecap="square" stroke-linejoin="round"/>
<path id="Path 133865" d="M30 44.062V38.437H21.562V36.562" stroke="#3D3D3D" stroke-width="2" stroke-linecap="square" stroke-linejoin="round"/>
</g>
</g>
</g>
</g>
<defs>
<clipPath id="clip0_40_78">
<rect width="60" height="60" fill="white"/>
</clipPath>
</defs>
</svg>
