<svg xmlns="http://www.w3.org/2000/svg" width="103" height="77" viewBox="0 0 103 77" fill="none">
  <mask id="mask0_48_1844" style="mask-type:luminance" maskUnits="userSpaceOnUse" x="53" y="38" width="50" height="39">
    <path d="M53.9996 76.1704L101.903 76.8947L102.614 39.6795L54.711 38.9553L53.9996 76.1704Z" fill="white"/>
  </mask>
  <g mask="url(#mask0_48_1844)">
    <path d="M72.4755 53.689C68.683 54.1036 65.8986 51.2581 64.8586 47.8308C63.7483 44.163 65.2386 41.2629 69.0186 39.728C73.8265 37.7737 76.0023 41.9145 76.69 45.61C77.2339 48.8946 76.4621 53.2523 72.4755 53.689Z" fill="#FFA028"/>
    <path d="M84.9743 53.9087C88.7489 54.4377 91.6423 51.6781 92.8148 48.2842C94.0646 44.6521 92.686 41.7086 88.9668 40.0603C84.2365 37.9619 81.9036 42.0355 81.076 45.7081C80.402 48.9732 81.0068 53.3518 84.9743 53.9087Z" fill="#FFA028"/>
    <path d="M62.6254 64.0085C59.6024 65.1111 56.7519 63.3476 55.2127 60.7522C53.5692 57.9769 54.212 55.3092 57.001 53.2923C60.543 50.7276 63.1563 53.6729 64.4575 56.5553C65.5639 59.1341 65.8022 62.8492 62.6254 64.0085Z" fill="#FFA028"/>
    <path d="M93.4564 64.3891C96.373 65.7268 99.3674 64.1949 101.124 61.7324C103.001 59.0984 102.594 56.3878 99.9894 54.158C96.6773 51.3213 93.8217 54.0507 92.2747 56.819C90.9508 59.303 90.3904 62.983 93.4564 64.3891Z" fill="#FFA028"/>
    <path d="M64.8665 67.546C65.4988 64.2627 67.2651 61.3044 69.8536 59.1934C72.4421 57.0825 75.6865 55.9545 79.0138 56.0087C82.0982 56.0743 85.0352 57.3253 87.2196 59.504C89.9862 62.3054 90.8313 66.2088 90.8617 69.8933C90.8825 72.4095 90.3536 75.4188 87.4583 76.3246C84.9467 77.1099 81.8808 76.127 79.3722 75.7632C77.5967 75.4924 75.7888 75.5023 74.014 75.7924C71.9105 76.1297 69.6463 76.667 67.5506 76.0216C64.2268 74.9957 64.0612 70.4929 64.8666 67.7525C64.8536 67.6842 64.8549 67.6139 64.8705 67.546" fill="#FFA028"/>
  </g>
  <mask id="mask1_48_1844" style="mask-type:luminance" maskUnits="userSpaceOnUse" x="-1" y="1" width="50" height="38">
    <path d="M-0.000412701 38.2154L47.9026 38.9396L48.614 1.72444L0.710987 1.00022L-0.000412701 38.2154Z" fill="white"/>
  </mask>
  <g mask="url(#mask1_48_1844)">
    <path d="M18.4755 15.734C14.6829 16.1486 11.8986 13.3031 10.8585 9.87583C9.74826 6.20801 11.2385 3.30791 15.0186 1.773C19.8264 -0.181218 22.0023 3.95959 22.69 7.65508C23.2338 10.9396 22.462 15.2974 18.4755 15.734Z" fill="#FFA028"/>
    <path d="M30.9743 15.9538C34.7488 16.4828 37.6423 13.7231 38.8147 10.3293C40.0645 6.69713 38.686 3.75366 34.9668 2.10537C30.2364 0.00694827 27.9035 4.08059 27.076 7.75318C26.4019 11.0183 27.0067 15.3969 30.9743 15.9538Z" fill="#FFA028"/>
    <path d="M8.62537 26.0536C5.60233 27.1562 2.75185 25.3927 1.21266 22.7972C-0.430866 20.0219 0.211939 17.3543 3.00096 15.3373C6.54296 12.7726 9.15628 15.7179 10.4574 18.6003C11.5638 21.1792 11.8022 24.8942 8.62537 26.0536Z" fill="#FFA028"/>
    <path d="M39.4563 26.4342C42.3729 27.7719 45.3673 26.2399 47.124 23.7775C49.0008 21.1434 48.5935 18.4328 45.9894 16.203C42.6773 13.3663 39.8216 16.0957 38.2747 18.864C36.9507 21.3481 36.3903 25.0281 39.4563 26.4342Z" fill="#FFA028"/>
    <path d="M10.8665 29.591C11.4987 26.3077 13.265 23.3495 15.8535 21.2385C18.4421 19.1275 21.6864 17.9996 25.0138 18.0538C28.0982 18.1193 31.0351 19.3703 33.2195 21.549C35.9861 24.3504 36.8312 28.2538 36.8616 31.9384C36.8824 34.4546 36.3536 37.4638 33.4582 38.3696C30.9467 39.1549 27.8807 38.172 25.3721 37.8082C23.5966 37.5374 21.7887 37.5473 20.014 37.8375C17.9104 38.1747 15.6463 38.712 13.5505 38.0667C10.2267 37.0407 10.0612 32.5379 10.8665 29.7976C10.8535 29.7293 10.8549 29.6589 10.8705 29.5911" fill="#FFA028"/>
  </g>
</svg>