<svg width="70" height="68" viewBox="0 0 70 68" fill="none" xmlns="http://www.w3.org/2000/svg">
<g id="Group 23088">
<g id="Clip path group">
<mask id="mask0_1_1278" style="mask-type:luminance" maskUnits="userSpaceOnUse" x="2" y="0" width="67" height="68">
<g id="clip-path">
<path id="Path 117853" d="M8.51058 67.2753L1.99999 15.1612L61.8386 0.241126L68.3492 52.3552L8.51058 67.2753Z" fill="white"/>
</g>
</mask>
<g mask="url(#mask0_1_1278)">
<g id="Mask Group 6">
<path id="Path 117850" d="M48.2487 61.6399C48.0644 60.3935 47.5265 59.2671 46.6979 58.3921C46.4445 58.0654 46.1627 57.7271 45.8525 57.3772C45.5429 57.0402 45.2059 56.7243 44.8422 56.386C44.0729 55.6536 43.245 54.9858 42.3653 54.388C41.9056 54.0745 41.4236 53.76 40.9193 53.4443C40.416 53.1338 39.8953 52.8978 39.3531 52.6237L38.5271 52.23C38.3872 52.1662 38.245 52.0925 38.1034 52.0394L37.6762 51.8857C37.1019 51.682 36.511 51.4844 35.9037 51.2928C33.4322 50.6035 30.7938 50.4375 28.1409 50.8042C25.5689 51.2481 23.0565 52.2307 20.7676 53.6877C20.2262 54.0603 19.7012 54.4344 19.1926 54.81L18.8137 55.0911C18.6894 55.1895 18.569 55.3024 18.4496 55.4068L17.7428 56.0432C17.2796 56.4758 16.8336 56.865 16.4189 57.3209C16.0043 57.7767 15.6123 58.2394 15.2393 58.6799C14.5257 59.5304 13.8778 60.4328 13.3026 61.3775C13.0289 61.8165 12.7765 62.2277 12.5533 62.6472C12.33 63.0666 12.143 63.4938 11.9683 63.888C11.3636 65.0269 11.1001 66.2885 11.2137 67.5009C11.406 68.2997 12.0514 68.5858 13.03 68.4369C13.2975 68.3937 13.5635 68.3288 13.8255 68.2429C14.1132 68.1646 14.4282 68.0898 14.756 67.9769C15.4181 67.7691 16.1353 67.4086 16.9585 67.1306C17.3636 66.9734 17.7841 66.7963 18.2201 66.5992C18.656 66.4073 19.1206 66.2693 19.5904 66.0744L20.307 65.7821C20.4281 65.7319 20.5503 65.6815 20.6735 65.6309C20.7966 65.5802 20.9243 65.5491 21.0508 65.5079C21.5563 65.3407 22.0735 65.1572 22.6024 64.9574C24.9006 64.2072 27.231 63.6242 29.5748 63.2133C31.9523 62.8794 34.3309 62.7172 36.6925 62.7279C37.2491 62.7551 37.7891 62.7713 38.3124 62.7764L38.7036 62.7779L39.0914 62.8102L39.8488 62.869C40.3457 62.9107 40.8255 62.9 41.2891 62.9489C41.7527 62.9977 42.1993 63.0436 42.6258 63.0695C43.4777 63.0815 44.2531 63.208 44.942 63.202C45.285 63.2081 45.6043 63.1828 45.9002 63.1694C46.1691 63.1706 46.4401 63.1501 46.7106 63.108C47.6877 62.9471 48.243 62.4714 48.2488 61.6409" fill="#363636"/>
<path id="Path 117851" d="M57.0936 46.1147C57.5253 45.4612 57.2882 44.2978 56.4695 42.7399C56.2649 42.3506 56.0245 41.9372 55.7485 41.4999C55.4699 41.0674 55.1499 40.6239 54.8002 40.1535C54.0168 39.1026 53.1773 38.1003 52.2851 37.1505C51.7982 36.6285 51.2796 36.0893 50.7294 35.533C50.1798 34.9816 49.5867 34.4442 48.9736 33.8829C47.7534 32.7479 46.3851 31.6425 44.9292 30.4945C41.7697 28.0843 38.4283 25.9234 34.9289 24.027C31.4783 22.1757 27.8765 20.5985 24.1507 19.3073C22.4369 18.7448 20.8026 18.2354 19.2401 17.8711C18.4609 17.6836 17.7108 17.5017 16.9786 17.3626C16.2465 17.2234 15.5393 17.1059 14.8633 17.0031C13.6461 16.812 12.4107 16.6979 11.1637 16.6612C10.6115 16.6455 10.0964 16.6399 9.61541 16.6633C9.13447 16.6867 8.68746 16.737 8.28292 16.7982C6.66158 17.0427 5.68184 17.554 5.47677 18.3258C5.06453 19.9031 7.83368 22.121 12.3933 24.8319C12.9625 25.1747 13.5606 25.521 14.1876 25.8708L16.1314 26.9755C17.4873 27.7033 18.9099 28.5175 20.4293 29.313C23.4471 30.9563 26.7646 32.7114 30.2406 34.5708C33.7084 36.4493 37.0036 38.254 40.0347 39.8682C41.5372 40.6979 42.996 41.4387 44.3487 42.1663L46.334 43.1727C46.9691 43.5026 47.5848 43.8099 48.1812 44.0944C52.9242 46.3918 56.2152 47.4372 57.0952 46.111" fill="#363636"/>
<path id="Path 117852" d="M70.0815 31.4669C70.8395 31.1283 71.0174 30.4884 70.7078 29.6307C70.6188 29.3927 70.5107 29.1647 70.3844 28.9489C70.2549 28.7055 70.1163 28.4413 69.9411 28.1697C69.6021 27.6214 69.1159 27.043 68.6399 26.3817C68.3914 26.0555 68.1196 25.7205 67.8244 25.3767L66.9542 24.2876C66.3115 23.5526 65.7087 22.7395 65.0066 21.9172C63.6816 20.233 62.2469 18.3871 60.8581 16.4079C59.5026 14.4182 58.3204 12.4873 57.2614 10.7136C56.7721 9.81619 56.2355 8.98108 55.8124 8.17368L55.1301 7.02559C54.928 6.65047 54.7215 6.29369 54.5103 5.95527C54.0633 5.28459 53.718 4.65995 53.3127 4.13377C53.1168 3.86845 52.9066 3.62755 52.7138 3.40431C52.5396 3.18987 52.351 2.98886 52.1492 2.80253C51.8474 2.47282 51.469 2.22812 51.0427 2.08702C50.6165 1.94593 50.1536 1.91217 49.6893 1.9883C49.2026 2.13907 48.74 2.3909 48.3312 2.72773C47.9223 3.06455 47.5762 3.47896 47.3149 3.94446C47.1267 4.2303 46.9532 4.52525 46.7952 4.82788C46.6362 5.15722 46.4952 5.49397 46.3731 5.83634C46.0774 6.61115 45.8671 7.4093 45.7465 8.2143C45.6807 8.64382 45.6251 9.09097 45.5795 9.55573C45.551 10.0301 45.5463 10.5029 45.5652 10.9722C45.5913 12.0037 45.7153 13.0186 45.9354 14.0022C46.5052 16.332 47.4717 18.4949 48.7922 20.3954C50.3174 22.519 52.1344 24.3864 54.1948 25.9476C55.2075 26.7145 56.2671 27.4168 57.3687 28.0515C57.913 28.3606 58.4246 28.6669 58.971 28.9326C59.5174 29.1983 60.0602 29.4518 60.5864 29.6852C61.5822 30.1312 62.607 30.5172 63.6563 30.8416C64.1434 30.9946 64.6019 31.1351 65.057 31.2478C65.5121 31.3605 65.961 31.4495 66.3779 31.5235C67.5553 31.8428 68.828 31.8258 70.0706 31.474" fill="#363636"/>
</g>
</g>
</g>
</g>
</svg>
