<svg width="120" height="103" viewBox="0 0 120 103" fill="none" xmlns="http://www.w3.org/2000/svg">
<path id="Shape 14" d="M108.084 4.8574C108.27 7.98317 108.353 11.1147 108.333 14.252C108.311 16.8692 106.437 18.5738 103.745 18.7225C101.271 18.7642 98.8011 18.9319 96.3445 19.2252C88.4055 20.4857 81.9248 28.1544 81.8465 36.1985C81.8343 37.4818 81.8967 38.7659 81.9197 40.05C82.0444 41.8199 82.8585 43.4701 84.1868 44.6464C85.5152 45.8227 87.2519 46.4311 89.0239 46.3407C94.1006 46.1882 99.1809 46.1103 104.26 45.9241C106.459 45.7801 108.66 46.1789 110.668 47.0851C112.677 47.9912 114.432 49.3772 115.78 51.121C117.047 52.7254 117.926 54.601 118.348 56.6012C118.411 56.8701 118.507 57.1344 118.585 57.3973L119.388 88.045C119.078 89.5088 118.644 90.9435 118.09 92.3332C117.038 94.7017 115.316 96.71 113.135 98.1099C110.955 99.5097 108.412 100.239 105.82 100.209C101.494 100.329 97.1676 100.443 92.8414 100.551C88.2966 100.67 83.7501 100.805 79.2033 100.906C73.2457 101.036 68.9389 98.3621 66.2324 93.1075C65.3686 91.2535 64.9382 89.227 64.9739 87.182C64.7601 79.068 64.5477 70.954 64.3367 62.8402C64.1308 54.8513 63.9216 46.8628 63.7094 38.8741C63.4824 33.7885 64.3092 28.7104 66.1375 23.9593C68.4835 17.9134 72.4046 12.6053 77.4939 8.58582C82.5832 4.56633 88.6553 1.98215 95.0804 1.10086C97.9464 0.769035 100.832 0.631185 103.716 0.688961C104.162 0.68759 104.606 0.748448 105.036 0.869666C105.902 1.1226 106.666 1.64603 107.214 2.36339C107.762 3.08076 108.067 3.95464 108.084 4.8574ZM44.7278 6.83657C44.8351 9.74899 44.9113 12.6629 44.9563 15.5775C44.9938 16.1907 44.9058 16.8049 44.6975 17.3828C44.4891 17.9607 44.1649 18.4901 43.7448 18.9382C43.3246 19.3864 42.8175 19.7438 42.2542 19.989C41.6909 20.2342 41.0834 20.3619 40.4691 20.364C38.5266 20.4666 36.5765 20.4361 34.6428 20.6129C32.0421 20.8439 29.5252 21.6501 27.2744 22.9737C25.0237 24.2972 23.0955 26.1047 21.6294 28.2653C18.5763 32.4332 17.9099 37.1554 18.5459 42.117C18.7258 43.7926 19.5418 45.3349 20.8258 46.4265C22.1097 47.518 23.7636 48.0752 25.4463 47.983C30.4935 47.9045 35.5408 47.7736 40.5883 47.5897C44.1611 47.3195 47.6967 48.4663 50.4306 50.7823C51.8317 51.9047 52.9759 53.3143 53.7857 54.9165C54.5956 56.5187 55.0524 58.2761 55.1254 60.0699C55.4618 69.5592 55.7377 79.0531 55.8783 88.5466C55.8601 92.0521 54.4687 95.4111 52.0028 97.9028C49.5369 100.394 46.1927 101.821 42.6875 101.875C33.6266 102.071 24.5666 102.308 15.5072 102.588C12.2833 102.674 9.13366 101.612 6.62027 99.5914C4.10687 97.5706 2.39325 94.7227 1.78558 91.5554C1.74133 91.4074 1.68037 91.2645 1.60368 91.1304C1.13319 73.144 0.662593 55.1569 0.19183 37.1689C0.506738 35.0694 0.701565 32.946 1.1578 30.8724C2.75405 23.6212 6.53944 17.0352 12.0017 12.006C17.4639 6.97686 24.3392 3.747 31.6974 2.75374C34.5322 2.41621 37.3874 2.27893 40.2416 2.34293C40.6836 2.3404 41.1238 2.40048 41.5491 2.52127C42.473 2.80296 43.2811 3.3758 43.8535 4.15379C44.4259 4.93178 44.7319 5.87374 44.7259 6.83959L44.7278 6.83657Z" fill="white"/>
</svg>
