<svg width="210" height="86" viewBox="0 0 210 86" fill="none" xmlns="http://www.w3.org/2000/svg">
<g id="BOWOW">
<path id="Vector" d="M210 30.2014L205.474 57.0078L194.488 57.2399L192.129 43.3532L189.769 56.2342L178.783 56.621L174.219 30.2014L183.812 29.3504L185.746 45.4033L188.338 29.3504H195.881L198.898 45.5967L200.445 29.3504L210 30.2014Z" fill="#01C2CF"/>
<path id="Vector_2" d="M174.452 43.3919C174.452 44.5652 174.316 45.6999 174.046 46.7958C173.775 47.8789 173.382 48.8975 172.866 49.8517C172.363 50.8058 171.744 51.6826 171.009 52.482C170.287 53.2686 169.468 53.9455 168.553 54.5128C167.65 55.0802 166.664 55.525 165.594 55.8474C164.524 56.1568 163.389 56.3115 162.19 56.3115C161.029 56.3115 159.92 56.1633 158.863 55.8667C157.819 55.5701 156.839 55.1575 155.923 54.6289C155.008 54.0873 154.176 53.4426 153.428 52.6948C152.693 51.9341 152.062 51.096 151.533 50.1805C151.017 49.2521 150.611 48.2593 150.315 47.202C150.031 46.1447 149.889 45.0423 149.889 43.8947C149.889 42.7729 150.024 41.677 150.295 40.6068C150.566 39.5237 150.953 38.5051 151.456 37.5509C151.971 36.5968 152.59 35.72 153.312 34.9206C154.034 34.1211 154.84 33.4313 155.73 32.8511C156.633 32.2709 157.606 31.8196 158.65 31.4972C159.695 31.1749 160.797 31.0137 161.958 31.0137C163.827 31.0137 165.529 31.3038 167.064 31.8841C168.611 32.4643 169.926 33.2959 171.009 34.379C172.105 35.4492 172.95 36.7515 173.543 38.2859C174.149 39.8074 174.452 41.5093 174.452 43.3919ZM165.865 43.8947C165.865 43.3403 165.781 42.8052 165.613 42.2894C165.458 41.7608 165.226 41.2966 164.917 40.8969C164.607 40.4843 164.221 40.1555 163.756 39.9105C163.305 39.6526 162.783 39.5237 162.19 39.5237C161.584 39.5237 161.042 39.6333 160.565 39.8525C160.088 40.0717 159.675 40.3747 159.327 40.7615C158.992 41.1354 158.734 41.5803 158.554 42.096C158.373 42.5989 158.283 43.134 158.283 43.7013C158.283 44.2429 158.36 44.7844 158.515 45.3259C158.67 45.8675 158.902 46.3574 159.211 46.7958C159.521 47.2342 159.901 47.5888 160.352 47.8596C160.817 48.1304 161.352 48.2657 161.958 48.2657C162.564 48.2657 163.105 48.1497 163.582 47.9176C164.072 47.6726 164.485 47.3503 164.82 46.9506C165.155 46.538 165.413 46.0673 165.594 45.5387C165.774 45.01 165.865 44.462 165.865 43.8947Z" fill="#01C2CF"/>
<path id="Vector_3" d="M150.194 30.2014L145.668 57.0078L134.683 57.2399L132.323 43.3532L129.963 56.2342L118.978 56.621L114.413 30.2014L124.007 29.3504L125.941 45.4033L128.532 29.3504H136.075L139.092 45.5967L140.64 29.3504L150.194 30.2014Z" fill="black"/>
<path id="Vector_4" d="M114.65 43.3919C114.65 44.5652 114.514 45.6999 114.244 46.7958C113.973 47.8789 113.58 48.8975 113.064 49.8517C112.561 50.8058 111.942 51.6826 111.207 52.482C110.485 53.2686 109.666 53.9455 108.751 54.5128C107.848 55.0802 106.862 55.525 105.792 55.8474C104.722 56.1568 103.587 56.3115 102.388 56.3115C101.227 56.3115 100.118 56.1633 99.0611 55.8667C98.0167 55.5701 97.0368 55.1575 96.1213 54.6289C95.2058 54.0873 94.3742 53.4426 93.6263 52.6948C92.8914 51.9341 92.2596 51.096 91.7309 50.1805C91.2152 49.2521 90.809 48.2593 90.5125 47.202C90.2288 46.1447 90.087 45.0423 90.087 43.8947C90.087 42.7729 90.2223 41.677 90.4931 40.6068C90.7639 39.5237 91.1507 38.5051 91.6536 37.5509C92.1693 36.5968 92.7882 35.72 93.5103 34.9206C94.2323 34.1211 95.0382 33.4313 95.9279 32.8511C96.8305 32.2709 97.8039 31.8196 98.8484 31.4972C99.8928 31.1749 100.995 31.0137 102.156 31.0137C104.025 31.0137 105.727 31.3038 107.262 31.8841C108.809 32.4643 110.124 33.2959 111.207 34.379C112.303 35.4492 113.148 36.7515 113.741 38.2859C114.347 39.8074 114.65 41.5093 114.65 43.3919ZM106.062 43.8947C106.062 43.3403 105.979 42.8052 105.811 42.2894C105.656 41.7608 105.424 41.2966 105.115 40.8969C104.805 40.4843 104.419 40.1555 103.954 39.9105C103.503 39.6526 102.981 39.5237 102.388 39.5237C101.782 39.5237 101.24 39.6333 100.763 39.8525C100.286 40.0717 99.8734 40.3747 99.5253 40.7615C99.19 41.1354 98.9322 41.5803 98.7516 42.096C98.5711 42.5989 98.4809 43.134 98.4809 43.7013C98.4809 44.2429 98.5582 44.7844 98.713 45.3259C98.8677 45.8675 99.0998 46.3574 99.4092 46.7958C99.7187 47.2342 100.099 47.5888 100.55 47.8596C101.015 48.1304 101.55 48.2657 102.156 48.2657C102.762 48.2657 103.303 48.1497 103.78 47.9176C104.27 47.6726 104.683 47.3503 105.018 46.9506C105.353 46.538 105.611 46.0673 105.792 45.5387C105.972 45.01 106.062 44.462 106.062 43.8947Z" fill="black"/>
<path id="Vector_5" d="M90.0868 50.1612C90.0868 51.2313 89.887 52.1533 89.4872 52.9269C89.1004 53.7005 88.5782 54.3581 87.9206 54.8997C87.263 55.4412 86.5023 55.886 85.6384 56.2342C84.7874 56.5694 83.8977 56.8337 82.9694 57.0271C82.041 57.2206 81.1062 57.3495 80.165 57.414C79.2366 57.4784 78.3663 57.5107 77.5539 57.5107C76.7545 57.5107 75.9229 57.4784 75.059 57.414C74.208 57.3624 73.357 57.2657 72.506 57.1239C71.655 56.982 70.8169 56.7951 69.9917 56.563C69.1665 56.318 68.3864 56.015 67.6514 55.6539L67.6128 30.743C68.3348 30.4464 69.102 30.1821 69.9143 29.95C70.7266 29.705 71.5518 29.5051 72.3899 29.3504C73.2409 29.1828 74.0855 29.0603 74.9236 28.9829C75.7617 28.8927 76.574 28.8475 77.3605 28.8475C78.276 28.8475 79.1979 28.9056 80.1263 29.0216C81.0675 29.1377 81.9701 29.3311 82.834 29.6018C83.6979 29.8726 84.5038 30.2272 85.2516 30.6656C85.9994 31.0911 86.6506 31.6197 87.205 32.2515C87.7724 32.8833 88.2107 33.6183 88.5202 34.4564C88.8425 35.2945 89.0037 36.2615 89.0037 37.3575C89.0037 38.0796 88.9006 38.7565 88.6943 39.3883C88.488 40.0201 88.1914 40.5874 87.8046 41.0903C87.4178 41.5932 86.9471 42.0251 86.3927 42.3861C85.8383 42.7343 85.2129 42.9921 84.5166 43.1598C85.3547 43.379 86.1155 43.7013 86.7989 44.1268C87.4951 44.5523 88.0818 45.0681 88.5589 45.6741C89.0488 46.2801 89.4228 46.9635 89.6807 47.7242C89.9514 48.4849 90.0868 49.2973 90.0868 50.1612ZM80.2617 39.1369C80.2617 38.763 80.1843 38.4471 80.0296 38.1892C79.8748 37.9184 79.6814 37.6992 79.4493 37.5316C79.2302 37.364 78.9852 37.2415 78.7144 37.1641C78.4565 37.0867 78.2244 37.0481 78.0181 37.0481C77.7602 37.0481 77.5088 37.0867 77.2638 37.1641C77.0188 37.2415 76.7803 37.3317 76.5482 37.4349L76.4322 41.7285C76.7287 41.7285 77.0962 41.7028 77.5346 41.6512C77.973 41.5996 78.392 41.49 78.7918 41.3224C79.2044 41.1419 79.5525 40.884 79.8362 40.5488C80.1198 40.2006 80.2617 39.73 80.2617 39.1369ZM77.5153 45.442C77.1413 45.442 76.7803 45.4807 76.4322 45.558L76.3548 49.9677C76.5482 50.0064 76.7352 50.0451 76.9157 50.0838C77.1091 50.1096 77.2961 50.1225 77.4766 50.1225C77.7474 50.1225 78.0439 50.0967 78.3663 50.0451C78.6886 49.9806 78.9916 49.8646 79.2753 49.697C79.5589 49.5165 79.791 49.2779 79.9715 48.9814C80.165 48.6848 80.2617 48.2915 80.2617 47.8016C80.2617 47.3116 80.165 46.9119 79.9715 46.6024C79.791 46.293 79.5654 46.0544 79.2946 45.8868C79.0238 45.7063 78.7273 45.5903 78.4049 45.5387C78.0826 45.4742 77.786 45.442 77.5153 45.442Z" fill="black"/>
<g id="Dog">
<path id="Vector_6" d="M11.3048 38.6231C9.95548 39.5418 8.49012 40.1682 6.80163 40.3892C6.81843 39.2289 6.68192 38.0897 6.54384 36.9509C6.39998 35.7665 6.25088 34.5821 5.98049 33.4182C5.7374 32.3718 5.13466 31.5234 4.46473 30.7134C2.98257 28.921 1.70045 27.021 1.24525 24.68C1.23265 24.6165 1.19012 24.5535 1.1938 24.4926C1.23317 23.8552 0.936532 23.8106 0.453505 24.0579C0.341149 24.1151 0.207792 24.1303 0.00513043 24.1865C-0.0400221 23.0079 0.215667 21.9264 0.661417 20.8932C1.35655 19.2814 2.53682 18.0366 3.78954 16.8459C5.36935 15.3439 6.94181 13.8235 7.80181 11.7576C8.26856 10.6356 8.54105 9.43758 9.10231 8.34925C10.7462 5.16143 13.439 3.46094 16.9011 2.87346C18.1932 2.65454 19.4984 2.65506 20.7984 2.84459C20.9874 2.87241 21.1444 2.81046 21.2898 2.71386C23.6131 1.1735 26.2204 0.52512 28.9505 0.234268C32.8011 -0.175235 36.6212 -0.10541 40.3841 0.907848C41.7749 1.2827 43.0796 1.87228 44.2955 2.64509C44.5733 2.82149 44.8221 2.84459 45.1466 2.81099C50.5544 2.25606 55.6881 4.34977 57.4622 10.1957C58.1285 12.3907 59.3302 14.1904 60.94 15.7712C61.9648 16.7777 63.058 17.719 63.9479 18.8567C65.0494 20.2647 65.6815 21.8534 65.8039 23.6442C65.8354 24.102 65.7493 24.3382 65.2584 24.0715C64.8 23.8222 64.6567 23.8862 64.5748 24.4627C64.2571 26.705 63.2107 28.6506 61.6892 30.2687C60.1635 31.8909 59.5959 33.8056 59.3744 35.923C59.2321 37.2859 59.0719 38.6467 59.0494 40.0175C59.0431 40.4091 58.894 40.4055 58.5753 40.3519C57.1078 40.1046 55.7979 39.5124 54.6134 38.6252C54.5583 38.5973 54.5079 38.4887 54.4464 38.6073C54.437 38.6252 54.5021 38.6819 54.5331 38.7207C55.256 40.1298 55.9853 41.5353 56.7009 42.948C58.046 45.6019 59.0504 48.3892 59.4668 51.3297C60.2118 56.5918 59.2982 61.4613 55.6577 65.5778C55.3164 65.9637 55.0108 66.443 54.5556 65.6125C53.2326 67.2001 51.8276 68.6339 50.3769 70.0235C48.5992 71.7267 46.6172 73.183 44.6919 74.7076C41.9313 76.8937 39.0988 78.9927 36.5597 81.446C35.2267 82.7344 34.068 84.1755 32.883 85.6429C32.0723 84.6937 31.2948 83.733 30.4642 82.821C28.0217 80.1393 25.1236 77.9789 22.2889 75.7482C18.8699 73.0575 15.4268 70.3937 12.5517 67.0914C12.252 66.747 11.97 66.3868 11.6671 66.0451C11.4492 65.7994 11.2612 65.446 10.9084 65.9647C10.7215 66.2398 10.5467 65.9432 10.4039 65.7936C8.44235 63.7461 7.208 61.3027 6.56642 58.5648C5.65444 54.6724 6.19995 50.8751 7.45004 47.1449C8.35887 44.4333 9.62944 41.8881 11.0722 39.4247C11.2024 39.2027 11.2922 38.9575 11.4004 38.7228C11.5017 38.6945 11.5264 38.601 11.4723 38.5464C11.3983 38.4719 11.3578 38.5879 11.3038 38.6231H11.3048ZM15.0567 64.9961C15.0556 65.0717 15.0892 65.1148 15.168 65.1169L15.18 65.1358C16.0012 66.4624 17.1494 67.4941 18.2809 68.5341C19.143 69.3263 20.0539 70.0666 21.1507 70.5307C21.1916 70.5884 21.2368 70.6294 21.294 70.5517C21.2961 70.5491 21.2384 70.5018 21.2084 70.475C20.4639 69.4345 19.7189 68.3945 18.9744 67.3539C18.8127 67.0746 18.6536 66.7932 18.4883 66.516C16.1839 62.6625 14.33 58.6709 14.6471 54.012C14.6529 53.9259 14.6587 53.8398 14.6645 53.7537C14.7322 53.5195 14.7999 53.2859 14.8677 53.0517C15.4305 54.506 15.8285 55.9792 16.4202 57.3835C17.0187 58.8042 17.5369 60.2627 18.3428 61.5888C18.4011 61.7316 18.4132 61.9007 18.5691 61.9884C18.5717 62.033 18.5849 62.0739 18.608 62.1117C18.6269 62.2377 18.693 62.3322 18.8006 62.3984L18.8148 62.4157C19.3986 63.493 20.0807 64.5015 20.9002 65.4145C20.9496 65.5169 21.0005 65.7075 21.1234 65.6088C21.2347 65.5195 21.0667 65.4103 20.9769 65.3347C20.4618 64.3755 19.9982 63.3885 19.4007 62.475C19.343 62.2897 19.301 62.097 19.2249 61.9201C18.5796 60.4238 18.0971 58.874 17.7007 57.2964C17.5243 56.5934 17.5316 56.5918 17.6325 56.0852C18.9382 59.0751 20.6419 61.7579 22.6166 64.2727C23.6031 65.5684 24.6426 66.8278 25.5646 68.1677C27.7797 71.3859 29.4283 74.9229 31.1845 78.3968C31.7426 79.5004 32.285 80.6118 32.8672 81.7862C33.0205 81.4964 33.1355 81.2927 33.2379 81.0827C34.5804 78.3244 35.9518 75.5812 37.3924 72.8722C38.8452 70.1401 40.4864 67.5387 42.4899 65.1683C43.6261 63.8238 44.6672 62.4015 45.5257 60.8565C46.6608 59.3292 47.4625 57.6271 48.1482 55.8642C48.3656 56.039 48.2689 56.269 48.2317 56.4695C47.8463 58.526 47.2304 60.511 46.3725 62.4204C45.9525 63.3544 45.4212 64.2322 44.9896 65.1636C46.5542 63.1911 47.8998 61.0922 48.8018 58.7312C49.1321 58.0571 49.403 57.3599 49.6015 56.6359C49.9212 56.0474 50.0351 55.3891 50.2457 54.7633C50.4205 54.243 50.4058 53.6366 50.871 53.2334C50.9182 53.6208 50.9802 54.0073 51.0106 54.3963C51.2317 57.2339 50.5644 59.9041 49.487 62.5008C48.7766 64.2133 47.756 65.7521 46.8214 67.3397C46.058 68.3651 45.2947 69.3899 44.5328 70.4152C44.484 70.4645 44.4347 70.5139 44.3858 70.5632C44.4919 70.6567 44.5559 70.5863 44.6163 70.5034C44.7738 70.4336 44.9387 70.3763 45.0878 70.2918C47.1848 69.1027 48.8575 67.4232 50.4079 65.6177C52.1027 63.6447 53.3591 61.4229 54.0532 58.9003C54.5084 57.2471 55.0749 55.619 55.1678 53.8718C55.5826 55.4248 56.1334 56.9336 56.1481 58.6898C56.7167 57.1903 56.9083 55.7749 56.8952 54.3301C56.881 52.7703 56.5229 51.2746 56.1533 49.7605C55.4004 46.6771 53.5717 44.2222 51.7809 41.7274C51.626 41.5116 51.5084 41.4129 51.427 41.7862C51.0442 43.5366 48.4574 46.7842 47.1459 47.713C47.7198 45.6471 48.1088 43.5523 47.694 41.3216C46.9102 41.8371 46.1615 42.3548 45.229 42.5947C47.5045 39.2893 49.0843 35.7991 49.2345 31.7639C49.6256 33.2691 50.2226 34.6845 50.7513 36.292C50.4032 32.3876 49.4644 28.7525 48.6874 25.0885C48.4254 23.44 47.7618 21.9395 46.9874 20.4805C46.3899 19.3549 45.6795 18.3007 44.9392 17.2512C45.6701 17.5961 46.2297 18.1878 46.9574 18.5112C47.3176 18.7086 47.6799 18.9034 48.0379 19.1045C48.3409 19.2741 48.5084 19.2756 48.4979 18.843C48.4674 17.5809 48.4002 16.3209 48.1928 15.0761C47.9639 13.7022 47.7166 12.3293 47.1454 11.0273C47.2919 11.0955 47.379 11.1921 47.463 11.2908C50.0845 14.3831 51.3776 18.0188 51.8176 21.9962C52.0119 23.7534 51.8517 25.5221 51.9405 27.283C52.0639 29.7358 52.5915 32.0647 54.1881 34.0298C55.003 35.0326 55.9716 35.8411 57.1608 36.3808C57.1608 35.3497 57.1519 34.3753 57.1629 33.4003C57.1834 31.5938 57.6853 29.9133 58.6393 28.3934C59.5991 26.864 60.6103 25.373 60.6754 23.4804C61.0965 24.4989 61.4031 25.5436 61.3464 26.8294C61.9328 25.6912 62.3093 24.6763 62.3681 23.5555C62.4773 21.4654 61.5811 19.8237 60.1173 18.4277C59.5298 17.7851 58.9354 17.1488 58.3563 16.4984C56.7959 14.7454 55.895 12.6181 54.972 10.5039C53.9534 8.17128 52.3579 6.42354 49.9354 5.4927C48.2947 4.86218 46.5873 4.78395 44.8652 4.83383C44.4499 4.8459 44.0934 4.75612 43.7584 4.54612C40.4366 2.46081 36.8669 1.77568 33.0232 2.64141C32.7417 2.70494 32.4818 2.69391 32.1931 2.63249C28.3493 1.81715 24.7749 2.41566 21.5339 4.70887C21.3922 4.80915 21.2657 4.92045 21.0646 4.88003C20.5243 4.77135 19.9783 4.84013 19.4354 4.8585C15.2945 5.00078 12.5349 6.56161 10.858 10.4708C9.85257 12.8149 8.80462 15.1276 6.99537 16.9971C6.2556 17.7615 5.49798 18.5117 4.84747 19.3586C2.89016 21.488 3.18156 24.8858 4.60753 26.8241C4.42272 25.6896 4.86217 24.7189 5.12731 23.7161C5.3809 24.0957 5.24544 24.5524 5.3893 24.9667C5.7584 26.0293 6.34275 26.9654 6.96701 27.8836C8.08533 29.5295 8.67231 31.3376 8.65551 33.3358C8.64711 34.3243 8.65393 35.3129 8.65393 36.3377C11.1284 35.1013 12.735 33.2371 13.0904 30.4152C13.3167 28.6196 13.3692 26.8178 13.3377 25.0129C13.2836 21.8607 13.3897 18.7244 14.3993 15.7004C14.7149 14.7548 14.9249 13.7473 15.6037 12.9551C15.6111 13.015 15.6373 13.0795 15.6237 13.1341C14.9364 15.8117 15.2703 18.4991 15.5376 21.1861C15.5497 21.4449 15.5617 21.7038 15.5738 21.9621C15.619 22.9575 15.6583 23.9529 15.7114 24.9478C15.7324 25.3426 15.6893 25.7138 15.5392 26.0881C14.6503 28.3025 14.3164 30.5784 14.8256 32.9404C14.9564 33.8744 15.2562 34.7533 15.6904 35.5885C15.8311 36.0999 16.1414 36.5141 16.4574 36.9242C17.7795 38.6393 19.1146 38.4813 20.5122 37.1273C21.828 35.8526 22.4711 34.1983 22.8675 32.4396C22.877 32.3062 22.8864 32.1729 22.8959 32.0395C22.9148 32.0395 22.9342 32.0385 22.9531 32.0379C22.9384 32.0169 22.9232 31.9965 22.9085 31.9755L22.8901 32.0327C21.3481 32.4196 19.941 32.1844 18.713 31.125C17.444 29.7558 16.7294 28.1214 16.522 26.2855C16.248 23.8584 17.2676 21.6297 20.0486 20.9709C21.8988 20.5325 23.7648 20.5131 25.616 20.8191C28.5835 21.31 30.2174 23.3339 30.0363 26.1374C29.8861 26.8997 29.7359 27.6615 29.432 28.3823C28.699 30.1206 27.6841 31.5759 25.7268 32.0931C25.06 32.2689 24.3827 32.1487 23.6608 32.1387C23.8556 32.5183 24.0215 32.8423 24.188 33.1667C24.5649 34.0046 25.081 34.7554 25.6523 35.4683C27.6427 37.9521 30.2563 39.0567 33.3712 38.5438C36.2731 38.066 38.4488 36.4097 39.8517 33.7752C40.2612 33.0055 40.6618 32.2464 40.8666 31.3917C40.9096 31.2116 40.9563 30.926 41.2903 31.0336C42.7099 31.4904 43.7337 33.1378 43.6424 34.6462C43.5458 36.2443 43.0517 37.7069 42.386 39.1386C41.0655 41.9773 39.3314 44.532 36.8422 46.444C34.0338 48.6008 31.5746 51.1371 28.8051 53.541C35.181 52.3456 38.5937 48.0962 40.8603 42.5018C41.085 43.0693 41.1632 43.6074 41.1926 44.1319C41.3732 47.3429 40.4492 50.233 38.5601 52.8186C37.4035 54.4015 35.9764 55.7492 34.6875 57.2171C33.0636 59.0667 31.677 61.047 31.1871 63.5308C30.9419 64.7735 31.153 65.9978 31.2622 67.229C31.0438 67.2226 31.0118 67.0126 30.9141 66.8893C29.5139 65.1211 28.2711 63.2426 27.0567 61.3447C27.0184 61.2439 26.9937 61.1342 26.9391 61.0434C25.7846 59.1192 25.0438 57.0465 24.7203 54.8284C24.6636 54.4399 24.4463 54.4236 24.1397 54.3863C21.2688 54.0403 19.0605 52.1083 18.3176 49.3195C17.8141 47.429 17.9889 45.5725 18.5896 43.7366C18.6631 43.5114 18.8153 43.2741 18.6242 43.0588C18.0551 42.4173 17.5411 41.7337 17.0481 40.9273C16.7756 43.1323 16.2453 45.1861 16.3288 47.4321C15.5628 46.296 14.9884 45.226 14.591 44.0658C14.4235 43.3428 14.256 42.6199 14.0686 41.8109C13.6055 42.4414 13.1918 42.9948 12.788 43.556C10.2579 47.0741 8.76209 50.9276 9.02303 55.3345C9.08656 56.4034 9.15849 57.4838 9.73602 58.4409C9.67039 58.5428 9.68036 58.6441 9.74127 58.7459C9.81635 58.6441 9.79219 58.5454 9.73969 58.4462C9.74442 58.2262 9.74967 58.0062 9.75439 57.7862C10.0416 56.7514 10.1329 55.6615 10.5813 54.5349C11.004 55.4305 11.0376 56.2858 11.3505 57.0549C12.0031 59.9072 13.1503 62.5323 14.9438 64.8596C14.9328 64.9384 14.9685 64.9788 15.0456 64.9861L15.0546 64.9972L15.0567 64.9961ZM24.8915 28.1792C24.8537 28.1855 24.8154 28.1923 24.7776 28.1986C24.7923 28.2191 24.8064 28.2401 24.8211 28.2605C24.8443 28.2322 24.8668 28.2044 24.8899 28.176C24.7125 28.4684 24.9918 28.5451 25.1388 28.6527C25.7294 29.0843 26.4435 28.9987 27.1381 28.4348C27.1544 28.3855 27.1938 28.2989 27.1838 28.2926C27.1103 28.2479 27.0861 28.3041 27.073 28.3666C26.8467 28.4243 26.6209 28.4816 26.3947 28.5398C25.8297 28.6853 25.3047 28.6648 24.891 28.1797L24.8915 28.1792ZM20.9328 28.2437C20.2576 28.6454 19.5373 28.6023 18.7707 28.4107C18.9182 28.6685 19.1325 28.7483 19.3225 28.8286C20.0009 29.1142 20.7338 28.8281 20.9223 28.228C20.969 28.2779 21.0121 28.2747 21.043 28.2133C21.0499 28.2002 21.0362 28.1765 21.032 28.1576C20.9989 28.1865 20.9659 28.2149 20.9328 28.2437ZM38.464 38.3207C37.4581 40.0017 36.5298 41.7342 35.2445 43.2494C35.6126 43.0268 35.9465 42.7711 36.2327 42.4698C37.3541 41.2906 38.2929 40.0075 38.4556 38.3133C38.4819 38.285 38.5108 38.2587 38.5328 38.2277C38.5386 38.2193 38.5239 38.1968 38.5181 38.1805C38.4997 38.2272 38.4819 38.2739 38.4635 38.3207H38.464ZM27.2174 23.6463L27.24 23.6437C27.1329 23.1213 26.7617 22.7916 26.308 22.6493C24.1034 21.9589 21.8857 21.9363 19.6869 22.685C19.1792 22.8577 18.7912 23.2011 18.7025 23.7812C18.7655 24.0238 18.3958 24.144 18.4909 24.3965C21.5969 23.263 24.6568 23.3271 27.7477 24.511C27.6962 24.1996 27.5618 23.9713 27.367 23.7707C27.3303 23.713 27.3429 23.5975 27.2174 23.6458V23.6463ZM20.7663 43.5261C20.6214 43.8222 20.5112 44.1267 20.5453 44.4653C20.2697 44.9541 20.2807 45.509 20.1988 46.0387C19.8843 48.0716 20.9244 50.3333 22.5945 51.3024C24.6547 52.4979 27.3712 51.8731 29.0392 49.8193C29.1862 49.73 29.2876 49.6088 29.3059 49.4308L29.3028 49.436C30.0016 48.7525 30.3676 47.8873 30.6038 46.9654C30.7603 46.3564 30.8522 45.7311 30.9729 45.1126C31.0553 44.4863 31.0427 43.8595 30.9918 43.2315C30.911 42.2309 30.481 41.4035 29.7228 40.7551C28.6549 39.8416 27.1413 39.9728 26.4178 41.0895C25.7867 42.0645 25.4528 43.1617 25.3866 44.3304C25.2443 44.8449 25.1461 45.3673 25.1173 45.9012C25.0259 45.9542 24.9136 46.0435 24.8742 45.8665C24.808 45.5704 24.7613 45.2696 24.714 44.9698C24.5214 43.7487 24.525 42.4992 24.2179 41.2959C23.9533 40.2579 23.0707 39.9629 22.2181 40.6102C21.9755 40.794 21.7718 41.0192 21.6148 41.2864C21.2048 41.9857 20.9123 42.7281 20.7658 43.5261H20.7663ZM11.3505 62.2493C11.1231 61.4481 10.8958 60.647 10.6685 59.8458C10.7042 60.6968 10.9467 61.4912 11.3505 62.2493ZM11.4586 62.61L11.4408 62.6079L11.4476 62.6514L11.4586 62.61ZM21.2594 65.8713C21.272 65.8582 21.294 65.8456 21.294 65.8319C21.294 65.8183 21.2735 65.8041 21.2615 65.7904C21.2489 65.8036 21.2268 65.8162 21.2268 65.8298C21.2268 65.8435 21.2473 65.8576 21.2594 65.8713Z" fill="#2F281D"/>
<path id="Vector_7" d="M46.9596 18.5121C46.2319 18.1887 45.6717 17.5965 44.9414 17.2516C45.6817 18.3006 46.3921 19.3553 46.9896 20.4809C47.764 21.9399 48.4281 23.4403 48.6896 25.0889C48.4491 25.2553 48.3163 25.0085 48.1982 24.9114C47.775 24.5633 47.2993 24.3035 46.8384 24.0189C46.2981 23.6855 45.75 23.5333 45.3179 23.5753C45.7967 24.4289 46.2645 25.2878 46.297 26.3898C45.509 26.0297 45.1131 25.1755 44.2221 25.2248C44.2069 25.0595 44.1093 24.9839 43.9507 24.9744C43.9071 24.9298 43.884 24.8132 43.7937 24.9287C43.8478 24.9419 43.9013 24.9555 43.9554 24.9686C43.9633 25.1293 44.041 25.2254 44.2059 25.2411C44.2069 25.4369 44.3455 25.553 44.4642 25.6779C45.5279 26.7977 46.1542 28.1806 46.5302 29.627C47.3308 32.7056 46.7669 35.57 44.8217 38.1231C44.5776 38.4439 44.3119 38.7589 43.8462 39.0036C44.1024 38.0344 44.356 37.1702 44.5571 36.2945C44.9272 34.6828 44.7818 33.1398 43.8005 31.7527C42.8833 30.4565 40.674 29.4348 39.1645 30.2292C38.7933 30.4245 38.4332 30.5363 38.0578 30.424C37.6687 30.3074 37.4141 30.4544 37.1426 30.6975C37.4986 30.6108 37.6855 30.9941 37.9942 30.9757C38.3245 30.9558 38.6185 31.0618 38.9167 31.1679C39.7835 31.4761 40.434 32.0798 39.7489 32.9765C39.5646 33.2175 39.3992 33.4816 39.1777 33.6837C37.1731 35.5118 34.7937 36.4972 32.0987 36.588C29.8663 36.6631 27.8223 36.0063 26.0315 34.6156C25.4807 34.1877 25.0076 33.7015 24.5782 33.1624C24.4495 33.2821 24.3104 32.5507 24.1881 33.1671C24.0216 32.8426 23.8552 32.5187 23.6609 32.1391C24.3829 32.1491 25.0602 32.2699 25.7269 32.0935C27.6848 31.5763 28.6991 30.121 29.4321 28.3827C29.7361 27.6619 29.8862 26.9001 30.0364 26.1378C30.2432 26.2097 30.3152 26.3993 30.4144 26.5667C31.4687 28.3502 33.017 29.2569 35.1034 29.312C36.7783 29.3566 38.3649 28.892 39.9809 28.5927C40.5228 28.4925 41.0567 28.4678 41.5959 28.5702C41.7555 28.6006 41.9236 28.7088 42.0559 28.5051C41.9335 28.2919 41.7078 28.2473 41.5214 28.1517C40.3852 27.569 39.1225 27.3999 37.9118 27.0618C36.7835 26.7468 35.7324 26.3105 34.959 25.2495C35.5298 25.2175 35.7818 25.5824 36.1057 25.8149C36.2259 25.901 36.3677 26.0118 36.5221 25.9499C36.7037 25.8769 36.6323 25.6874 36.6365 25.5461C36.6412 25.3949 36.6313 25.2385 36.5956 25.0925C36.2406 23.6378 35.5628 22.3179 34.653 21.1592C33.3052 19.4424 31.5495 18.1693 29.6925 17.0143C29.8295 17.0143 29.9629 16.9896 30.0842 17.018C30.8552 17.1979 31.1486 16.9135 30.9641 16.1648C30.9589 16.1438 30.9473 16.1244 30.9431 16.1029C30.4107 13.2752 30.8817 10.7458 33.1277 8.74182C33.3619 8.53287 33.5845 8.30974 34.0807 8.30659C33.6491 8.70664 33.4669 9.12455 33.2611 9.52302C33.1908 9.659 32.9933 9.89315 33.2354 10.0412C33.4286 10.1599 33.5908 9.99553 33.751 9.86953C34.7774 9.06049 35.9314 8.65047 37.3159 8.77227C36.3078 9.19227 35.6069 9.82018 35.2494 11.0324C36.6491 10.0218 38.011 10.0402 39.4223 10.4502C40.8289 10.8592 41.9278 11.7784 43.0503 12.6741C43.223 12.4121 43.1815 12.2084 43.0755 12.011C41.376 8.84104 38.5639 7.08648 35.0882 5.89997C37.5196 5.31197 39.6481 5.71885 41.8921 6.62553C41.2074 5.54034 40.087 5.33297 39.2212 4.52814C42.1677 4.63629 44.4768 6.121 46.9591 7.08963C49.4866 8.07611 51.5573 9.68787 53.3876 11.6698C53.239 11.1983 53.0179 10.783 52.8594 10.3447C52.8074 10.2003 52.6 9.95878 52.8568 9.83015C53.0694 9.72358 53.1429 9.9824 53.2327 10.1089C53.6805 10.7447 54.1977 11.3506 54.5342 12.0425C55.6961 14.4334 57.561 16.2551 59.3272 18.1635C59.5635 18.4187 59.795 18.5158 60.1179 18.4271C61.5817 19.8231 62.4779 21.4648 62.3687 23.5548C62.3099 24.6757 61.9335 25.691 61.347 26.8287C61.4032 25.543 61.0971 24.4982 60.6755 23.4792C60.3164 22.1861 59.4585 21.2663 58.3837 20.3686C58.5633 21.0169 58.7135 21.5593 58.8636 22.1016C58.2541 21.5026 57.8188 20.8269 57.3017 20.2221C56.7913 19.6251 56.5041 18.7883 55.6483 18.5043C55.557 18.7232 55.6788 18.8455 55.7355 18.9794C56.2763 20.2583 56.5866 21.6133 56.4532 22.9757C56.2621 24.9303 55.9077 26.8712 55.5523 28.8048C55.4588 29.313 55.6006 29.8764 55.2504 30.4329C54.4927 28.7313 53.7057 27.1133 53.4217 25.3592C53.2794 24.4809 52.9056 23.3233 54.1578 22.7447C54.173 22.8602 54.1184 23.003 54.267 23.0644C54.2901 23.0739 54.3772 23.0072 54.383 22.9684C54.4077 22.7977 54.2806 22.7689 54.151 22.751C54.1452 22.6129 54.0922 22.5001 53.9782 22.4166C53.2915 21.9126 52.8489 21.2175 52.4 20.5082C52.0183 19.9044 52.0424 19.2267 51.855 18.5909C51.2423 16.5108 50.5634 14.4602 49.4372 12.5791C48.3247 10.7206 46.9854 9.11405 44.986 8.16484C44.7151 8.03621 44.4159 7.94486 44.1203 7.89971C43.8688 7.86139 43.6661 8.03674 43.5217 8.23519C43.3774 8.43364 43.558 8.54862 43.6724 8.67304C46.0051 11.2041 47.1618 14.2197 47.3613 17.6296C47.3996 18.2806 47.4022 18.2806 46.9596 18.5121ZM42.5121 18.0386C42.09 17.1256 41.8301 16.1386 41.2221 15.3112C40.4104 14.2061 39.3651 13.3923 38.0709 12.788C38.8049 12.4919 39.3898 13.0405 40.0287 12.9371C40.045 12.946 40.0613 12.955 40.0776 12.9639C40.0602 12.956 40.0429 12.9481 40.0256 12.9403C39.5835 12.0005 37.7302 11.2403 36.6785 11.4514C34.3642 11.9155 33.4569 14.898 34.3836 16.7313C34.5432 17.9457 34.9811 19.0487 35.7098 20.0352C36.0023 20.6242 36.5347 21.0022 36.9216 21.5152C36.9841 21.4081 37.004 21.3377 36.9809 21.2868C36.6176 20.4799 36.0123 19.7847 35.8852 18.8607C35.8726 18.7704 35.87 18.4423 35.5823 18.4507C35.5571 18.351 35.5319 18.2512 35.5067 18.1515C35.5733 18.1457 35.6395 18.1404 35.7062 18.1347C35.8994 18.2486 36.122 18.3189 36.2616 18.5116C36.2643 18.5762 36.2401 18.6665 36.2742 18.7022C37.5543 20.0504 39.0748 20.9293 41.0704 21.1597C40.706 20.7235 40.2356 20.5765 40.0082 20.1344C41.3791 20.1291 42.7132 20.0934 44.0562 20.2179C43.7722 20.1538 43.537 20.0042 43.2902 19.8813C42.8485 19.6608 42.8156 19.3378 43.1915 18.9122C42.384 18.9122 41.6831 18.9348 40.9848 18.9059C40.2267 18.8749 39.4312 19.1836 38.7183 18.6838C39.8287 18.3625 40.9281 17.984 42.111 18.0559C42.2496 18.173 42.3877 18.2601 42.5142 18.0417C42.5562 18.0323 42.5982 18.0234 42.6407 18.0139C42.6292 17.994 42.6182 17.9745 42.6066 17.9546C42.5751 17.9829 42.5436 18.0108 42.5121 18.0391V18.0386Z" fill="#EDCA94"/>
<path id="Vector_8" d="M60.12 18.4276C59.7971 18.5163 59.5655 18.4197 59.3293 18.164C57.5631 16.2557 55.6982 14.4339 54.5363 12.043C54.1997 11.3505 53.6826 10.7452 53.2347 10.1094C53.1455 9.98238 53.0714 9.72408 52.8588 9.83066C52.6021 9.95928 52.8094 10.2008 52.8614 10.3452C53.0195 10.7835 53.241 11.1988 53.3896 11.6703C51.5594 9.68838 49.4886 8.07609 46.9612 7.09014C44.4793 6.12151 42.1703 4.63679 39.2233 4.52864C40.0896 5.33347 41.2095 5.54085 41.8941 6.62603C39.6506 5.71935 37.5217 5.31247 35.0902 5.90048C38.5659 7.08699 41.378 8.84155 43.0775 12.0115C43.1836 12.2089 43.225 12.4126 43.0523 12.6746C41.9298 11.7789 40.8309 10.8602 39.4244 10.4507C38.0131 10.0401 36.6512 10.0223 35.2514 11.0329C35.609 9.82068 36.3099 9.19278 37.3179 8.77277C35.9334 8.65097 34.7789 9.061 33.753 9.87003C33.5929 9.99603 33.4312 10.1604 33.2374 10.0417C32.9959 9.89366 33.1933 9.65951 33.2631 9.52353C33.469 9.12453 33.6511 8.70715 34.0827 8.3071C33.5866 8.31025 33.364 8.53337 33.1298 8.74232C30.8832 10.7463 30.4122 13.2757 30.9451 16.1034C30.9493 16.1244 30.9609 16.1444 30.9661 16.1654C31.1503 16.9158 30.8569 17.2001 30.0862 17.0185C29.9649 16.9901 29.8316 17.0148 29.6945 17.0148C31.5516 18.1698 33.3072 19.443 34.655 21.1597C35.5649 22.3184 36.2427 23.6383 36.5976 25.093C36.6333 25.2395 36.6433 25.396 36.6386 25.5466C36.6344 25.6879 36.7058 25.8774 36.5241 25.9504C36.3703 26.0123 36.228 25.9015 36.1078 25.8154C35.7838 25.5829 35.5318 25.2185 34.9611 25.25C35.735 26.3111 36.7856 26.7473 37.9139 27.0623C39.1246 27.4004 40.3873 27.5695 41.5234 28.1522C41.7093 28.2478 41.9356 28.2924 42.0579 28.5056C41.9256 28.7087 41.7576 28.6011 41.598 28.5707C41.0583 28.4683 40.5248 28.493 39.983 28.5932C38.367 28.8925 36.7803 29.3571 35.1055 29.3125C33.0195 29.2568 31.4707 28.3502 30.4164 26.5673C30.3172 26.3998 30.2453 26.2103 30.0384 26.1383C30.2196 23.3348 28.5857 21.3109 25.6182 20.82C23.7675 20.514 21.901 20.5334 20.0508 20.9718C17.2697 21.6306 16.2501 23.8593 16.5242 26.2864C16.7316 28.1228 17.4467 29.7566 18.7151 31.1259C18.682 31.7322 18.2578 32.1543 17.9376 32.5932C17.2802 33.4947 16.289 33.6349 15.3266 33.0589C15.167 32.9634 14.9979 32.9613 14.8268 32.9413C14.3175 30.5793 14.6519 28.3034 15.5403 26.089C15.6904 25.7146 15.7335 25.344 15.7125 24.9487C15.6589 23.9538 15.6195 22.9584 15.5749 21.963C16.3047 21.5692 16.6964 20.861 17.2723 20.2583C16.3966 20.0703 15.9944 20.3029 15.5387 21.187C15.272 18.5 14.9375 15.812 15.6248 13.135C15.639 13.081 15.6127 13.0159 15.6048 12.9565L15.5828 12.9544C15.7776 12.9277 15.6847 12.7859 15.691 12.6835C16.09 11.9837 16.4895 11.2844 16.8885 10.5846C17.255 10.1184 17.621 9.65216 18.042 9.11718C17.5254 9.082 17.3437 9.48993 17.0224 9.62171C16.8696 9.68418 16.7321 9.89156 16.5657 9.75191C16.3661 9.58391 16.5263 9.37758 16.6323 9.22953C16.9951 8.72132 17.3794 8.22887 17.831 7.62984C15.5513 8.23832 14.2813 9.95088 12.8521 11.5878C12.8222 10.7678 13.2695 10.1945 13.3498 9.40593C12.7529 9.86478 12.3896 10.3672 12.073 10.9027C11.139 12.4809 10.2989 14.1084 9.11602 15.5401C8.57209 16.1984 7.88902 16.6977 7.36924 17.3645C6.76966 18.1336 5.86871 18.6161 5.36311 19.4844C5.13105 19.8824 4.96566 19.6341 4.84911 19.3595C5.49962 18.5126 6.25723 17.7624 6.997 16.998C8.80625 15.1285 9.85421 12.8158 10.8596 10.4717C12.5366 6.56251 15.2967 5.00167 19.437 4.8594C19.9794 4.8405 20.5259 4.77225 21.0662 4.88092C21.2673 4.92135 21.3938 4.81005 21.5356 4.70977C24.7766 2.41655 28.3515 1.81805 32.1947 2.63338C32.4835 2.69481 32.7434 2.70531 33.0248 2.64231C36.8685 1.7771 40.4382 2.46223 43.76 4.54702C44.095 4.75702 44.4515 4.8468 44.8668 4.83472C46.5884 4.78537 48.2963 4.8636 49.937 5.4936C52.3595 6.42443 53.9545 8.17165 54.9736 10.5048C55.8971 12.619 56.7976 14.7463 58.358 16.4993C58.9365 17.1497 59.5314 17.786 60.1189 18.4286L60.12 18.4276ZM20.1411 18.762C19.8875 18.9935 19.6376 19.2293 19.3798 19.4556C18.859 19.9128 18.3287 20.3601 17.8136 20.8237C17.6834 20.9408 17.5931 21.1093 17.7223 21.2899C17.8551 21.4763 17.9974 21.3492 18.1176 21.2736C20.0203 20.0761 21.9388 18.9022 23.8137 17.6621C24.7178 17.0642 25.3011 16.179 25.6282 15.1274C25.9463 14.1063 25.9889 13.0768 25.7673 12.042C25.5274 10.9216 25.09 9.88526 24.2463 9.07413C24.094 8.92765 23.8877 8.64677 23.642 8.8384C23.4656 8.97648 23.5454 9.2458 23.6735 9.43638C23.8431 9.68838 23.8494 9.94511 23.7685 10.2375C23.5386 10.1693 23.4073 10.0386 23.2718 9.89576C22.7804 9.37915 22.1719 9.06258 21.4778 8.9161C21.3203 8.88303 21.104 8.7985 21.0147 9.00378C20.9391 9.17808 21.1297 9.2752 21.2489 9.34818C21.7923 9.68103 21.986 10.2139 22.1488 10.7799C22.0737 10.8077 22.0307 10.8402 21.996 10.8329C21.9136 10.8161 21.8165 10.8009 21.7587 10.7484C20.9937 10.0548 20.1448 10.394 19.4843 10.7757C18.6017 11.2854 17.852 12.0215 17.2225 12.8689C15.8852 14.6691 16.0359 16.8542 15.588 18.8838C15.5455 19.0765 15.6516 19.2734 15.8805 19.1678C16.7809 18.7531 17.7291 19.0382 18.6495 18.9447C18.8716 18.9221 19.1493 19.0387 19.2538 18.7106C19.5499 18.7274 19.846 18.7442 20.1427 18.7615L20.1411 18.762Z" fill="white"/>
<path id="Vector_9" d="M24.1892 33.1665C24.3115 32.5502 24.4506 33.2815 24.5793 33.1618C25.0087 33.701 25.4818 34.1872 26.0325 34.615C27.8234 36.0058 29.8674 36.662 32.0998 36.5875C34.7947 36.4972 37.1742 35.5112 39.1787 33.6832C39.4003 33.4816 39.5657 33.2169 39.75 32.976C40.4351 32.0793 39.7841 31.4755 38.9178 31.1673C38.6196 31.0613 38.3256 30.9558 37.9953 30.9752C37.6866 30.9936 37.4992 30.6103 37.1437 30.6969C37.4157 30.4539 37.6698 30.3069 38.0589 30.4234C38.4342 30.5358 38.7939 30.4239 39.1656 30.2286C40.6745 29.4343 42.8839 30.456 43.8016 31.7522C44.7834 33.1392 44.9283 34.6822 44.5582 36.294C44.3571 37.1702 44.1035 38.0344 43.8473 39.003C44.313 38.7584 44.5787 38.4434 44.8228 38.1226C46.768 35.5695 47.3319 32.7045 46.5312 29.6264C46.1553 28.1806 45.529 26.7972 44.4653 25.6774C44.3466 25.5524 44.208 25.4364 44.2069 25.2406L44.2232 25.2243C45.1142 25.1744 45.5101 26.0291 46.2981 26.3893C46.2656 25.2873 45.7978 24.4284 45.319 23.5747C45.7511 23.5327 46.2997 23.685 46.8394 24.0184C47.3004 24.3029 47.7761 24.5628 48.1993 24.9109C48.3174 25.008 48.4497 25.2547 48.6907 25.0883C49.4683 28.7523 50.407 32.3874 50.7551 36.2919C50.2259 34.6843 49.6294 33.2689 49.2383 31.7637C49.0881 35.7989 47.5078 39.2897 45.2328 42.5946C46.1653 42.3546 46.914 41.837 47.6979 41.3214C48.1126 43.5522 47.7231 45.6469 47.1497 47.7128C48.4618 46.7846 51.0486 43.5369 51.4308 41.7861C51.5127 41.4128 51.6298 41.5115 51.7847 41.7273C53.5756 44.2221 55.4042 46.6775 56.1571 49.7603C56.5267 51.2745 56.8848 52.7697 56.899 54.33C56.9121 55.7748 56.7205 57.1902 56.1519 58.6896C56.1372 56.9335 55.5864 55.4246 55.1716 53.8717C55.0787 55.6189 54.5122 57.2469 54.057 58.9001C53.3629 61.4233 52.106 63.6446 50.4117 65.6176C48.8608 67.4236 47.1881 69.1025 45.0916 70.2917C44.9425 70.3762 44.7776 70.4334 44.6201 70.5033C44.596 70.4702 44.5676 70.4402 44.5351 70.4145C45.2985 69.3892 46.0619 68.3644 46.8253 67.3391C46.9775 67.5165 47.0846 67.3679 47.2117 67.2929C48.2418 66.6828 49.002 65.8475 49.599 64.7944C50.4642 63.2671 51.4844 61.8297 52.1753 60.2021C52.3228 59.8551 52.2404 59.4388 52.4499 59.1485C53.2978 57.9719 53.5204 56.6022 53.6065 55.2293C53.7247 53.3487 53.4233 51.5002 52.7045 49.7488C52.3853 48.9713 52.138 48.1365 51.4796 47.3999C51.3668 47.9312 51.2345 48.3192 50.9835 48.6473C50.8596 48.809 50.8507 48.9665 50.9252 49.1335C51.1767 49.6958 51.2528 50.299 51.3463 50.898C51.5552 52.2363 51.9222 53.575 51.3227 54.919C51.1993 54.3431 51.4765 53.6706 50.8753 53.2327C50.4102 53.6359 50.4249 54.2423 50.25 54.7626C50.0395 55.3884 49.9256 56.0462 49.6058 56.6353C49.4336 56.6332 49.2115 56.6085 49.2084 56.8447C49.2026 57.3241 48.9858 57.7021 48.7437 58.0901C48.6214 58.2864 48.5799 58.5379 48.8057 58.7311C47.9037 61.092 46.558 63.1905 44.9934 65.1634C45.4245 64.2321 45.9563 63.3543 46.3764 62.4203C47.2348 60.5108 47.8501 58.5258 48.2355 56.4694C48.2733 56.2688 48.3694 56.0389 48.152 55.864C48.0785 55.789 47.9656 55.6362 47.9373 55.6504C47.0704 56.0882 47.3918 55.36 47.3744 55.0513C47.3419 54.466 47.3718 53.8769 47.3734 53.2894C47.375 52.7098 47.3734 52.1302 47.3734 51.5506C46.8641 53.6301 45.719 55.3889 44.8354 57.259C44.795 57.3451 44.7262 57.395 44.628 57.3671C44.5209 57.3362 44.5167 57.2553 44.5409 57.1624C44.5907 56.9739 44.6385 56.7849 44.6858 56.5959C44.89 55.7758 45.006 54.3573 44.8905 53.8223C44.4884 55.2183 43.6441 56.2688 42.8156 57.3472C41.9908 58.4208 41.0142 59.3438 40.1731 60.4253C40.0083 60.2037 40.1343 60.1003 40.1789 59.989C41.1602 57.5577 42.4659 55.2661 43.3076 52.7765C43.5134 52.1675 43.9639 51.59 43.7055 50.877C43.7229 50.8151 43.7318 50.7495 43.7586 50.6922C44.8254 48.4457 45.1147 46.1315 44.2999 43.747C44.0841 43.1154 43.5974 42.6366 43.1254 42.1583C43.3464 42.793 43.464 43.4409 43.5333 44.0704C43.7318 45.8795 43.6788 47.6876 43.3679 49.4936C43.1737 50.6214 42.7285 51.6908 42.645 52.839L42.6497 52.8248C42.6088 52.8521 42.603 52.8857 42.6319 52.9251C42.1998 54.1168 41.3188 55.0088 40.5449 55.9596C39.0748 57.7661 37.1726 59.1527 35.6406 60.9057C34.8982 61.7556 34.1747 62.6145 33.6255 63.6063C32.7125 65.2569 31.9554 66.9558 31.9906 68.9167C31.8184 68.4132 31.4036 68.0342 31.3873 67.4887C31.37 67.3853 31.4025 67.2577 31.2566 67.2167L31.265 67.2283C31.1558 65.9977 30.9447 64.7728 31.1899 63.5307C31.6798 61.0469 33.0658 59.0666 34.6903 57.217C35.9792 55.7491 37.4068 54.4014 38.5629 52.8185C40.4519 50.2329 41.376 47.3427 41.1954 44.1318C41.166 43.6073 41.0877 43.0692 40.863 42.5016C38.5965 48.0961 35.1838 52.3455 28.8078 53.5409C31.5774 51.1369 34.0366 48.6006 36.845 46.4439C39.3347 44.5318 41.0683 41.9772 42.3888 39.1385C43.0545 37.7068 43.5486 36.2441 43.6452 34.646C43.7365 33.1377 42.7127 31.4902 41.293 31.0335C40.9591 30.9264 40.9124 31.2114 40.8693 31.3915C40.6646 32.2457 40.264 33.0054 39.8544 33.775C38.4521 36.4095 36.2759 38.0659 33.374 38.5436C30.2585 39.0566 27.6449 37.9525 25.655 35.4682C25.0838 34.7552 24.5677 34.0045 24.1907 33.1665H24.1892ZM43.6872 39.192C43.7034 39.1831 43.7197 39.1747 43.7355 39.1658C43.7218 39.1542 43.7082 39.1348 43.6935 39.1332C43.6782 39.1322 43.6614 39.1484 43.6452 39.1574C43.6588 39.1689 43.673 39.1805 43.6866 39.192H43.6872Z" fill="#CD9D55"/>
<path id="Vector_10" d="M31.3857 67.4887C31.4019 68.0347 31.8167 68.4132 31.9889 68.9167C31.9538 66.9563 32.7108 65.2569 33.6239 63.6063C34.1725 62.6145 34.896 61.7551 35.6389 60.9056C37.171 59.1527 39.0731 57.7661 40.5432 55.9596C41.3171 55.0088 42.1981 54.1168 42.6302 52.9251C42.6302 52.8904 42.636 52.8573 42.6481 52.8248L42.6433 52.839C42.9967 52.1848 43.3506 51.5312 43.7039 50.877C43.9622 51.5905 43.5117 52.1675 43.3059 52.7765C42.4643 55.2661 41.1586 57.5577 40.1773 59.989C40.1327 60.1003 40.0066 60.2032 40.1715 60.4253C41.0121 59.3438 41.9892 58.4208 42.814 57.3472C43.6425 56.2683 44.4867 55.2183 44.8889 53.8223C45.0044 54.3573 44.8884 55.7764 44.6841 56.5959C44.6369 56.7849 44.5891 56.9739 44.5392 57.1624C44.5145 57.2553 44.5193 57.3361 44.6264 57.3671C44.7246 57.3955 44.7928 57.3451 44.8338 57.259C45.7179 55.3889 46.863 53.6301 47.3717 51.5506C47.3717 52.1302 47.3728 52.7098 47.3717 53.2894C47.3702 53.8769 47.3408 54.466 47.3728 55.0513C47.3901 55.3606 47.0688 56.0887 47.9356 55.6504C47.964 55.6362 48.0769 55.789 48.1504 55.864C47.4642 57.627 46.6624 59.3296 45.5278 60.8563C45.511 60.6993 45.5872 60.5224 45.4407 60.3722C45.0611 60.7865 44.66 61.1545 44.3423 61.584C42.8891 63.548 41.0935 65.186 39.3577 66.8818C39.1472 67.0876 38.9183 67.3012 38.6043 67.3627L38.5817 67.3438C38.7177 66.7253 39.3225 66.3274 39.4491 65.5336C35.724 68.87 34.245 73.2401 32.9025 77.659C31.8524 74.3405 30.6921 71.0492 28.8094 68.0678C28.3153 67.285 27.8407 66.4707 26.9644 66.0271C26.9623 65.9184 26.9334 65.8228 26.831 65.764C26.8053 65.7488 26.7791 65.7331 26.7533 65.7173C26.7686 65.7436 26.7838 65.7698 26.799 65.7955C26.8043 65.9026 26.8394 65.9935 26.9371 66.0496C27.0484 66.6077 27.5855 66.9778 27.68 67.7044C27.218 67.3117 26.8484 67.0193 26.5034 66.7001C25.5799 65.8449 24.6732 64.9713 23.747 64.1192C23.2787 63.6882 22.9086 63.7512 22.6172 64.273C20.642 61.7577 18.9388 59.0755 17.6331 56.0856C17.5317 56.5917 17.5244 56.5938 17.7013 57.2968C18.0977 58.8744 18.5802 60.4242 19.2255 61.9205C19.3021 62.0979 19.3436 62.2901 19.4014 62.4754C19.1672 62.8377 19.0275 62.2691 18.8149 62.4161L18.8007 62.3988C18.8312 62.2397 18.7661 62.1441 18.6075 62.1121C18.5844 62.0743 18.5718 62.0328 18.5692 61.9887C18.5744 61.8097 18.5729 61.6349 18.3429 61.5892C17.537 60.263 17.0188 58.8046 16.4202 57.3839C15.8285 55.9801 15.4306 54.5064 14.8677 53.0521C14.8 53.2863 14.7323 53.5199 14.6646 53.754C14.5433 53.3745 14.6493 53.0127 14.7612 52.6552C14.8037 52.5198 14.9208 52.4473 15.0667 52.4594C15.2846 52.4772 15.1534 52.6526 15.1948 52.7497C15.3261 53.0568 15.2043 53.4873 15.6401 53.7089C15.6836 53.4779 15.7183 53.2957 15.7855 52.9398C15.8642 53.3965 15.943 53.6706 15.9535 53.9472C15.9829 54.7411 15.7508 55.6036 16.6812 56.1439C16.8907 56.0005 17.1422 55.7359 17.4467 55.6393C18.1539 55.4152 18.4353 55.1191 18.4348 54.4261C18.4343 53.6648 18.4316 52.903 18.4411 52.1418C18.4432 51.9827 18.3655 51.7365 18.5965 51.7039C18.8112 51.6735 18.8438 51.9097 18.8837 52.0735C19.2034 53.3897 19.7857 54.6056 20.3118 55.843C20.695 56.745 21.1198 57.627 21.7419 58.466C21.8475 57.7829 22.3904 57.3403 22.2958 56.6594C22.2685 56.4646 22.5232 56.6038 22.5935 56.7382C22.865 57.2558 23.1201 57.7824 23.3932 58.2995C23.9591 59.3716 24.6149 60.3906 25.4177 61.2968C26.0472 62.0076 26.5706 61.9882 27.0573 61.343C28.2717 63.2409 29.515 65.1193 30.9147 66.8875C31.0124 67.0109 31.0449 67.2209 31.2628 67.2272L31.2544 67.2157C31.2003 67.3538 31.2686 67.4325 31.3851 67.4876L31.3857 67.4887ZM39.6743 65.428C39.6948 65.3981 39.7389 65.353 39.731 65.3404C39.6806 65.259 39.6423 65.3194 39.6055 65.3614C39.5656 65.4013 39.5042 65.4412 39.5866 65.4921C39.5982 65.4994 39.6439 65.4511 39.6743 65.428ZM39.9657 60.6284C39.9631 60.6615 39.9599 60.6941 39.9573 60.7271C39.9694 60.7119 39.9904 60.6972 39.9919 60.6809C39.9935 60.6641 39.9757 60.6458 39.9662 60.6284H39.9657Z" fill="#EDCA94"/>
<path id="Vector_11" d="M54.1576 22.7452C52.9054 23.3243 53.2792 24.4819 53.4215 25.3597C53.7055 27.1138 54.4926 28.7318 55.2502 30.4334C55.6009 29.8769 55.4591 29.3135 55.5521 28.8053C55.9075 26.8717 56.2614 24.9303 56.453 22.9762C56.5864 21.6138 56.2761 20.2588 55.7353 18.9799C55.6786 18.846 55.5568 18.7242 55.6481 18.5048C56.5039 18.7893 56.7911 19.6262 57.3015 20.2226C57.8186 20.8274 58.2539 21.5031 58.8634 22.1021C58.7133 21.5598 58.5631 21.018 58.3835 20.369C59.4583 21.2663 60.3167 22.1861 60.6753 23.4797C60.6102 25.3729 59.599 26.8639 58.6392 28.3932C57.6858 29.9131 57.1839 31.5936 57.1629 33.4002C57.1518 34.3751 57.1607 35.3495 57.1607 36.3806C55.9716 35.8409 55.0029 35.0324 54.188 34.0296C52.5914 32.0651 52.0638 29.7356 51.9404 27.2828C51.8517 25.522 52.0123 23.7537 51.8175 21.996C51.3776 18.0186 50.0849 14.383 47.4629 11.2907C47.3789 11.192 47.2923 11.0954 47.1453 11.0271C47.7171 12.3291 47.9638 13.7025 48.1927 15.076C48.4001 16.3207 48.4673 17.5808 48.4978 18.8429C48.5083 19.2755 48.3408 19.2739 48.0378 19.1043C47.6793 18.9032 47.3175 18.7085 46.9573 18.5116C47.3999 18.2806 47.3973 18.2806 47.359 17.6296C47.1595 14.2197 46.0028 11.2046 43.6701 8.67301C43.5557 8.54859 43.3751 8.43361 43.5194 8.23516C43.6638 8.03671 43.867 7.86136 44.118 7.89968C44.4136 7.94483 44.7134 8.03671 44.9838 8.16481C46.9825 9.11349 48.3224 10.7205 49.435 12.579C50.5611 14.4601 51.24 16.5108 51.8527 18.5909C52.0401 19.2266 52.016 19.9049 52.3977 20.5082C52.8466 21.218 53.2892 21.9126 53.9759 22.4166C54.0899 22.5 54.1429 22.6129 54.1487 22.751L54.1555 22.7447L54.1576 22.7452ZM58.9206 22.5336C58.9311 22.4974 58.938 22.4748 58.9443 22.4528C58.9301 22.457 58.9038 22.4607 58.9038 22.4659C58.9028 22.4827 58.9112 22.5 58.9206 22.5336Z" fill="#CD9D55"/>
<path id="Vector_12" d="M27.0594 61.3435C26.5727 61.9893 26.0492 62.0082 25.4197 61.2973C24.617 60.3911 23.9612 59.3721 23.3952 58.3001C23.1222 57.7829 22.867 57.2563 22.5956 56.7387C22.5252 56.6043 22.2706 56.4652 22.2979 56.6599C22.3924 57.3409 21.8495 57.7835 21.744 58.4665C21.1218 57.6275 20.6971 56.7455 20.3138 55.8436C19.7877 54.6066 19.205 53.3902 18.8857 52.074C18.8458 51.9102 18.8133 51.674 18.5985 51.7044C18.3675 51.737 18.4452 51.9832 18.4431 52.1423C18.4337 52.9035 18.4363 53.6648 18.4368 54.4266C18.4368 55.1196 18.1554 55.4157 17.4487 55.6399C17.1442 55.7365 16.8932 56.0011 16.6832 56.1444C15.7529 55.6036 15.9849 54.7416 15.9555 53.9478C15.945 53.6711 15.8663 53.397 15.7875 52.9403C15.7203 53.2962 15.6857 53.4784 15.6421 53.7094C15.2069 53.4879 15.3281 53.0574 15.1969 52.7502C15.1554 52.6526 15.2867 52.4778 15.0688 52.4599C14.9228 52.4478 14.8057 52.5203 14.7632 52.6557C14.6514 53.0133 14.5458 53.375 14.6666 53.7546C14.6608 53.8407 14.655 53.9268 14.6493 54.0129C14.297 53.8338 14.4067 54.1152 14.391 54.2717L14.3957 54.268C14.3238 54.2271 14.1841 54.1693 14.1893 54.1483C14.3159 53.6522 14.0376 53.1587 14.1605 52.6773C14.4072 51.7086 14.3043 50.678 14.6619 49.7372C14.9674 48.9329 14.5217 48.3245 14.2277 47.496C12.5912 50.5489 11.7175 53.5902 12.4253 57.0563C11.9406 56.5707 11.5154 56.6242 11.3542 57.0537C11.0413 56.2846 11.0071 55.4299 10.585 54.5337C10.1366 55.6603 10.0453 56.7502 9.7581 57.785C9.6531 57.501 9.41894 57.2779 9.55807 56.9014C9.97284 55.7779 9.90931 54.5636 10.1456 53.397C10.3818 52.2305 10.6255 51.0697 10.9888 49.9436C11.6183 47.9916 12.4909 46.1441 13.5745 44.3974C13.8339 43.979 14.0135 43.4403 14.5952 44.0646C14.9926 45.2248 15.567 46.2948 16.333 47.4309C16.2496 45.1849 16.7798 43.1311 17.0523 40.9261C17.5459 41.733 18.0593 42.4166 18.6285 43.0576C18.8191 43.2729 18.6673 43.5102 18.5938 43.7354C17.9937 45.5713 17.8183 47.4272 18.3219 49.3183C19.0648 52.1071 21.2725 54.0396 24.1439 54.3851C24.4505 54.4219 24.6679 54.4386 24.7246 54.8272C25.048 57.0448 25.7888 59.118 26.9434 61.0421C26.998 61.1335 27.0226 61.2427 27.061 61.3435H27.0594Z" fill="#CD9D55"/>
<path id="Vector_13" d="M4.85041 19.3589C4.96697 19.633 5.13235 19.8818 5.36442 19.4839C5.87055 18.6155 6.77097 18.1331 7.37055 17.3639C7.89033 16.6972 8.57392 16.1979 9.11732 15.5395C10.3002 14.1078 11.1403 12.4803 12.0743 10.9022C12.3909 10.3667 12.7542 9.86424 13.3512 9.40539C13.2708 10.1939 12.8235 10.7667 12.8534 11.5873C14.282 9.95034 15.5521 8.23778 17.8323 7.6293C17.3808 8.22833 16.9964 8.72079 16.6336 9.22899C16.5281 9.37704 16.3674 9.58337 16.567 9.75137C16.7334 9.89154 16.871 9.68364 17.0237 9.62117C17.3451 9.48992 17.5267 9.08146 18.0433 9.11664C17.6223 9.65214 17.2563 10.1183 16.8899 10.5845C16.725 10.3483 16.6357 10.1698 16.2441 10.4034C15.7915 10.6727 15.4665 11.003 15.194 11.4225C13.9465 13.3445 13.6609 15.5516 13.3538 17.7435C13.096 19.5821 12.9611 21.4537 11.0242 22.6308C11.6154 22.7925 11.8448 23.0859 11.7808 23.57C11.7598 23.7291 11.8097 23.8682 11.9913 23.9275C12.7075 24.1622 12.6229 24.7376 12.5101 25.271C12.331 26.1184 12.1231 26.9615 11.8769 27.7915C11.5151 29.0085 11.1292 30.2197 10.5339 31.3621C10.548 29.3445 10.0198 27.4198 9.66178 25.4705C9.29268 23.4597 9.22811 21.4632 9.80301 19.4723C9.89752 19.1442 10.1826 18.8649 10.1275 18.4244C9.22968 18.9946 8.62642 19.7495 8.01686 20.5139C7.41466 21.2694 7.20412 22.2412 6.55676 22.972C6.71952 22.2659 6.88175 21.5598 7.04451 20.8541C6.01178 21.575 5.29301 22.4675 5.13025 23.7175C4.86512 24.7203 4.42567 25.691 4.61048 26.8255C3.1845 24.8878 2.89311 21.4894 4.85041 19.36V19.3589Z" fill="#EDCA94"/>
<path id="Vector_14" d="M38.6041 67.3637C38.9181 67.3023 39.147 67.0886 39.3575 66.8828C41.0933 65.1871 42.8889 63.549 44.3422 61.585C44.6598 61.1556 45.0609 60.7875 45.4405 60.3733C45.587 60.524 45.5109 60.7004 45.5277 60.8573C44.6693 62.4024 43.6281 63.8247 42.492 65.1692C40.4885 67.5401 38.8472 70.1415 37.3945 72.8731C35.9538 75.5821 34.5824 78.3253 33.2399 81.0836C33.1375 81.2936 33.0225 81.4973 32.8692 81.7871C32.2865 80.6127 31.7441 79.5013 31.1865 78.3977C29.4298 74.9238 27.7812 71.3868 25.5666 68.1685C24.6447 66.8287 23.6046 65.5693 22.6186 64.2735C22.91 63.7517 23.2801 63.6887 23.7484 64.1197C24.6746 64.9723 25.5813 65.8454 26.5048 66.7006C26.8498 67.0198 27.2194 67.3123 27.6814 67.705C27.5869 66.9789 27.0503 66.6082 26.939 66.0502L26.9658 66.0271C27.8416 66.4712 28.3162 67.2855 28.8108 68.0683C30.6935 71.0498 31.8538 74.341 32.9039 77.6596C34.2464 73.2406 35.7259 68.871 39.4505 65.5341C39.3239 66.3284 38.7191 66.7264 38.5831 67.3443C38.5522 67.3942 38.5196 67.444 38.4918 67.4955C38.4902 67.4981 38.5228 67.5196 38.5396 67.5317C38.5616 67.4755 38.5837 67.4188 38.6057 67.3627L38.6041 67.3637Z" fill="#CD9D55"/>
<path id="Vector_15" d="M5.12783 23.7165C5.29059 22.467 6.00935 21.5739 7.04208 20.8531C6.87933 21.5592 6.71709 22.2654 6.55433 22.971C7.20222 22.2402 7.41223 21.2684 8.01444 20.5129C8.62347 19.749 9.22725 18.9936 10.1251 18.4234C10.1807 18.8639 9.89562 19.1437 9.80059 19.4713C9.22568 21.4621 9.29026 23.4587 9.65935 25.4695C10.0169 27.4188 10.5456 29.3435 10.5314 31.3611C11.1268 30.2187 11.5127 29.0075 11.8745 27.7905C12.1212 26.9605 12.3286 26.1173 12.5076 25.27C12.6205 24.736 12.705 24.1612 11.9889 23.9265C11.8072 23.8672 11.7574 23.728 11.7784 23.569C11.8424 23.0849 11.613 22.7914 11.0218 22.6297C12.9586 21.4521 13.0936 19.5805 13.3514 17.7425C13.6585 15.5506 13.9441 13.3435 15.1916 11.4214C15.4641 11.0014 15.7891 10.6717 16.2416 10.4024C16.6333 10.1688 16.7226 10.3478 16.8874 10.5835C16.4884 11.2828 16.0889 11.9827 15.6898 12.682C15.5581 12.7339 15.5287 12.8269 15.5817 12.9529C15.5817 12.9529 15.6037 12.9555 15.6037 12.955C14.9249 13.7472 14.7149 14.7547 14.3993 15.7002C13.3897 18.7248 13.2836 21.8611 13.3377 25.0127C13.3687 26.8177 13.3167 28.62 13.0904 30.415C12.735 33.2369 11.1284 35.1012 8.65392 36.3376C8.65392 35.3128 8.6471 34.3242 8.6555 33.3356C8.6723 31.3374 8.08584 29.5293 6.96701 27.8834C6.34275 26.9652 5.75839 26.0297 5.38929 24.9665C5.24544 24.5523 5.38089 24.0955 5.1273 23.716L5.12783 23.7165Z" fill="#CD9D55"/>
<path id="Vector_16" d="M29.0394 49.8186C27.3713 51.8724 24.6548 52.4977 22.5946 51.3018C20.9245 50.3326 19.8844 48.0709 20.1989 46.0381C20.2808 45.5089 20.2698 44.9534 20.5454 44.4646C20.6053 44.4405 20.6793 44.4316 20.7229 44.3901C21.826 43.348 22.7542 43.4104 23.745 44.5586C23.9382 44.7823 24.0269 45.1072 24.3393 45.2248C24.3493 45.88 24.5582 46.4791 24.8066 47.1553C25.1027 46.7201 25.1904 46.3263 25.2922 45.9388C25.5311 45.6055 25.7637 45.2668 26.011 44.9392C26.4147 44.4032 26.9933 44.0893 27.6286 44.1218C29.1948 44.2027 30.2034 45.6595 29.9109 47.2036C29.766 47.9685 29.409 48.6657 29.3024 49.4348L29.3056 49.4296C29.0546 49.448 29.042 49.6296 29.0388 49.8181L29.0394 49.8186Z" fill="white"/>
<path id="Vector_17" d="M14.3901 54.2717C14.4053 54.1147 14.2956 53.8333 14.6484 54.0129C14.3313 58.6717 16.1857 62.6634 18.4895 66.5169C18.6554 66.7941 18.814 67.0755 18.9757 67.3548C18.2049 67.2115 17.5313 66.8629 16.9086 66.3972C16.3379 65.9704 15.7578 65.5561 15.1813 65.1361L15.1692 65.1172C15.1319 65.0773 15.0947 65.0369 15.0574 64.9965L15.0485 64.9854C15.0143 64.9434 14.9802 64.9009 14.9466 64.8589C13.1531 62.5316 12.0059 59.9066 11.3533 57.0542C11.514 56.6248 11.9398 56.5712 12.4244 57.0568C11.7166 53.5902 12.5903 50.5489 14.2268 47.4965C14.5208 48.325 14.9666 48.9335 14.661 49.7378C14.3034 50.6786 14.4058 51.7092 14.1596 52.6778C14.0372 53.1592 14.315 53.6527 14.1885 54.1488C14.1832 54.1698 14.3229 54.2281 14.3948 54.2685C14.4305 54.3111 14.3349 54.4381 14.4846 54.4077C14.4531 54.3625 14.4216 54.3174 14.3901 54.2727V54.2717ZM14.9765 61.5078C14.566 60.0693 14.3748 58.5951 14.106 57.1361C14.0856 57.0243 14.0499 56.9104 13.9076 56.9377C13.7354 56.9707 13.739 57.1267 13.7564 57.25C13.8944 58.2313 13.948 59.2272 14.2851 60.1733C14.4536 60.6463 14.6022 61.1267 14.9765 61.5078Z" fill="#EDCA94"/>
<path id="Vector_18" d="M50.8754 53.2338C51.4766 53.6716 51.1994 54.3442 51.3228 54.9201C51.9223 53.5761 51.5553 52.2373 51.3464 50.8991C51.2529 50.2995 51.1768 49.6968 50.9253 49.1345C50.8508 48.9681 50.8597 48.8101 50.9836 48.6484C51.2351 48.3208 51.3669 47.9328 51.4797 47.401C52.1386 48.137 52.3854 48.9723 52.7046 49.7499C53.4239 51.5013 53.7253 53.3498 53.6066 55.2304C53.5205 56.6033 53.2974 57.973 52.45 59.1495C52.241 59.4398 52.3229 59.8556 52.1754 60.2032C51.4839 61.8307 50.4638 63.2682 49.5991 64.7954C49.0021 65.8486 48.2419 66.6839 47.2118 67.2939C47.0847 67.369 46.9776 67.5176 46.8254 67.3401C47.7599 65.7525 48.78 64.2137 49.4909 62.5011C50.5683 59.9045 51.2351 57.2343 51.0146 54.3967C50.9841 54.0076 50.9222 53.6218 50.8749 53.2338H50.8754Z" fill="#EDCA94"/>
<path id="Vector_19" d="M14.8255 32.9408C14.9961 32.9607 15.1652 32.9628 15.3253 33.0584C16.2877 33.6343 17.279 33.4942 17.9363 32.5927C18.256 32.1538 18.6808 31.7322 18.7139 31.1253C19.9419 32.1848 21.349 32.42 22.891 32.0331L22.8973 32.0399C22.8878 32.1732 22.8784 32.3066 22.8689 32.4394C22.6584 32.4279 22.566 32.567 22.4799 32.7297C22.1943 33.2716 21.7806 33.721 21.4094 34.2019C19.9388 36.1066 18.0529 36.5287 15.9223 35.4314C15.7942 35.3658 15.7412 35.4955 15.6907 35.5889C15.2565 34.7536 14.9568 33.8748 14.826 32.9408H14.8255Z" fill="#EDCA94"/>
<path id="Vector_20" d="M14.5917 44.0651C14.01 43.4409 13.831 43.9795 13.5711 44.398C12.4874 46.1441 11.6143 47.9921 10.9853 49.9441C10.622 51.0702 10.3784 52.231 10.1421 53.3976C9.90586 54.5641 9.96939 55.7785 9.55461 56.902C9.41548 57.2784 9.64964 57.5015 9.75465 57.7856C9.74992 58.0055 9.74467 58.2255 9.73995 58.4455L9.73627 58.4402C9.15874 57.4831 9.08681 56.4032 9.02328 55.3338C8.76234 50.9269 10.2582 47.0739 12.7883 43.5553C13.192 42.9941 13.6057 42.4407 14.0688 41.8102C14.2562 42.6192 14.4237 43.3422 14.5912 44.0651H14.5917Z" fill="#EDCA94"/>
<path id="Vector_21" d="M25.3865 44.3302C25.4526 43.1616 25.7865 42.0643 26.4176 41.0894C27.1411 39.9727 28.6548 39.8415 29.7227 40.755C30.4808 41.4033 30.9108 42.2307 30.9917 43.2314C31.0426 43.8588 31.0547 44.4862 30.9728 45.1125C30.8179 44.8311 30.684 44.535 30.5039 44.2704C29.5846 42.9201 27.6451 42.2559 26.2512 43.5868C26.0002 43.8262 25.9194 44.1318 25.7666 44.409C25.5335 44.8321 25.5036 44.3995 25.387 44.3297L25.3865 44.3302Z" fill="#CD9D55"/>
<path id="Vector_22" d="M15.6918 35.5889C15.7422 35.4955 15.7952 35.3658 15.9233 35.4314C18.0534 36.5287 19.9398 36.106 21.4104 34.2019C21.7816 33.7215 22.1953 33.2721 22.4809 32.7297C22.5665 32.567 22.6594 32.4279 22.87 32.4394C22.4741 34.1982 21.831 35.853 20.5147 37.1272C19.1166 38.4812 17.7819 38.6397 16.4599 36.924C16.1438 36.514 15.833 36.0997 15.6928 35.5884L15.6918 35.5889Z" fill="#CD9D55"/>
<path id="Vector_23" d="M25.3877 44.3302C25.5037 44.4001 25.5341 44.8327 25.7672 44.4095C25.92 44.1323 26.0009 43.8268 26.2518 43.5874C27.6458 42.2565 29.5853 42.9211 30.5046 44.2709C30.6847 44.5355 30.8186 44.8316 30.9734 45.113C30.8527 45.7309 30.7608 46.3567 30.6043 46.9658C30.3675 47.8871 30.0021 48.7529 29.3033 49.4364C29.4099 48.6673 29.7669 47.9696 29.9118 47.2052C30.2043 45.6606 29.1957 44.2037 27.6295 44.1234C26.9942 44.0908 26.4157 44.4048 26.0119 44.9408C25.7651 45.2684 25.5326 45.607 25.2942 45.9404C25.2364 45.9278 25.1776 45.9152 25.1188 45.9021C25.1477 45.3682 25.2459 44.8458 25.3882 44.3313L25.3877 44.3302Z" fill="#EDCA94"/>
<path id="Vector_24" d="M25.1177 45.901C25.1765 45.9136 25.2353 45.9262 25.2931 45.9394C25.1902 46.3273 25.1025 46.7206 24.8069 47.1563C24.5585 46.4801 24.3491 45.8811 24.3396 45.2259C24.4341 44.4872 24.0755 43.9176 23.6124 43.4136C22.8669 42.6019 22.1124 42.5704 21.2687 43.2792C21.1186 43.4052 20.9941 43.5658 20.7663 43.5264C20.9127 42.7284 21.2052 41.9856 21.6152 41.2868C21.7722 41.0196 21.9759 40.7943 22.2185 40.6106C23.0711 39.9632 23.9537 40.2583 24.2183 41.2962C24.5255 42.5001 24.5218 43.749 24.7145 44.9702C24.7617 45.27 24.8085 45.5708 24.8746 45.8669C24.914 46.0438 25.0264 45.9546 25.1177 45.9016V45.901Z" fill="#CD9D55"/>
<path id="Vector_25" d="M18.7027 23.7816C18.7914 23.2015 19.1794 22.8581 19.6871 22.6854C21.8859 21.9367 24.1036 21.9593 26.3082 22.6497C26.7619 22.792 27.1331 23.1217 27.2402 23.644C27.0695 23.7322 26.8921 23.696 26.7335 23.6351C25.475 23.15 24.1467 23.1243 22.8304 23.0681C21.4097 23.0077 20.031 23.2681 18.7027 23.7821V23.7816Z" fill="#EDF7F7"/>
<path id="Vector_26" d="M15.1812 65.1356C15.7571 65.5556 16.3378 65.9693 16.9085 66.3967C17.5312 66.8623 18.2053 67.2109 18.9756 67.3543C19.7201 68.3948 20.4651 69.4349 21.2096 70.4754C21.1901 70.4938 21.1707 70.5127 21.1513 70.5311C20.055 70.0664 19.1441 69.3262 18.282 68.534C17.1506 67.4939 16.0018 66.4623 15.1812 65.1356Z" fill="#CD9D55"/>
<path id="Vector_27" d="M18.7011 23.7816C20.0294 23.2671 21.4081 23.0067 22.8288 23.0676C24.1456 23.1238 25.4734 23.1495 26.7319 23.6346C26.8905 23.696 27.0685 23.7317 27.2386 23.6435L27.216 23.6461C27.2076 23.7574 27.2753 23.7779 27.3656 23.7711C27.5604 23.9711 27.6948 24.2 27.7463 24.5113C24.6554 23.3275 21.5956 23.2634 18.4895 24.3969C18.3945 24.1444 18.7641 24.0241 18.7011 23.7816Z" fill="#CD9D55"/>
<path id="Vector_28" d="M20.7677 43.5259C20.9955 43.5653 21.1199 43.4046 21.2701 43.2786C22.1138 42.5699 22.8678 42.6019 23.6138 43.413C24.0769 43.917 24.4355 44.4867 24.341 45.2254C24.0286 45.1077 23.9393 44.7828 23.7467 44.5586C22.7554 43.4104 21.8277 43.3479 20.7246 44.3901C20.681 44.431 20.607 44.4405 20.5471 44.4646C20.513 44.126 20.6233 43.822 20.7682 43.5259H20.7677Z" fill="#EDCA94"/>
<path id="Vector_29" d="M38.4578 38.3132C38.2945 40.0074 37.3562 41.2905 36.2348 42.4696C35.9486 42.771 35.6142 43.0267 35.2467 43.2493C36.5319 41.7341 37.4597 40.0016 38.4662 38.3205L38.4583 38.3132H38.4578Z" fill="#CD9D55"/>
<path id="Vector_30" d="M15.5404 21.1865C15.9956 20.3029 16.3983 20.0703 17.274 20.2578C16.6981 20.8605 16.3064 21.5687 15.5766 21.9624C15.5645 21.7036 15.5525 21.4448 15.5404 21.186V21.1865Z" fill="#EDCA94"/>
<path id="Vector_31" d="M18.8154 62.4161C19.0275 62.2696 19.1677 62.8377 19.4018 62.4754C19.9998 63.3889 20.4634 64.3759 20.978 65.3351C20.9533 65.3624 20.9276 65.3892 20.9008 65.4149C20.0812 64.5014 19.3987 63.4929 18.8154 62.4156V62.4161Z" fill="#CD9D55"/>
<path id="Vector_32" d="M20.9211 28.2278C20.7327 28.8279 19.9997 29.1141 19.3214 28.8284C19.1308 28.7481 18.9171 28.6683 18.7696 28.4105C19.5361 28.6022 20.2565 28.6452 20.9316 28.2436L20.9211 28.2278Z" fill="#EDF7F7"/>
<path id="Vector_33" d="M27.1394 28.4352C26.4443 28.9985 25.7303 29.0841 25.1396 28.6526C24.9926 28.5455 24.7133 28.4683 24.8907 28.1759L24.8923 28.179C25.306 28.6646 25.8311 28.6851 26.396 28.5397C26.6218 28.4814 26.848 28.4242 27.0743 28.3664C27.0953 28.3895 27.1174 28.4126 27.1394 28.4352Z" fill="#EDF7F7"/>
<path id="Vector_34" d="M48.8041 58.7316C48.5783 58.5384 48.6198 58.2864 48.7421 58.0906C48.9842 57.7026 49.201 57.3246 49.2068 56.8453C49.2094 56.609 49.432 56.6337 49.6042 56.6358C49.4052 57.3603 49.1348 58.057 48.8046 58.7311L48.8041 58.7316Z" fill="#EDCA94"/>
<path id="Vector_35" d="M11.3521 62.2491C10.9484 61.4916 10.7053 60.6967 10.6701 59.8457C10.8975 60.6468 11.1248 61.448 11.3521 62.2491Z" fill="#CD9D55"/>
<path id="Vector_36" d="M29.0383 49.8186C29.0414 49.6307 29.054 49.4485 29.305 49.4301C29.2866 49.6081 29.1858 49.7288 29.0383 49.8186Z" fill="#EDCA94"/>
<path id="Vector_37" d="M20.9767 65.3356C21.0665 65.4112 21.2345 65.5204 21.1232 65.6097C21.0004 65.7084 20.9489 65.5173 20.9001 65.4154C20.9269 65.3897 20.9526 65.3629 20.9773 65.3356H20.9767Z" fill="#CD9D55"/>
<path id="Vector_38" d="M18.3435 61.5892C18.5734 61.6349 18.575 61.8097 18.5698 61.9887C18.4138 61.9011 18.4018 61.732 18.3435 61.5892Z" fill="#CD9D55"/>
<path id="Vector_39" d="M9.73616 58.4397L9.73983 58.445C9.79234 58.5437 9.81649 58.6429 9.74141 58.7447C9.6805 58.6429 9.67053 58.5416 9.73616 58.4397Z" fill="#CD9D55"/>
<path id="Vector_40" d="M18.6076 62.1121C18.7661 62.1441 18.8313 62.2392 18.8008 62.3988C18.6926 62.3326 18.6265 62.2386 18.6076 62.1121Z" fill="#CD9D55"/>
<path id="Vector_41" d="M38.4626 38.3205C38.481 38.2738 38.4989 38.2271 38.5172 38.1803C38.5225 38.1966 38.5377 38.2192 38.5319 38.2276C38.5099 38.2586 38.481 38.2853 38.4548 38.3137L38.4626 38.321V38.3205Z" fill="#CD9D55"/>
<path id="Vector_42" d="M11.4586 62.6097L11.4479 62.65L11.4413 62.6077L11.4586 62.6097Z" fill="#CD9D55"/>
<path id="Vector_43" d="M11.304 38.6229C11.3581 38.5872 11.3985 38.4712 11.4725 38.5463C11.5266 38.6009 11.5019 38.6943 11.4006 38.7227C11.3686 38.6896 11.336 38.6565 11.304 38.6234V38.6229Z" fill="#EDF7F7"/>
<path id="Vector_44" d="M44.619 70.5043C44.5586 70.5867 44.4945 70.6576 44.3885 70.5642C44.4373 70.5148 44.4867 70.4655 44.535 70.4161C44.5665 70.4418 44.5948 70.4712 44.619 70.5048V70.5043Z" fill="#CD9D55"/>
<path id="Vector_45" d="M22.8932 32.0325L22.9114 31.9758C22.9259 31.9966 22.9409 32.0169 22.9554 32.0377C22.9367 32.0377 22.9176 32.0387 22.8989 32.0392L22.8932 32.0325Z" fill="#EDCA94"/>
<path id="Vector_46" d="M27.0733 28.3664C27.0864 28.304 27.1106 28.2483 27.1841 28.2924C27.194 28.2982 27.1547 28.3853 27.1384 28.4347C27.1163 28.4126 27.0948 28.3895 27.0733 28.3664Z" fill="#EDF7F7"/>
<path id="Vector_47" d="M24.8896 28.1759C24.8665 28.2042 24.8439 28.232 24.8208 28.2604C24.8061 28.2399 24.792 28.2189 24.7773 28.1984C24.8151 28.1921 24.8534 28.1853 24.8912 28.179L24.8896 28.1759Z" fill="#EDF7F7"/>
<path id="Vector_48" d="M20.9317 28.2436C20.9648 28.2147 20.9979 28.1864 21.0309 28.1575C21.0351 28.1764 21.0488 28.1995 21.042 28.2131C21.011 28.2746 20.9685 28.2777 20.9212 28.2278L20.9317 28.2436Z" fill="#EDF7F7"/>
<path id="Vector_49" d="M54.5333 38.7195C54.5029 38.6807 54.4378 38.624 54.4467 38.6061C54.5081 38.4875 54.5585 38.5967 54.6137 38.624C54.5885 38.657 54.5617 38.6891 54.5328 38.7195H54.5333Z" fill="#EDF7F7"/>
<path id="Vector_50" d="M14.9472 64.8584C14.9813 64.9004 15.0155 64.9429 15.0491 64.9849C14.9714 64.9776 14.9362 64.9366 14.9472 64.8584Z" fill="#CD9D55"/>
<path id="Vector_51" d="M15.0579 64.9959C15.0952 65.0364 15.1325 65.0763 15.1698 65.1167C15.091 65.1151 15.0569 65.0715 15.0579 64.9959Z" fill="#CD9D55"/>
<path id="Vector_52" d="M27.3679 23.7711C27.2776 23.7779 27.2104 23.7574 27.2183 23.6461C27.3432 23.5973 27.3312 23.7133 27.3679 23.7711Z" fill="#EDF7F7"/>
<path id="Vector_53" d="M21.2601 65.8711C21.2486 65.8575 21.2276 65.8433 21.2276 65.8297C21.2276 65.816 21.2502 65.8034 21.2622 65.7903C21.2738 65.8039 21.2948 65.8181 21.2948 65.8318C21.2948 65.8454 21.2722 65.858 21.2601 65.8711Z" fill="#CD9D55"/>
<path id="Vector_54" d="M21.2084 70.4754C21.2383 70.5022 21.2961 70.5495 21.294 70.5521C21.2362 70.6298 21.1916 70.5883 21.1501 70.5311C21.169 70.5127 21.1884 70.4938 21.2084 70.4754Z" fill="#CD9D55"/>
<path id="Vector_55" d="M42.1118 18.0554C40.9289 17.9834 39.829 18.3625 38.7191 18.6833C37.8885 18.793 37.0595 18.8807 36.2625 18.5111C36.1228 18.3184 35.9002 18.248 35.707 18.1346C35.6718 18.0317 35.5952 18.0149 35.5043 18.0464C35.4943 18.0501 35.5059 18.1147 35.5069 18.1514C35.5321 18.2512 35.5573 18.3509 35.5825 18.4502C35.5253 18.7804 35.739 19.0649 35.7479 19.3736C35.7542 19.5884 36.0451 19.8393 35.7101 20.0351C34.9814 19.0492 34.5435 17.9462 34.3839 16.7318C34.4611 15.7396 34.7142 14.8135 35.299 13.9813C35.9632 13.0368 36.9303 12.4903 37.8664 12.6315C37.4758 12.9234 36.9529 12.978 36.6704 13.4584C38.2602 13.4007 39.3937 14.131 40.2868 15.2949C40.7231 15.8635 41.14 16.4509 41.5175 17.0599C41.7201 17.387 42.115 17.606 42.1108 18.0559L42.1118 18.0554ZM36.8547 15.0387C36.6169 15.0613 36.369 15.2461 36.3774 15.6372C36.3853 16.0157 36.6116 16.2273 36.9986 16.2378C37.4118 16.2488 37.6076 15.9805 37.6071 15.6277C37.6065 15.2739 37.4076 15.0145 36.8542 15.0387H36.8547Z" fill="#2F281D"/>
<path id="Vector_56" d="M42.1135 18.0554C42.1177 17.606 41.7228 17.3871 41.5202 17.0595C41.1432 16.4504 40.7258 15.863 40.2895 15.2944C39.3964 14.1305 38.2629 13.4002 36.6731 13.4579C36.9561 12.977 37.4785 12.9229 37.8691 12.631C36.933 12.4898 35.9659 13.0363 35.3017 13.9808C34.7169 14.8124 34.4633 15.7385 34.3866 16.7313C33.4599 14.8975 34.3672 11.9155 36.6815 11.4514C37.7332 11.2403 39.5865 12.001 40.0286 12.9403L40.0317 12.9371C39.3928 13.04 38.8079 12.4919 38.0739 12.788C39.3681 13.3923 40.4134 14.2061 41.2251 15.3112C41.8331 16.1391 42.093 17.1261 42.5151 18.0386L42.5172 18.0412C42.3902 18.2596 42.2526 18.1725 42.114 18.0554H42.1135Z" fill="#CD9D55"/>
<path id="Vector_57" d="M36.2628 18.5111C37.0598 18.8807 37.8888 18.793 38.7194 18.6833C39.4324 19.1831 40.2273 18.8744 40.986 18.9054C41.6848 18.9337 42.3852 18.9117 43.1927 18.9117C42.8171 19.3366 42.85 19.6596 43.2914 19.8808C43.5381 20.0037 43.7734 20.1533 44.0574 20.2173C42.7144 20.0929 41.3803 20.1286 40.0094 20.1339C40.2368 20.5759 40.7072 20.7229 41.0716 21.1592C39.0759 20.9287 37.5554 20.0499 36.2754 18.7017C36.2418 18.666 36.266 18.5757 36.2628 18.5111Z" fill="#EDF7F7"/>
<path id="Vector_58" d="M35.7115 20.0346C36.0464 19.8388 35.7556 19.5879 35.7493 19.3731C35.7404 19.0644 35.5267 18.7799 35.5839 18.4497C35.8716 18.4413 35.8742 18.7699 35.8868 18.8602C36.0139 19.7837 36.6193 20.4788 36.9826 21.2862C37.0057 21.3372 36.9857 21.4075 36.9232 21.5146C36.5363 21.0017 36.0034 20.6237 35.7115 20.0346Z" fill="#CD9D55"/>
<path id="Vector_59" d="M54.1536 22.7515C54.2833 22.7694 54.4098 22.7982 54.3857 22.9689C54.3799 23.0077 54.2933 23.0744 54.2696 23.065C54.121 23.0035 54.1756 22.8602 54.1604 22.7452L54.1536 22.7515Z" fill="#CD9D55"/>
<path id="Vector_60" d="M44.207 25.2416C44.0421 25.2259 43.9644 25.1298 43.9565 24.9691L43.9518 24.9749C44.1109 24.9844 44.2086 25.06 44.2233 25.2253L44.207 25.2416Z" fill="#CD9D55"/>
<path id="Vector_61" d="M35.507 18.1509C35.5054 18.1147 35.4944 18.0496 35.5043 18.0459C35.5946 18.0144 35.6718 18.0317 35.707 18.1341C35.6403 18.1394 35.5736 18.1451 35.5075 18.1504L35.507 18.1509Z" fill="#CD9D55"/>
<path id="Vector_62" d="M42.5115 18.0386C42.543 18.0102 42.5745 17.9824 42.606 17.954C42.6176 17.974 42.6286 17.9934 42.6402 18.0134C42.5982 18.0228 42.5562 18.0317 42.5141 18.0412L42.512 18.0386H42.5115Z" fill="#CD9D55"/>
<path id="Vector_63" d="M43.9551 24.9691C43.901 24.956 43.8474 24.9424 43.7934 24.9292C43.8837 24.8137 43.9062 24.9303 43.9503 24.9749L43.9551 24.9691Z" fill="#CD9D55"/>
<path id="Vector_64" d="M40.0289 12.9403C40.0465 12.9484 40.0641 12.9565 40.0817 12.9646C40.0652 12.9554 40.0486 12.9463 40.0321 12.9371L40.0289 12.9403Z" fill="#CD9D55"/>
<path id="Vector_65" d="M19.2506 18.7111C19.1461 19.0392 18.8683 18.9227 18.6462 18.9452C17.7259 19.0387 16.7777 18.7536 15.8772 19.1684C15.6483 19.2739 15.5423 19.0765 15.5848 18.8843C16.0326 16.8547 15.8825 14.6696 17.2192 12.8694C17.8487 12.0215 18.5985 11.286 19.481 10.7762C20.141 10.395 20.9905 10.0554 21.7555 10.7489C21.8132 10.8014 21.9109 10.8161 21.9928 10.8334C22.0274 10.8408 22.071 10.8082 22.1456 10.7804C21.9828 10.2144 21.7891 9.68155 21.2457 9.3487C21.1265 9.27572 20.9359 9.1786 21.0115 9.00429C21.1008 8.79902 21.3165 8.88354 21.4746 8.91662C22.1687 9.06309 22.7772 9.3802 23.2686 9.89628C23.4041 10.0386 23.5358 10.1698 23.7653 10.2381C23.8461 9.94563 23.8393 9.6889 23.6702 9.4369C23.5421 9.24632 23.4623 8.97647 23.6387 8.83892C23.8845 8.64677 24.0908 8.92817 24.243 9.07464C25.0868 9.88578 25.5241 10.9221 25.7641 12.0425C25.9856 13.0773 25.9431 14.1068 25.6249 15.1279C25.2973 16.179 24.714 17.0647 23.8104 17.6627C21.9361 18.9027 20.0176 20.0766 18.1144 21.2742C17.9942 21.3498 17.8519 21.4768 17.719 21.2904C17.5904 21.1098 17.6807 20.9413 17.8104 20.8242C18.3254 20.3607 18.8557 19.9133 19.3766 19.4561C19.6343 19.2298 19.8843 18.9941 20.1378 18.7625C20.2429 18.7415 20.3531 18.7352 20.4518 18.6974C22.2401 18.0113 22.9006 17.9136 22.888 16.0876C22.9079 16.0798 22.9289 16.0635 22.9478 16.0656C22.9667 16.0677 22.9919 16.084 23.0003 16.1008C23.0581 16.2173 22.9237 16.4005 23.1247 16.4767C23.329 15.7301 23.3909 14.9788 23.2801 14.2244C23.1148 13.0935 22.6548 12.1307 21.525 11.6787C20.3904 11.2245 19.3304 11.4078 18.3564 12.1627C18.0593 12.3932 17.9763 12.6116 18.1711 12.9297C18.1538 12.957 18.1359 12.9838 18.1181 13.0111C18.1454 12.9938 18.1732 12.9765 18.2005 12.9591C18.4651 12.9885 18.7071 12.9292 18.9256 12.7754C19.826 12.5654 20.3993 12.7733 20.8587 13.4779H19.7835C18.8752 13.5104 18.421 14.1871 17.9038 14.7867C17.3442 15.4356 17.1604 16.2761 16.7425 16.9959C16.7262 16.9865 16.7094 16.9775 16.6931 16.9681C16.7105 16.9765 16.7278 16.9849 16.7451 16.9933C16.6968 17.291 16.6049 17.6028 16.9966 17.7556C16.8323 18.0029 16.859 18.1399 17.1945 18.1583C17.917 18.1971 18.5806 18.4675 19.2495 18.7127L19.2506 18.7111Z" fill="#EDCA94"/>
<path id="Vector_66" d="M19.2505 18.7111C18.5817 18.4664 17.918 18.196 17.1956 18.1567C16.8606 18.1388 16.8333 18.0018 16.9976 17.7545C17.2911 17.1345 17.6214 16.5286 17.8708 15.8908C18.2645 14.8822 19.1602 14.2905 19.785 13.4768H20.8603C20.4009 12.7722 19.8281 12.5649 18.9276 12.7743C19.0169 12.6819 19.1025 12.6011 19.2385 12.5596C20.3169 12.2299 21.568 12.8667 22.2401 14.0674C22.595 14.7011 22.6869 15.4099 22.89 16.0871C22.9026 17.9131 22.2422 18.0107 20.4539 18.6969C20.3552 18.7347 20.2449 18.741 20.1399 18.762C19.8438 18.7452 19.5477 18.7284 19.2511 18.7111H19.2505ZM20.698 15.5931C20.6629 15.2314 20.4765 15.0161 20.0832 15.0224C19.7357 15.0282 19.4963 15.1915 19.4915 15.5516C19.4868 15.9354 19.658 16.2325 20.0927 16.221C20.4655 16.211 20.6723 15.9863 20.698 15.5931Z" fill="#2F281D"/>
<path id="Vector_67" d="M15.5832 12.9534C15.5296 12.8274 15.5595 12.7345 15.6913 12.6825C15.685 12.7843 15.778 12.9261 15.5832 12.9534Z" fill="#2F281D"/>
<path id="Vector_68" d="M43.7059 50.8776C43.3526 51.5317 42.9987 52.1853 42.6453 52.8395C42.7288 51.6913 43.174 50.6219 43.3683 49.4942C43.6791 47.6887 43.7316 45.88 43.5337 44.0709C43.4649 43.4414 43.3468 42.793 43.1257 42.1588C43.5977 42.6371 44.0844 43.1154 44.3002 43.7475C45.1156 46.132 44.8258 48.4463 43.7589 50.6928C43.7316 50.75 43.7232 50.8161 43.7059 50.8776Z" fill="#2F281D"/>
<path id="Vector_69" d="M43.6869 39.192C43.6733 39.1805 43.6591 39.1689 43.6454 39.1574C43.6617 39.1484 43.6785 39.1322 43.6937 39.1332C43.7084 39.1343 43.7216 39.1542 43.7358 39.1658C43.7195 39.1747 43.7032 39.1831 43.6874 39.192H43.6869Z" fill="#EDCA94"/>
<path id="Vector_70" d="M31.3855 67.4887C31.2689 67.433 31.2001 67.3543 31.2547 67.2167C31.4012 67.2582 31.3681 67.3852 31.3855 67.4887Z" fill="#2F281D"/>
<path id="Vector_71" d="M42.6495 52.8253C42.6374 52.8579 42.6317 52.8909 42.6317 52.9256C42.6028 52.8862 42.6086 52.8526 42.6495 52.8253Z" fill="#2F281D"/>
<path id="Vector_72" d="M26.8301 65.7646C26.932 65.8234 26.9608 65.9189 26.9635 66.0276L26.9372 66.0502C26.839 65.994 26.8038 65.9032 26.7986 65.7961L26.8306 65.764L26.8301 65.7646Z" fill="#CD9D55"/>
<path id="Vector_73" d="M39.9674 60.6284C39.9768 60.6463 39.9947 60.6641 39.9931 60.6809C39.9915 60.6972 39.971 60.7119 39.9584 60.7271C39.9611 60.6941 39.9642 60.6615 39.9674 60.6284Z" fill="#CD9D55"/>
<path id="Vector_74" d="M39.6063 65.3614C39.6436 65.3194 39.6814 65.259 39.7318 65.3409C39.7397 65.3535 39.695 65.3986 39.6751 65.4286C39.6525 65.406 39.6294 65.3834 39.6063 65.3619V65.3614Z" fill="#CD9D55"/>
<path id="Vector_75" d="M26.7985 65.7966C26.7833 65.7703 26.768 65.7441 26.7528 65.7184C26.7785 65.7341 26.8043 65.7499 26.8305 65.7651L26.799 65.7966H26.7985Z" fill="#CD9D55"/>
<path id="Vector_76" d="M39.6749 65.428C39.645 65.4506 39.5993 65.4989 39.5872 65.4921C39.5048 65.4417 39.5662 65.4013 39.6061 65.3614C39.6292 65.3834 39.6523 65.4055 39.6749 65.428Z" fill="#CD9D55"/>
<path id="Vector_77" d="M58.9208 22.5328C58.9114 22.4995 58.9031 22.4824 58.9042 22.4658C58.9042 22.4606 58.9301 22.4569 58.9441 22.4528C58.9378 22.4746 58.9311 22.4969 58.9208 22.5328Z" fill="#EDCA94"/>
<path id="Vector_78" d="M38.6039 67.3637C38.5819 67.4199 38.5598 67.4766 38.5378 67.5328C38.521 67.5202 38.4884 67.4992 38.49 67.4965C38.5184 67.4446 38.5504 67.3952 38.5814 67.3453L38.6034 67.3642L38.6039 67.3637Z" fill="#EDCA94"/>
<path id="Vector_79" d="M14.976 61.5078C14.6016 61.1267 14.4531 60.6463 14.2845 60.1733C13.9475 59.2272 13.8939 58.2313 13.7558 57.2501C13.7385 57.1267 13.7348 56.9708 13.907 56.9377C14.0488 56.9104 14.0845 57.0238 14.1055 57.1361C14.3738 58.5951 14.5649 60.0693 14.976 61.5078Z" fill="#EDF7F7"/>
<path id="Vector_80" d="M14.3888 54.2717C14.4203 54.3168 14.4518 54.362 14.4833 54.4066C14.3337 54.4376 14.4293 54.3106 14.3936 54.2675L14.3888 54.2712V54.2717Z" fill="#CD9D55"/>
<path id="Vector_81" d="M36.854 15.0387C37.4069 15.0145 37.6058 15.2744 37.6069 15.6277C37.6074 15.98 37.4116 16.2483 36.9984 16.2378C36.6114 16.2278 36.3852 16.0157 36.3773 15.6372C36.3689 15.2461 36.6167 15.0613 36.8545 15.0387H36.854Z" fill="#EDF7F7"/>
<path id="Vector_82" d="M22.8914 16.0871C22.6887 15.4099 22.5963 14.7011 22.2414 14.0674C21.5694 12.8668 20.3182 12.2299 19.2398 12.5596C19.1038 12.6011 19.0183 12.682 18.929 12.7744C18.7106 12.9287 18.4686 12.9875 18.2039 12.9586L18.174 12.9287C17.9792 12.6106 18.0627 12.3922 18.3599 12.1617C19.3338 11.4062 20.3944 11.2235 21.5284 11.6776C22.6583 12.1297 23.1182 13.0925 23.2836 14.2234C23.3939 14.9778 23.3324 15.7291 23.1282 16.4756C22.9266 16.4 23.0615 16.2168 23.0038 16.0997C22.9954 16.0829 22.9702 16.0667 22.9513 16.0646C22.9324 16.0625 22.9114 16.0787 22.8914 16.0866V16.0871Z" fill="#CD9D55"/>
<path id="Vector_83" d="M19.7865 13.4768C19.1617 14.2911 18.266 14.8822 17.8722 15.8908C17.6234 16.5287 17.2931 17.1345 16.9991 17.7545C16.6074 17.6018 16.6993 17.2899 16.7476 16.9922L16.745 16.9949C17.1629 16.2751 17.3472 15.4351 17.9064 14.7856C18.4235 14.1861 18.8777 13.5094 19.786 13.4768H19.7865Z" fill="#CD9D55"/>
<path id="Vector_84" d="M18.2041 12.9586C18.1768 12.976 18.1489 12.9933 18.1216 13.0106C18.1395 12.9833 18.1568 12.9565 18.1747 12.9292L18.2041 12.9592V12.9586Z" fill="#CD9D55"/>
<path id="Vector_85" d="M16.7483 16.9929C16.7306 16.9843 16.713 16.9757 16.6954 16.967C16.712 16.9767 16.729 16.9859 16.7456 16.9956L16.7483 16.9929Z" fill="#CD9D55"/>
<path id="Vector_86" d="M20.6981 15.5931C20.6724 15.9868 20.4655 16.211 20.0928 16.221C19.658 16.2325 19.4864 15.9354 19.4916 15.5516C19.4963 15.1915 19.7357 15.0277 20.0833 15.0224C20.4766 15.0161 20.6629 15.2314 20.6981 15.5931Z" fill="#EDF7F7"/>
</g>
</g>
</svg>
