<svg width="80" height="88" viewBox="0 0 80 88" fill="none" xmlns="http://www.w3.org/2000/svg">
<g id="Group 25167">
<g id="Clip path group">
<mask id="mask0_2016_107" style="mask-type:luminance" maskUnits="userSpaceOnUse" x="0" y="0" width="80" height="88">
<g id="clip-path-4">
<path id="Rectangle 8719" d="M79.2759 0H0V87.0535H79.2759V0Z" fill="white"/>
</g>
</mask>
<g mask="url(#mask0_2016_107)">
<g id="Group 25166">
<path id="Path 178248" d="M11.1737 38.383C15.523 38.243 19.586 37.0077 22.7064 33.8563C27.2577 29.2611 29.1695 22.5757 30.703 16.4738C31.3323 14.0533 31.7573 11.5843 31.9736 9.09272C32.2087 6.11122 32.4609 3.13078 32.7035 0.149279C32.7356 -0.278176 27.8829 0.342703 27.4672 0.397204C21.2691 1.20403 16.3021 5.48286 12.2872 9.97541C9.27266 13.3148 6.56853 16.9217 4.20827 20.7516C2.05496 24.2952 -1.4117 29.3883 0.611232 33.6554C2.47173 37.5816 7.23679 38.5102 11.1737 38.383Z" fill="#FF6600"/>
<path id="Path 178249" d="M75.0675 20.7516C72.7085 16.9219 70.0059 13.315 66.9929 9.97541C62.978 5.48713 58.0056 1.20403 51.8128 0.397204C51.3929 0.342703 46.5391 -0.278176 46.5765 0.149279C46.8202 3.13078 47.0724 6.11122 47.3064 9.09272C47.5224 11.5843 47.9471 14.0533 48.5759 16.4738C50.1105 22.5757 52.0213 29.2611 56.5726 33.8563C59.693 37.0077 63.756 38.2377 68.1053 38.383C72.0433 38.5102 76.8072 37.5816 78.6677 33.6554C80.6907 29.3872 77.224 24.2952 75.0707 20.7516" fill="#FF6600"/>
<path id="Path 178250" d="M31.3944 36.584C31.3944 38.234 32.3669 39.5762 33.568 39.5762C34.7692 39.5762 35.7417 38.2382 35.7417 36.584C35.7417 34.9297 34.7692 33.5918 33.568 33.5918C32.3669 33.5918 31.3944 34.9297 31.3944 36.584Z" fill="#222831"/>
<path id="Path 178251" d="M47.3589 39.5723C48.559 39.5723 49.5325 38.2343 49.5325 36.5801C49.5325 34.9258 48.5601 33.5879 47.3589 33.5879C46.1578 33.5879 45.1853 34.9258 45.1853 36.5801C45.1853 38.2343 46.1578 39.5723 47.3589 39.5723Z" fill="#222831"/>
<path id="Path 178252" d="M32.6898 51.0007C32.6898 53.7129 36.1703 55.9165 40.4631 55.9165C44.7558 55.9165 48.2353 53.715 48.2353 51.0007C48.2353 48.2864 44.7547 46.085 40.462 46.085C36.1693 46.085 32.6887 48.2832 32.6887 51.0007" fill="#FF6600"/>
<path id="Path 178253" d="M72.519 52.3197C71.1554 49.1736 66.1072 48.3326 61.2438 50.441C59.2533 51.2707 57.4996 52.5811 56.14 54.2549H51.3792C50.7654 56.776 49.3227 59.0179 47.2825 60.6211C45.2423 62.2242 42.7227 63.0957 40.128 63.0957C37.5333 63.0957 35.0137 62.2242 32.9735 60.6211C30.9333 59.0179 29.4906 56.776 28.8768 54.2549H24.5649C23.2052 52.5811 21.4516 51.2707 19.4611 50.441C14.5977 48.3326 9.54943 49.1736 8.18585 52.3197C6.82227 55.4657 9.65843 59.7253 14.5229 61.8305C14.7751 61.9395 15.0273 62.0407 15.2795 62.134C15.1662 62.18 15.054 62.227 14.9407 62.2751C10.0773 64.3835 7.2401 68.6431 8.60369 71.786C9.96727 74.9289 15.0155 75.7731 19.8789 73.6647C21.8694 72.835 23.6231 71.5245 24.9827 69.8507H55.7243C57.0839 71.5245 58.8375 72.835 60.8281 73.6647C65.6914 75.7731 70.7397 74.9321 72.1033 71.786C73.4669 68.6399 70.6307 64.3803 65.7663 62.2751C65.653 62.2259 65.5408 62.1789 65.4275 62.134C65.6797 62.0407 65.9319 61.9395 66.1841 61.8305C71.0475 59.7221 73.8847 55.4625 72.5211 52.3197" fill="#222831"/>
<path id="Path 178254" d="M15.3233 81.3942C15.1387 81.2329 14.9192 81.1165 14.6821 81.0544C14.3321 80.9719 13.9728 80.936 13.6134 80.9475H12.0532C11.8433 80.9292 11.6342 80.9906 11.4676 81.1195C11.3994 81.1973 11.348 81.2883 11.3163 81.3869C11.2847 81.4854 11.2736 81.5893 11.2838 81.6923V86.3195C11.2696 86.5165 11.3294 86.7116 11.4516 86.8667C11.5082 86.9259 11.5762 86.973 11.6515 87.0052C11.7268 87.0375 11.8078 87.054 11.8897 87.054C11.9716 87.054 12.0527 87.0375 12.128 87.0052C12.2033 86.973 12.2713 86.9259 12.3279 86.8667C12.4527 86.7107 12.5141 86.5134 12.4999 86.3142V84.615H13.6134C14.2126 84.6592 14.8083 84.4917 15.2966 84.1416C15.4902 83.9683 15.6417 83.7531 15.7397 83.5123C15.8376 83.2716 15.8794 83.0117 15.8619 82.7524C15.8659 82.488 15.8187 82.2252 15.7229 81.9787C15.6346 81.7557 15.4952 81.5566 15.3158 81.3974M14.478 83.3135C14.367 83.4568 14.2125 83.5603 14.0377 83.6084C13.8041 83.6737 13.5621 83.704 13.3196 83.6982H12.501V81.8633H13.3196C13.6991 81.8166 14.0826 81.9113 14.3968 82.1294C14.556 82.3061 14.6396 82.5383 14.6297 82.776C14.6382 82.9658 14.5849 83.1532 14.478 83.3103" fill="#222831"/>
<path id="Path 178255" d="M23.0324 85.9847H20.1973V84.2748H22.7203C22.8711 84.2872 23.0207 84.2409 23.1382 84.1455C23.1828 84.1026 23.2179 84.0506 23.2411 83.9932C23.2643 83.9357 23.2751 83.874 23.2728 83.8121C23.275 83.7506 23.264 83.6894 23.2404 83.6326C23.2168 83.5758 23.1812 83.5248 23.136 83.483C23.0179 83.3909 22.8696 83.3463 22.7203 83.3579H20.1973V81.8832H22.9373C23.0908 81.8942 23.243 81.8481 23.3647 81.7539C23.4116 81.7105 23.4484 81.6575 23.4728 81.5984C23.4971 81.5394 23.5084 81.4758 23.5058 81.412C23.5081 81.3488 23.4967 81.2859 23.4724 81.2276C23.448 81.1693 23.4113 81.1169 23.3647 81.0742C23.243 80.98 23.0908 80.934 22.9373 80.945H19.7313C19.5851 80.9394 19.4393 80.9653 19.3039 81.0208C19.1958 81.0688 19.1092 81.1547 19.0602 81.2623C19.0036 81.3975 18.977 81.5433 18.9822 81.6898V86.2026C18.9631 86.3051 18.9692 86.4106 19 86.5101C19.0308 86.6096 19.0854 86.7001 19.1591 86.7738C19.2328 86.8475 19.3233 86.9021 19.4228 86.9329C19.5223 86.9637 19.6279 86.9698 19.7303 86.9507H23.0345C23.1886 86.9609 23.3411 86.9133 23.462 86.8171C23.5098 86.7734 23.5476 86.7198 23.5727 86.66C23.5978 86.6002 23.6096 86.5356 23.6073 86.4708C23.61 86.4049 23.5985 86.3392 23.5734 86.2781C23.5483 86.2171 23.5103 86.1621 23.462 86.1171C23.3411 86.0209 23.1886 85.9732 23.0345 85.9836" fill="#222831"/>
<path id="Path 178256" d="M30.5706 80.9475H26.7053C26.542 80.9362 26.3801 80.984 26.249 81.0821C26.1968 81.1277 26.1555 81.1846 26.1283 81.2484C26.1011 81.3123 26.0887 81.3814 26.0919 81.4507C26.0893 81.5185 26.1015 81.5861 26.1277 81.6487C26.1539 81.7113 26.1935 81.7674 26.2437 81.8131C26.3756 81.9145 26.5406 81.9632 26.7064 81.9498H28.0337V86.311C28.0181 86.5113 28.0788 86.7102 28.2036 86.8677C28.2594 86.9282 28.3276 86.976 28.4036 87.0077C28.4796 87.0395 28.5616 87.0544 28.6439 87.0515C28.725 87.0543 28.8058 87.0395 28.8807 87.0081C28.9556 86.9768 29.0228 86.9296 29.0777 86.8699C29.2017 86.7112 29.2616 86.5117 29.2455 86.311V81.9498H30.5728C30.7399 81.9627 30.906 81.9141 31.0397 81.8131C31.091 81.7681 31.1316 81.7121 31.1586 81.6495C31.1856 81.5868 31.1983 81.5189 31.1958 81.4507C31.1982 81.3825 31.1857 81.3145 31.1591 81.2516C31.1325 81.1886 31.0925 81.1322 31.0419 81.0863C30.9081 80.9835 30.741 80.934 30.5728 80.9475" fill="#222831"/>
<path id="Path 178257" d="M41.7923 80.947H38.9251C38.7788 80.9415 38.6331 80.9673 38.4977 81.0229C38.3897 81.0709 38.303 81.1569 38.254 81.2644C38.1973 81.3996 38.1707 81.5454 38.176 81.6918V86.3116C38.1604 86.5119 38.2211 86.7108 38.3459 86.8683C38.4032 86.9263 38.4714 86.9725 38.5466 87.0039C38.6218 87.0354 38.7025 87.0515 38.784 87.0515C38.8656 87.0515 38.9463 87.0354 39.0215 87.0039C39.0967 86.9725 39.1649 86.9263 39.2222 86.8683C39.3475 86.7102 39.4082 86.5105 39.3921 86.3094V84.3356H41.4022C41.5504 84.3465 41.6975 84.3028 41.8158 84.2128C41.8619 84.1712 41.8983 84.1199 41.9223 84.0627C41.9464 84.0054 41.9574 83.9435 41.9547 83.8815C41.9576 83.8193 41.9468 83.7572 41.9232 83.6996C41.8995 83.642 41.8636 83.5903 41.8179 83.5481C41.6998 83.456 41.5515 83.4114 41.4022 83.423H39.3996V81.8874H41.7955C41.949 81.8984 42.1012 81.8524 42.2229 81.7581C42.2698 81.7147 42.3067 81.6616 42.331 81.6026C42.3554 81.5436 42.3666 81.4799 42.364 81.4161C42.3663 81.353 42.355 81.2901 42.3306 81.2318C42.3063 81.1735 42.2695 81.1212 42.2229 81.0785C42.1012 80.9842 41.949 80.9381 41.7955 80.9491" fill="#222831"/>
<path id="Path 178258" d="M49.6106 81.2233C49.1183 80.9598 48.5658 80.8294 48.0076 80.845C47.5881 80.8375 47.171 80.91 46.7787 81.0587C46.4303 81.1942 46.1169 81.4064 45.8618 81.6796C45.603 81.9631 45.407 82.2981 45.2869 82.6628C45.1505 83.0719 45.0834 83.501 45.0881 83.9323C45.0843 84.359 45.1485 84.7836 45.2783 85.1901C45.3939 85.5577 45.5858 85.8967 45.8415 86.185C46.0985 86.4668 46.4165 86.6861 46.7712 86.8262C47.5834 87.1273 48.4763 87.1296 49.29 86.8326C49.6438 86.693 49.9605 86.4736 50.2155 86.1914C50.4708 85.9058 50.6634 85.5698 50.7808 85.2051C50.9106 84.7961 50.9741 84.3689 50.9688 83.9398C50.9822 83.3738 50.8644 82.8123 50.6247 82.2994C50.4056 81.8448 50.0519 81.4688 49.6117 81.2222M49.5048 85.1313C49.3746 85.4285 49.1579 85.6795 48.8829 85.8516C48.6534 85.9855 48.396 86.064 48.1309 86.0811C47.8658 86.0982 47.6004 86.0532 47.3558 85.9499C47.1474 85.8563 46.9626 85.7171 46.815 85.5427C46.6474 85.3417 46.5234 85.1081 46.4506 84.8566C46.361 84.5565 46.3174 84.2445 46.3213 83.9312C46.3174 83.6215 46.361 83.313 46.4506 83.0165C46.5223 82.7722 46.6422 82.5447 46.8033 82.3475C46.9487 82.1755 47.1315 82.0388 47.3376 81.9478C47.5499 81.8553 47.7793 81.8087 48.0108 81.811C48.3308 81.8052 48.6456 81.8912 48.9181 82.059C49.1906 82.2349 49.4028 82.49 49.5262 82.7899C49.676 83.1517 49.7488 83.5408 49.7399 83.9323C49.7527 84.3445 49.6739 84.7543 49.5091 85.1323" fill="#222831"/>
<path id="Path 178259" d="M59.7081 83.9408C59.7214 83.3748 59.6037 82.8134 59.364 82.3005C59.1449 81.846 58.7912 81.4699 58.351 81.2233C57.8587 80.9598 57.3061 80.8294 56.748 80.845C56.3285 80.8375 55.9114 80.91 55.519 81.0587C55.1706 81.1942 54.8573 81.4064 54.6022 81.6796C54.3433 81.9631 54.1474 82.2981 54.0272 82.6628C53.8909 83.0719 53.8237 83.501 53.8285 83.9323C53.8247 84.359 53.8889 84.7836 54.0187 85.1901C54.1342 85.5577 54.3261 85.8967 54.5818 86.185C54.8388 86.4668 55.1568 86.6861 55.5115 86.8262C56.3237 87.1273 57.2167 87.1296 58.0304 86.8326C58.3841 86.6929 58.7008 86.4735 58.9558 86.1914C59.2111 85.9058 59.4037 85.5698 59.5211 85.2051C59.651 84.7961 59.7145 84.3689 59.7092 83.9398M58.2452 85.1313C58.115 85.4285 57.8982 85.6795 57.6232 85.8516C57.3938 85.9855 57.1363 86.064 56.8713 86.0811C56.6062 86.0982 56.3408 86.0532 56.0961 85.9499C55.8877 85.8563 55.7029 85.7171 55.5554 85.5427C55.3878 85.3417 55.2637 85.1081 55.191 84.8566C55.1013 84.5565 55.0578 84.2445 55.0617 83.9312C55.0577 83.6215 55.1013 83.313 55.191 83.0165C55.2623 82.7722 55.3819 82.5448 55.5426 82.3475C55.6881 82.1755 55.8708 82.0388 56.0769 81.9478C56.2892 81.8553 56.5185 81.8086 56.7501 81.811C57.07 81.8051 57.385 81.8912 57.6574 82.059C57.9299 82.2349 58.1421 82.49 58.2655 82.7899C58.4154 83.1517 58.4882 83.5408 58.4792 83.9323C58.4917 84.3445 58.4125 84.7544 58.2473 85.1323" fill="#222831"/>
<path id="Path 178260" d="M65.9511 86.9004C66.164 86.8672 66.3714 86.8054 66.5677 86.7166C66.7607 86.6281 66.9391 86.5106 67.0967 86.3682C67.2983 86.1834 67.4684 85.9668 67.6 85.727C67.7359 85.4745 67.8338 85.2034 67.8907 84.9223C67.9561 84.5973 67.9876 84.2664 67.9848 83.9349C68.02 83.4839 67.9541 83.0306 67.7918 82.6084C67.6294 82.1861 67.3747 81.8054 67.0464 81.4941C66.8164 81.2904 66.5414 81.1439 66.2439 81.0667C65.8967 80.9845 65.5406 80.946 65.1838 80.9523H63.5991C63.4966 80.9332 63.3911 80.9393 63.2916 80.9701C63.1921 81.0009 63.1015 81.0555 63.0279 81.1292C62.9542 81.2029 62.8996 81.2934 62.8688 81.3929C62.838 81.4924 62.8319 81.598 62.851 81.7004V86.1032C62.847 86.2625 62.8643 86.4217 62.9023 86.5766C62.935 86.6959 63.0138 86.7974 63.1213 86.8587C63.2764 86.9352 63.4489 86.9699 63.6215 86.9592H65.2063C65.4566 86.9613 65.7068 86.9435 65.9543 86.9057M64.0725 85.9931V81.9099H64.875C65.1959 81.9032 65.516 81.9439 65.825 82.0306C66.1084 82.1287 66.3445 82.3297 66.4865 82.5938C66.6913 83.0059 66.7839 83.4648 66.7547 83.9242C66.789 84.247 66.7521 84.5734 66.6467 84.8805C66.5413 85.1875 66.3698 85.4677 66.1445 85.7014C66.0504 85.7826 65.9416 85.845 65.8239 85.8852C65.7092 85.9272 65.5896 85.9549 65.4681 85.9675C65.3534 85.9789 65.1948 85.9846 64.9925 85.9846L64.0725 85.9931Z" fill="#222831"/>
</g>
</g>
</g>
</g>
</svg>
