<svg width="94" height="72" viewBox="0 0 94 72" fill="none" xmlns="http://www.w3.org/2000/svg">
<g id="Group 148003">
<path id="Vector" d="M74.7187 10.9159C74.673 10.5599 75.1684 10.4459 75.2598 10.7877C76.4508 15.1776 78.9699 20.2937 80.6985 22.0668C86.5728 28.0872 93.0655 22.8002 92.0677 17.2603C91.0067 11.3538 82.0581 0 69.4557 0C58.8032 0 54.8752 4.94882 53.4594 8.06052C52.7813 9.54873 51.3654 10.5456 49.7493 10.6204L42.6769 10.891C41.7001 10.9372 40.3264 11.1046 40.3264 12.9773C40.3264 15.5621 40.3159 19.9662 43.1863 22.3089C44.8832 23.6084 48.4282 24.0071 51.2951 21.1304C51.4743 20.9524 51.7835 21.109 51.7308 21.3583C51.3443 23.1776 49.145 24.8118 46.6891 25.093C48.4036 26.0151 50.5398 26.7023 53.2029 27.0156C55.3039 27.2648 57.2995 25.9653 58.0724 23.968C59.4426 20.4148 62.8611 16.178 66.9612 14.5403C67.4179 14.3587 67.9133 14.7041 67.9133 15.2025V16.8794C67.9098 17.6627 68.4755 18.3249 69.2414 18.4495C70.9805 18.7343 73.2712 19.6386 74.8136 22.4976C76.7424 26.0757 76.3911 27.7882 79.005 29.2087C79.6058 29.5363 79.8834 30.2483 79.6409 30.8927C78.8469 33.0325 75.7622 37.109 63.75 36.5073C53.7369 36.0053 47.9118 38.049 50.7189 42.4958C54.422 48.3596 65.454 53.3867 76.3489 49.9653C91.1507 45.3191 94.3514 31.6119 93.9649 24.5661C93.8138 21.7891 90.9329 26.8838 86.0493 26.8198C84.2399 26.7948 76.6862 25.7445 74.7117 10.9266L74.7187 10.9159Z" fill="#D39712"/>
<path id="Vector_2" d="M71.1737 26.5879C71.3845 26.5879 71.5848 26.4704 71.6902 26.271C71.7921 26.0717 72.1504 25.7619 72.5931 25.7299C72.9725 25.7049 73.3239 25.9079 73.6155 26.3351C73.7982 26.6021 74.1565 26.6662 74.4201 26.4811C74.6836 26.296 74.7468 25.9292 74.5641 25.6658C74.0371 24.8968 73.3133 24.5051 72.5123 24.5585C71.7429 24.6084 70.9805 25.0926 70.6537 25.7334C70.5062 26.0218 70.6186 26.3743 70.9032 26.5238C70.9875 26.5665 71.0788 26.5879 71.1667 26.5879H71.1737Z" fill="#412919"/>
<path id="Vector_3" d="M71.1737 26.5879C71.3845 26.5879 71.5848 26.4704 71.6902 26.271C71.7921 26.0717 72.1504 25.7619 72.5931 25.7299C72.9725 25.7049 73.3239 25.9079 73.6155 26.3351C73.7982 26.6021 74.1565 26.6662 74.4201 26.4811C74.6836 26.296 74.7468 25.9292 74.5641 25.6658C74.0371 24.8968 73.3133 24.5051 72.5123 24.5585C71.7429 24.6084 70.9805 25.0926 70.6537 25.7334C70.5062 26.0218 70.6186 26.3743 70.9032 26.5238C70.9875 26.5665 71.0788 26.5879 71.1667 26.5879H71.1737Z" fill="#412919"/>
<path id="Vector_4" d="M71.1737 26.5879C71.3845 26.5879 71.5848 26.4704 71.6902 26.271C71.7921 26.0717 72.1504 25.7619 72.5931 25.7299C72.9725 25.7049 73.3239 25.9079 73.6155 26.3351C73.7982 26.6021 74.1565 26.6662 74.4201 26.4811C74.6836 26.296 74.7468 25.9292 74.5641 25.6658C74.0371 24.8968 73.3133 24.5051 72.5123 24.5585C71.7429 24.6084 70.9805 25.0926 70.6537 25.7334C70.5062 26.0218 70.6186 26.3743 70.9032 26.5238C70.9875 26.5665 71.0788 26.5879 71.1667 26.5879H71.1737Z" fill="#412919"/>
<path id="Vector_5" d="M63.0508 10.9407C62.6503 11.2255 62.0952 11.1223 61.8176 10.7164C61.2414 9.87618 60.5563 9.47743 59.7799 9.52371C58.884 9.58424 58.1848 10.1966 57.974 10.6132C57.8159 10.9229 57.5067 11.1009 57.1835 11.1009C57.0465 11.1009 56.9095 11.0689 56.7795 11.0012C56.3438 10.7734 56.1717 10.2322 56.3965 9.79074C56.9692 8.66568 58.3113 7.81833 59.6639 7.72932C61.0693 7.64031 62.3482 8.33101 63.2757 9.68749C63.5567 10.0969 63.4549 10.6559 63.0543 10.9372L63.0508 10.9407Z" fill="#412919"/>
<path id="Vector_6" d="M42.6803 10.8878C41.7036 10.9341 40.3298 11.1014 40.3298 12.9742C40.3298 13.4833 40.3298 14.0672 40.3509 14.6902C40.3755 15.3702 41.2433 15.6195 41.6157 15.0534L43.6535 11.963C43.9662 11.4859 43.6183 10.8522 43.0527 10.8736L42.6768 10.8878H42.6803Z" fill="#412919"/>
<path id="Vector_7" d="M5.00654 36.8708H1.62317C0.730779 36.8708 0 36.1302 0 35.2259C0 34.3216 0.730779 33.5811 1.62317 33.5811H11.9103C12.8027 33.5811 13.5335 34.3216 13.5335 35.2259C13.5335 36.1302 12.8027 36.8708 11.9103 36.8708H8.52693V48.1534C8.52693 49.1503 7.75048 49.9371 6.76674 49.9371C5.78299 49.9371 5.00654 49.1503 5.00654 48.1534V36.8708Z" fill="#412919"/>
<path id="Vector_8" d="M13.2137 39.0036C13.2137 38.0316 13.9902 37.2412 14.9529 37.2412C15.9155 37.2412 16.6885 38.028 16.6885 39.0036V40.4348C17.1909 39.2314 18.013 37.2448 19.0424 37.2448C20.0718 37.2448 20.7359 37.964 20.7359 38.9608C20.7359 39.8865 20.1421 40.4419 19.4324 40.6057C17.6722 41.0223 16.6885 42.3894 16.6885 44.8923V48.182C16.6885 49.154 15.912 49.9444 14.9529 49.9444C13.9937 49.9444 13.2137 49.1575 13.2137 48.182V39.0071V39.0036Z" fill="#412919"/>
<path id="Vector_9" d="M32.7622 48.1785C32.7622 49.1504 31.9857 49.9408 31.023 49.9408C30.0604 49.9408 29.2839 49.154 29.2839 48.1785V48.0396C28.4829 49.0828 27.4535 50.0334 25.6933 50.0334C23.0653 50.0334 21.5334 48.271 21.5334 45.4228V39.0036C21.5334 38.0316 22.3099 37.2412 23.269 37.2412C24.2282 37.2412 25.0082 38.028 25.0082 39.0036V44.3084C25.0082 45.9782 25.7846 46.8327 27.1127 46.8327C28.4407 46.8327 29.2839 45.9746 29.2839 44.3084V39.0036C29.2839 38.0316 30.0604 37.2412 31.023 37.2412C31.9857 37.2412 32.7622 38.028 32.7622 39.0036V48.1785Z" fill="#412919"/>
<path id="Vector_10" d="M42.7787 42.6171C42.5714 41.0398 41.658 39.9753 40.1964 39.9753C38.7349 39.9753 37.8179 41.0185 37.5438 42.6171H42.7787ZM40.5372 50.0795C36.8552 50.0795 34.1359 47.4626 34.1359 43.6602V43.6139C34.1359 40.0679 36.6268 37.1484 40.1964 37.1484C44.2895 37.1484 46.0953 40.5556 46.0953 43.1262C46.0953 44.1444 45.3856 44.8173 44.4722 44.8173H37.5895C37.9338 46.4159 39.03 47.249 40.5864 47.249C41.5455 47.249 42.3466 46.9464 43.0563 46.4159C43.3093 46.2308 43.5376 46.1382 43.903 46.1382C44.6795 46.1382 45.2521 46.7399 45.2521 47.5303C45.2521 47.9931 45.0484 48.342 44.7954 48.5734C43.7203 49.4991 42.3255 50.0795 40.5442 50.0795H40.5372Z" fill="#412919"/>
<path id="Vector_11" d="M2.33984 57.2886C2.33984 56.2917 3.1163 55.5049 4.10004 55.5049H13.0626C13.955 55.5049 14.6647 56.2241 14.6647 57.1248C14.6647 58.0256 13.955 58.7448 13.0626 58.7448H5.86023V62.1983H12.0332C12.9256 62.1983 13.6353 62.9174 13.6353 63.8217C13.6353 64.7261 12.9256 65.4417 12.0332 65.4417H5.86023V70.0736C5.86023 71.0705 5.08378 71.8574 4.10004 71.8574C3.1163 71.8574 2.33984 71.0705 2.33984 70.0736V57.285V57.2886Z" fill="#412919"/>
<path id="Vector_12" d="M15.8312 60.9235C15.8312 59.9515 16.6076 59.1611 17.5668 59.1611C18.5259 59.1611 19.3059 59.948 19.3059 60.9235V62.3547C19.8083 61.1513 20.6304 59.1647 21.6598 59.1647C22.6893 59.1647 23.3533 59.8839 23.3533 60.8808C23.3533 61.8064 22.7595 62.3618 22.0498 62.5256C20.2896 62.9422 19.3059 64.3093 19.3059 66.8122V70.1019C19.3059 71.0739 18.5294 71.8607 17.5668 71.8607C16.6041 71.8607 15.8312 71.0739 15.8312 70.1019V60.927V60.9235Z" fill="#412919"/>
<path id="Vector_13" d="M24.4038 60.9239C24.4038 59.9519 25.1803 59.1615 26.143 59.1615C27.1056 59.1615 27.8786 59.9484 27.8786 60.9239V70.0988C27.8786 71.0708 27.1021 71.8576 26.143 71.8576C25.1838 71.8576 24.4038 71.0708 24.4038 70.0988V60.9239ZM24.2001 56.3382C24.2001 55.32 25.0468 54.6934 26.143 54.6934C27.2391 54.6934 28.0859 55.32 28.0859 56.3382V56.3845C28.0859 57.4027 27.2391 58.0543 26.143 58.0543C25.0468 58.0543 24.2001 57.4063 24.2001 56.3845V56.3382Z" fill="#412919"/>
<path id="Vector_14" d="M38.0533 64.5415C37.8495 62.9643 36.9325 61.8998 35.471 61.8998C34.0094 61.8998 33.0924 62.9429 32.8184 64.5415H38.0533ZM35.8117 72.0004C32.1297 72.0004 29.4104 69.3835 29.4104 65.5811V65.5348C29.4104 61.9888 31.9014 59.0693 35.4674 59.0693C39.5605 59.0693 41.3664 62.4765 41.3664 65.0471C41.3664 66.0653 40.6567 66.7382 39.7432 66.7382H32.8605C33.2048 68.3368 34.301 69.1699 35.8574 69.1699C36.8166 69.1699 37.6176 68.8673 38.3273 68.3368C38.5803 68.1517 38.8086 68.0591 39.174 68.0591C39.9505 68.0591 40.5232 68.6608 40.5232 69.4512C40.5232 69.914 40.3159 70.2629 40.0664 70.4943C38.9913 71.42 37.5965 72.0004 35.8153 72.0004H35.8117Z" fill="#412919"/>
<path id="Vector_15" d="M42.8771 60.9239C42.8771 59.9519 43.6535 59.1616 44.6162 59.1616C45.5788 59.1616 46.3553 60.8242 46.3553 61.7962V61.0592C47.1564 60.016 48.1858 59.0654 49.946 59.0654C52.574 59.0654 54.1058 60.8242 54.1058 63.676V70.0953C54.1058 71.0672 53.3293 71.854 52.3702 71.854C51.411 71.854 50.6311 71.0672 50.6311 70.0953V64.7904C50.6311 63.1206 49.8546 62.2661 48.5266 62.2661C47.1985 62.2661 46.3553 63.1242 46.3553 64.7904V70.0953C46.3553 71.0672 45.5788 71.854 44.6162 71.854C43.6535 71.854 42.8771 71.0672 42.8771 70.0953V60.9203V60.9239Z" fill="#412919"/>
<path id="Vector_16" d="M58.905 65.4919V65.5382C58.905 67.5996 60.2752 68.9668 61.8984 68.9668C63.5216 68.9668 64.8707 67.5996 64.8707 65.5382V65.4919C64.8707 63.4305 63.5216 62.0634 61.8984 62.0634C60.2752 62.0634 58.905 63.4056 58.905 65.4919ZM68.3033 70.1025C68.3033 71.0745 67.5268 71.8613 66.5677 71.8613C65.6085 71.8613 64.8285 71.0745 64.8285 70.1025V69.9387C63.9818 71.0958 62.8154 71.9539 61.0095 71.9539C58.1532 71.9539 55.4303 69.6824 55.4303 65.5346V65.4884C55.4303 61.3406 58.104 59.0691 61.0095 59.0691C62.8611 59.0691 64.0064 60.7994 64.8285 61.7963V56.4274C64.8285 55.4554 65.605 54.665 66.5677 54.665C67.5303 54.665 68.3033 55.4519 68.3033 56.4274V70.099V70.1025Z" fill="#412919"/>
<path id="Vector_17" d="M69.9475 70.54C69.5821 70.3085 69.2834 69.892 69.2834 69.3366C69.2834 68.5498 69.8772 67.9481 70.6537 67.9481C70.9066 67.9481 71.1561 68.0193 71.3388 68.1332C72.5052 68.8737 73.6716 69.244 74.6554 69.244C75.6391 69.244 76.1169 68.8737 76.1169 68.3183V68.272C76.1169 67.5066 74.9294 67.2538 73.5803 66.8372C71.8658 66.3281 69.9229 65.5164 69.9229 63.106V63.0598C69.9229 60.5355 71.936 59.1221 74.4024 59.1221C75.6848 59.1221 77.0093 59.471 78.1969 60.0727C78.6993 60.329 79.019 60.7919 79.019 61.3935C79.019 62.1804 78.4006 62.7821 77.6242 62.7821C77.3712 62.7821 77.2131 62.7358 76.9847 62.6183C76.001 62.1305 75.0629 61.8315 74.3322 61.8315C73.4854 61.8315 73.0498 62.2017 73.0498 62.6895V62.7358C73.0498 63.43 74.2162 63.754 75.5407 64.2169C77.2553 64.7972 79.2438 65.6303 79.2438 67.9018V67.9481C79.2438 70.7037 77.2096 71.957 74.557 71.957C73.0463 71.957 71.4231 71.5155 69.9369 70.5435L69.9475 70.54Z" fill="#412919"/>
</g>
</svg>
