<svg width="98" height="77" viewBox="0 0 98 77" fill="none" xmlns="http://www.w3.org/2000/svg">
<g id="Logo">
<g id="Clip path group">
<mask id="mask0_2016_7" style="mask-type:luminance" maskUnits="userSpaceOnUse" x="0" y="0" width="98" height="77">
<g id="clip-path">
<path id="Rectangle 8716" d="M97.5422 0H0V76.5723H97.5422V0Z" fill="white"/>
</g>
</mask>
<g mask="url(#mask0_2016_7)">
<g id="Group 25158">
<path id="Path 178124" d="M93.9728 26.0583C93.9728 25.7922 93.9654 25.524 93.9579 25.26C93.9429 24.7955 93.9215 24.3353 93.8938 23.8793C93.866 23.4234 93.8304 22.9724 93.7869 22.5264C93.7463 22.0804 93.6982 21.6398 93.6426 21.2045C93.5871 20.7692 93.5247 20.34 93.4556 19.9168C93.3844 19.4936 93.3067 19.0761 93.2227 18.6644C93.1386 18.2526 93.0449 17.8479 92.9416 17.4504C92.8397 17.0521 92.7293 16.6603 92.6103 16.2749C92.5512 16.0825 92.4896 15.8923 92.4255 15.7042C92.3613 15.5161 92.2951 15.3295 92.2267 15.1443C92.1554 14.9597 92.0842 14.777 92.013 14.596C91.9417 14.4151 91.8662 14.237 91.7864 14.0617C91.7088 13.8843 91.6282 13.7091 91.5449 13.536C91.4615 13.3628 91.3761 13.1919 91.2884 13.023C91.2008 12.8542 91.1103 12.6875 91.017 12.5229C90.9237 12.3583 90.8282 12.1959 90.7306 12.0356C90.633 11.8753 90.5325 11.7168 90.4292 11.56C90.3259 11.4033 90.2191 11.2484 90.1086 11.0952C90.0004 10.942 89.8892 10.7906 89.7752 10.641C89.6612 10.4914 89.5444 10.3436 89.4247 10.1975C89.305 10.055 89.1822 9.91256 89.0561 9.77008C88.93 9.62759 88.8013 9.4876 88.6703 9.3501C88.5385 9.21189 88.4035 9.07617 88.2652 8.94295C88.127 8.80973 87.9846 8.67793 87.8378 8.54755C87.6953 8.41789 87.5475 8.29037 87.3943 8.16498C87.2411 8.03959 87.0865 7.91634 86.9305 7.79523C86.7724 7.67412 86.611 7.5555 86.4464 7.43937C86.2819 7.32325 86.1134 7.2089 85.941 7.09634C85.7686 6.98449 85.5926 6.87478 85.413 6.7672C85.2335 6.65962 85.0501 6.5549 84.8627 6.45302C84.6753 6.35043 84.4844 6.25033 84.2899 6.15273C84.0954 6.05513 83.9006 5.95788 83.7054 5.86099C83.5023 5.76838 83.2957 5.67826 83.0856 5.59063C82.8754 5.503 82.6617 5.41787 82.4444 5.33522C82.2249 5.25258 82.0016 5.17279 81.7743 5.09585C81.5471 5.01891 81.3152 4.94446 81.0786 4.8725C80.8421 4.80126 80.6013 4.73215 80.3562 4.66519C80.1112 4.59822 79.8618 4.53446 79.6082 4.4739C79.3539 4.41334 79.0953 4.35528 78.8324 4.29971C78.5695 4.24414 78.2995 4.19463 78.0223 4.15117C77.7495 4.10201 77.472 4.05535 77.1899 4.01118C76.9078 3.96701 76.6207 3.9264 76.3286 3.88936C76.0365 3.8516 75.7397 3.81598 75.4384 3.78249C75.137 3.74901 74.8303 3.72051 74.5183 3.697C74.2062 3.67135 73.8892 3.64891 73.5672 3.62968C73.2452 3.61044 72.9178 3.59441 72.5851 3.58159C72.2524 3.56876 71.9144 3.55915 71.571 3.55273C71.4641 3.55273 71.3434 3.55273 71.2311 3.55273C70.304 6.70012 70.2465 10.0399 71.0648 13.2173C71.8831 16.3947 73.5467 19.2912 75.8789 21.5992C78.2111 23.9071 81.1247 25.5404 84.3105 26.3255C87.4963 27.1106 90.8353 27.0183 93.9728 26.0583Z" fill="#FF6600"/>
<path id="Path 178125" d="M72.6781 0.0439453C72.0759 1.1584 71.592 2.33282 71.2344 3.54801C71.3477 3.54801 71.4631 3.54801 71.5742 3.54801C71.9176 3.55442 72.2556 3.56404 72.5883 3.57687C72.921 3.58969 73.2484 3.60572 73.5704 3.62495C73.8924 3.64419 74.2095 3.66663 74.5215 3.69228C74.8335 3.71793 75.1403 3.74642 75.4416 3.77777C75.7437 3.80983 76.0404 3.84545 76.3318 3.88463C76.6232 3.92382 76.9103 3.96443 77.1931 4.00646C77.4781 4.05063 77.7556 4.09729 78.0256 4.14645C78.2956 4.19561 78.5635 4.24797 78.8292 4.30354C79.0921 4.3584 79.3507 4.41646 79.605 4.47773C79.8594 4.539 80.1087 4.6024 80.3531 4.66795C80.5981 4.7342 80.839 4.80331 81.0755 4.87526C81.312 4.94722 81.5439 5.02167 81.7711 5.09861C81.9984 5.17555 82.2218 5.25534 82.4412 5.33798C82.6606 5.42062 82.8744 5.50576 83.0824 5.59339C83.2961 5.68102 83.5027 5.77114 83.7022 5.86375C83.9017 5.95637 84.1004 6.05148 84.2985 6.14908C84.493 6.24668 84.6839 6.34678 84.8713 6.44937C85.0586 6.55196 85.2421 6.65668 85.4216 6.76355C85.6012 6.87112 85.7768 6.98084 85.9485 7.09269C86.1202 7.20454 86.2887 7.31888 86.4539 7.43572C86.6192 7.55185 86.7806 7.67046 86.938 7.79158C87.0955 7.91269 87.2501 8.03594 87.4018 8.16133C87.5525 8.28636 87.701 8.41353 87.8453 8.5439C87.9896 8.67427 88.1317 8.80572 88.2728 8.9393C88.4138 9.07288 88.5463 9.20859 88.6778 9.34645C88.8092 9.4843 88.9385 9.62429 89.0646 9.76642C89.1907 9.90855 89.3125 10.0517 89.4322 10.1939C89.5519 10.336 89.6695 10.4878 89.7838 10.6374C89.8982 10.787 90.0093 10.9387 90.1172 11.0915C90.2252 11.2444 90.331 11.3993 90.4378 11.5564C90.5447 11.7135 90.6419 11.877 90.7392 12.0319C90.8364 12.1869 90.9326 12.3525 91.0256 12.5203C91.1185 12.6881 91.2083 12.8516 91.2959 13.0204C91.3836 13.1893 91.4691 13.3603 91.5524 13.5334C91.6358 13.7065 91.7149 13.8818 91.7939 14.0581C91.873 14.2344 91.9478 14.4139 92.0215 14.5924C92.0953 14.7709 92.1658 14.9568 92.2353 15.1406C92.3047 15.3244 92.3699 15.5114 92.434 15.7006C92.4982 15.8897 92.5601 16.0789 92.62 16.2712C92.7389 16.6552 92.8494 17.0471 92.9512 17.4467C93.0531 17.8464 93.1468 18.2511 93.2323 18.6607C93.3178 19.0718 93.3955 19.4893 93.4653 19.9131C93.5351 20.337 93.5974 20.7663 93.6523 21.2009C93.7071 21.6362 93.7552 22.0768 93.7966 22.5228C93.8379 22.9687 93.8735 23.4194 93.9034 23.8746C93.9305 24.3305 93.9515 24.7911 93.9665 25.2563C93.975 25.5203 93.9771 25.7907 93.9825 26.0546C95.2052 25.6812 96.3851 25.1797 97.5026 24.5585C97.4908 24.2508 97.4802 23.9419 97.4631 23.6374C97.4346 23.1436 97.3989 22.6539 97.3562 22.168C97.3134 21.6821 97.2614 21.1991 97.2002 20.7189C97.1396 20.2402 97.0701 19.7653 96.9918 19.2944C96.9134 18.8235 96.8254 18.3572 96.7278 17.8956C96.6787 17.6647 96.6274 17.435 96.5739 17.2063C96.5205 16.9776 96.4642 16.7503 96.4051 16.5245C96.3459 16.2987 96.2844 16.0742 96.2202 15.8513C96.1561 15.6283 96.0891 15.4063 96.0193 15.1855C95.9481 14.9654 95.8768 14.7463 95.8056 14.5283C95.7344 14.3103 95.656 14.0941 95.5705 13.8796C95.4893 13.6659 95.4049 13.4522 95.3172 13.2384C95.2296 13.0247 95.1395 12.8145 95.0468 12.6079C94.9528 12.3992 94.8563 12.1922 94.7572 11.9871C94.6582 11.7819 94.5556 11.5781 94.4495 11.3758C94.344 11.1735 94.235 10.9733 94.1225 10.7752C94.0099 10.5772 93.8941 10.3802 93.7752 10.1843C93.6562 9.98906 93.5337 9.79599 93.4076 9.60506C93.2815 9.41413 93.1518 9.22605 93.0186 9.04082C92.8854 8.85487 92.7486 8.67142 92.6082 8.49047C92.4679 8.30951 92.3254 8.1314 92.1808 7.95615C92.0333 7.78018 91.8823 7.60635 91.7277 7.43465C91.5731 7.26296 91.4149 7.09411 91.2532 6.92812C91.0915 6.76212 90.9258 6.59826 90.7563 6.43654C90.5867 6.27482 90.4139 6.11631 90.238 5.961C90.0613 5.80498 89.8807 5.65181 89.6962 5.50148C89.5117 5.35116 89.3236 5.20333 89.1319 5.058C88.9403 4.91551 88.7447 4.77303 88.5453 4.63054C88.3458 4.48806 88.1424 4.35127 87.9351 4.22019C87.7149 4.08839 87.498 3.9573 87.2843 3.82693C87.0705 3.69655 86.8515 3.57117 86.627 3.45077C86.4041 3.32823 86.1772 3.20854 85.9463 3.0917C85.7155 2.97487 85.4808 2.86123 85.2421 2.75081C85.0027 2.64038 84.7598 2.53352 84.5133 2.43022C84.2668 2.32691 84.0174 2.22575 83.7652 2.12672C83.5102 2.02912 83.2508 1.93437 82.9873 1.84246C82.7237 1.75056 82.4562 1.66222 82.1847 1.57744C81.9133 1.49195 81.6372 1.41002 81.3565 1.33166C81.0758 1.25329 80.7909 1.17777 80.5016 1.1051C80.2166 1.03386 79.9238 0.965112 79.6232 0.898856C79.3226 0.832601 79.0194 0.770976 78.7138 0.713982C78.4081 0.655563 78.0979 0.600706 77.783 0.549412C77.4681 0.498117 77.1493 0.450741 76.8266 0.407283C76.5038 0.361687 76.1783 0.320367 75.8498 0.28332C75.5214 0.246274 75.1851 0.212434 74.841 0.1818C74.5005 0.151878 74.1553 0.125518 73.8055 0.10272C73.4557 0.0799228 73.1013 0.0610435 72.7422 0.0460826H72.6834" fill="#FF6600"/>
<path id="Path 178126" d="M25.8685 6.31217C25.7168 6.31217 25.5661 6.30469 25.4143 6.30469C25.1429 6.30469 24.8715 6.30896 24.6 6.31751C24.3286 6.32606 24.0586 6.33888 23.79 6.35598C23.5207 6.37308 23.2521 6.39445 22.9842 6.4201C22.7164 6.44575 22.4499 6.47531 22.1849 6.5088C21.9192 6.54299 21.6549 6.58111 21.392 6.62314C21.1291 6.66518 20.8673 6.71113 20.6065 6.761C20.3465 6.81158 20.0875 6.86572 19.8296 6.92343C19.5717 6.98114 19.316 7.04312 19.0623 7.10937C18.8087 7.17563 18.5565 7.24687 18.3057 7.3231C18.055 7.39933 17.8056 7.47698 17.5577 7.55606C17.3112 7.63728 17.0672 7.72241 16.8257 7.81147C16.5842 7.90052 16.3444 7.99349 16.1065 8.09038C15.8692 8.18656 15.6345 8.28666 15.4022 8.39067C15.17 8.49468 14.9406 8.60155 14.714 8.71126C14.4868 8.8224 14.2627 8.9371 14.0419 9.05536C13.821 9.17363 13.6027 9.29545 13.3868 9.42084C13.1267 9.57262 12.8322 9.65551 12.5311 9.66168C12.23 9.66786 11.9324 9.5971 11.6663 9.4561L9.54824 8.33403L7.17052 7.07411L7.21113 9.55121L7.29555 14.7085C7.29555 14.7288 7.29555 14.7501 7.29555 14.7715C7.29555 14.7929 7.29555 14.8132 7.29555 14.8335C7.29555 14.8538 7.29555 14.8752 7.29555 14.8955C7.29555 14.9158 7.29555 14.9372 7.28914 14.9575C7.28273 14.9778 7.2838 14.9991 7.28059 15.0194C7.27738 15.0397 7.27418 15.0611 7.2699 15.0814C7.26563 15.1017 7.26135 15.122 7.25708 15.1423C7.2528 15.1626 7.24746 15.1829 7.24212 15.2032C7.23678 15.2235 7.23036 15.2439 7.22395 15.2631C7.21754 15.2823 7.21113 15.3026 7.20472 15.3229C7.1983 15.3432 7.19082 15.3625 7.18227 15.3817C7.17373 15.4009 7.16731 15.4202 7.15877 15.4394C7.15022 15.4586 7.14167 15.4779 7.13312 15.4961C7.12457 15.5142 7.11495 15.5335 7.10533 15.5527L7.07541 15.6072C7.01058 15.7212 6.94753 15.8391 6.88626 15.9609C6.82535 16.0827 6.76551 16.2078 6.7078 16.336C6.59132 16.5925 6.48232 16.8607 6.37973 17.1385C6.27714 17.4164 6.1831 17.7017 6.09547 17.9935C6.00784 18.2852 5.92876 18.5823 5.85716 18.8815C5.78556 19.1807 5.72251 19.4821 5.66695 19.7824C5.61138 20.0827 5.56542 20.3819 5.52802 20.6757C5.49062 20.9696 5.46177 21.2592 5.44253 21.5413C5.42329 21.8235 5.41368 22.097 5.41368 22.3589V22.4337C5.39658 22.8226 5.38803 23.2006 5.38803 23.5675C5.38803 23.9344 5.39658 24.2906 5.41368 24.6361C5.43006 24.9816 5.45464 25.3165 5.48741 25.6406C5.52018 25.9648 5.56115 26.2797 5.61031 26.5853C5.61672 26.627 5.62634 26.6655 5.63382 26.7071C8.38697 27.0497 11.182 26.7565 13.8042 25.8502C16.4263 24.9439 18.8059 23.4485 20.7599 21.479C22.7139 19.5095 24.1905 17.1183 25.0761 14.489C25.9617 11.8598 26.2327 9.06253 25.8685 6.31217Z" fill="#FF6600"/>
<path id="Path 178127" d="M25.0381 2.76845C24.8768 2.76845 24.7176 2.76845 24.5541 2.77593C24.2691 2.78448 23.9841 2.7973 23.6991 2.8144C23.4142 2.8315 23.1292 2.85252 22.8442 2.87745C22.5593 2.90239 22.2771 2.9316 21.9979 2.96508C21.7186 2.99856 21.4383 3.03632 21.1568 3.07836C20.8776 3.11968 20.5994 3.16527 20.3222 3.21514C20.0451 3.26501 19.769 3.3188 19.494 3.37651C19.2198 3.43421 18.9465 3.49584 18.6744 3.56138C18.4023 3.62693 18.1319 3.69817 17.8633 3.77511C17.594 3.84635 17.3268 3.92401 17.0618 4.00807C16.7968 4.09214 16.5328 4.17763 16.27 4.26455C16.0078 4.3536 15.7478 4.44693 15.4899 4.54453C15.232 4.64213 14.9758 4.74294 14.7215 4.84695C14.4672 4.95168 14.215 5.05854 13.9649 5.16755C13.7148 5.27655 13.4655 5.39267 13.2169 5.51592C12.9718 5.63561 12.7288 5.75922 12.488 5.88674L11.2057 5.20602L6.18308 2.54297C5.91114 2.39807 5.60609 2.32663 5.29809 2.33573C4.99009 2.34483 4.68979 2.43415 4.42688 2.59485C4.16397 2.75556 3.94754 2.98209 3.799 3.25205C3.65045 3.52202 3.57492 3.82607 3.57988 4.13417L3.66964 9.60988L3.74765 14.3728C3.66857 14.5274 3.59199 14.6834 3.51789 14.8409C3.4438 14.9983 3.37256 15.1579 3.30417 15.3196C3.23292 15.4806 3.16631 15.6427 3.10433 15.8058C3.04235 15.969 2.98108 16.1336 2.92053 16.2996C2.80297 16.6308 2.69611 16.9653 2.59993 17.303C2.50376 17.6407 2.41613 17.9795 2.33705 18.3193C2.25904 18.6591 2.19064 19 2.13294 19.3398C2.07523 19.6797 2.02607 20.0184 1.98653 20.354C1.94699 20.6895 1.91814 21.0229 1.89891 21.3521C1.87967 21.6812 1.86898 22.0061 1.86792 22.3245C1.85865 22.5454 1.85224 22.7641 1.84868 22.9807C1.84512 23.1973 1.84512 23.411 1.84868 23.6219C1.84868 23.8356 1.85331 24.0461 1.86257 24.2534C1.87183 24.4608 1.88216 24.667 1.89356 24.8722C1.90639 25.0759 1.92206 25.2783 1.94058 25.4792C1.95234 25.6117 1.9673 25.7421 1.98226 25.8724C3.16574 26.275 4.38762 26.5543 5.62846 26.706C5.62204 26.6643 5.61136 26.6269 5.60495 26.5852C5.5565 26.2803 5.51589 25.9654 5.48312 25.6405C5.45035 25.3157 5.42577 24.9808 5.40939 24.636C5.393 24.2905 5.38445 23.9343 5.38374 23.5674C5.38303 23.2005 5.39157 22.8225 5.40939 22.4335V22.3587C5.40939 22.0969 5.42007 21.8244 5.43931 21.5412C5.45854 21.258 5.4874 20.9706 5.5248 20.6756C5.5622 20.3807 5.60922 20.0825 5.66372 19.7823C5.71822 19.482 5.78234 19.1806 5.85287 18.8814C5.9234 18.5822 6.00462 18.2851 6.09118 17.9934C6.17774 17.7016 6.27285 17.4152 6.37543 17.1384C6.47802 16.8617 6.58916 16.5924 6.70351 16.3359C6.76121 16.2077 6.82106 16.0826 6.88304 15.9608C6.94395 15.839 7.007 15.7204 7.07219 15.606L7.10211 15.5504L7.12989 15.4938C7.13951 15.4746 7.14806 15.4564 7.15554 15.4372L7.18012 15.3795L7.20149 15.3207L7.2218 15.2608C7.22821 15.2405 7.23355 15.2202 7.23889 15.201C7.24424 15.1818 7.24958 15.1604 7.25386 15.1401C7.25813 15.1198 7.26347 15.0995 7.26668 15.0792C7.26989 15.0589 7.27416 15.0375 7.27843 15.0172C7.28271 14.9969 7.28485 14.9755 7.28698 14.9552C7.28912 14.9349 7.28698 14.9135 7.2934 14.8932C7.29981 14.8729 7.2934 14.8516 7.2934 14.8312C7.2934 14.8109 7.2934 14.7896 7.2934 14.7682C7.2934 14.7468 7.2934 14.7265 7.2934 14.7051L7.21325 9.5511L7.17264 7.074L9.55036 8.33392L11.6684 9.45706C11.9346 9.59786 12.2322 9.66851 12.5332 9.66234C12.8343 9.65617 13.1288 9.57338 13.3889 9.4218C13.6026 9.29641 13.821 9.17459 14.044 9.05632C14.267 8.93806 14.491 8.82336 14.7162 8.71222C14.9434 8.60108 15.1728 8.49422 15.4044 8.39163C15.6359 8.28904 15.8706 8.18894 16.1086 8.09134C16.3458 7.99516 16.5852 7.90255 16.8267 7.8135C17.0682 7.72444 17.3126 7.63931 17.5598 7.55809C17.8056 7.47687 18.0549 7.39922 18.3079 7.32513C18.5608 7.25104 18.813 7.17979 19.0645 7.1114C19.3181 7.04514 19.5738 6.98281 19.8317 6.92439C20.0896 6.86597 20.3486 6.81183 20.6086 6.76196C20.8694 6.71137 21.1312 6.66507 21.3941 6.62303C21.657 6.581 21.9213 6.54288 22.187 6.50869C22.4528 6.47449 22.7192 6.44457 22.9864 6.41892C23.2535 6.39327 23.5221 6.3719 23.7921 6.3548C24.0614 6.33771 24.3314 6.32488 24.6021 6.31633C24.8729 6.30778 25.1443 6.30351 25.4164 6.30351C25.5682 6.30351 25.7199 6.30351 25.8706 6.31099C25.7135 5.10501 25.4357 3.91785 25.0413 2.76738L25.0381 2.76845Z" fill="#FF6600"/>
<path id="Path 178128" d="M70.529 0C56.8761 0 50.0283 6.58816 47.0916 13.1047C45.3154 17.1807 44.525 21.618 44.7844 26.0566L44.777 25.9316C44.8592 29.7156 43.0159 32.2654 39.5599 34.1986C36.1039 36.1317 31.0311 37.1737 25.4143 37.1737C19.1863 37.1737 13.8997 36.3188 10.4715 34.1473C7.04333 31.9758 5.13901 28.6609 5.40724 22.4414C5.40724 22.4168 5.40724 22.3912 5.40724 22.3666C5.43602 20.0184 6.00459 17.7083 7.06897 15.615C7.22392 15.3407 7.30287 15.0301 7.29766 14.7152L7.21431 9.55149L7.17477 7.07439L9.55249 8.33538L11.6705 9.45745C11.9367 9.59835 12.2343 9.66905 12.5354 9.66288C12.8364 9.65671 13.1309 9.57387 13.391 9.42219C17.058 7.35139 21.2032 6.27668 25.4143 6.30497C29.6258 6.2764 33.7714 7.35111 37.4386 9.42219C37.6987 9.57387 37.9933 9.65671 38.2943 9.66288C38.5954 9.66905 38.893 9.59835 39.1591 9.45745L41.2782 8.33538L45.4823 6.10727C45.8973 5.88734 46.208 5.51152 46.346 5.06251C46.484 4.61349 46.438 4.12806 46.218 3.71299C45.9981 3.29792 45.6223 2.98722 45.1733 2.84923C44.7243 2.71125 44.2388 2.75729 43.8237 2.97723L39.6197 5.20427L38.3373 5.88499C34.3465 3.81309 29.912 2.74187 25.4154 2.7635C20.9198 2.74284 16.4864 3.81441 12.4966 5.88606L11.2142 5.20534L6.19162 2.54229C5.91936 2.39552 5.61341 2.32262 5.30422 2.33085C4.99503 2.33909 4.69339 2.42816 4.42933 2.58922C4.16527 2.75027 3.948 2.97768 3.79915 3.24881C3.6503 3.51993 3.57507 3.82532 3.58094 4.13456L3.6707 9.61027L3.75192 14.3732C2.52806 16.8457 1.88479 19.565 1.87112 22.3239C1.57724 29.3876 4.1751 34.3503 8.5811 37.1405C12.9871 39.9308 18.8838 40.7151 25.4154 40.7151C31.4564 40.7151 37.0454 39.6636 41.29 37.2891C45.5346 34.9146 48.4296 30.9371 48.3184 25.8547C48.3184 25.813 48.3184 25.7713 48.311 25.7296C48.1161 21.9017 48.8035 18.0803 50.32 14.5602C52.8185 9.01611 57.9618 3.54254 70.528 3.54254C81.8555 3.54254 87.6016 6.90768 90.737 12.0393C93.8724 17.1709 94.3511 24.5338 93.7741 32.5208C93.7574 32.7528 93.7867 32.9858 93.8601 33.2065C93.9335 33.4271 94.0496 33.6312 94.2019 33.807C94.3542 33.9828 94.5396 34.1269 94.7475 34.231C94.9555 34.3351 95.1819 34.3973 95.4139 34.4139C95.6459 34.4305 95.8788 34.4013 96.0995 34.3279C96.3202 34.2545 96.5243 34.1383 96.7001 33.9861C96.8758 33.8338 97.0199 33.6484 97.1241 33.4404C97.2282 33.2325 97.2904 33.0061 97.307 32.7741C97.9001 24.5114 97.5709 16.4357 93.7559 10.1916C89.9409 3.94755 82.5972 0 70.529 0Z" fill="black"/>
<path id="Path 178129" d="M72.8395 28.4869C72.8448 28.9834 72.8805 29.4791 72.9463 29.9713C73.0041 29.4102 73.0297 28.8823 73.0351 28.4121L72.8416 28.4869" fill="black"/>
<path id="Path 178130" d="M69.2937 28.6055C69.3044 29.0201 69.33 29.4786 69.3792 29.9605C69.4373 29.5266 69.473 29.09 69.486 28.6525C69.423 28.6386 69.3589 28.6226 69.298 28.6055" fill="black"/>
<path id="Path 178131" d="M28.7175 27.1079C28.6867 27.4415 28.5687 27.761 28.3753 28.0345C28.1819 28.308 27.9199 28.5258 27.6157 28.666C26.7933 29.0904 25.8813 29.3118 24.9559 29.3118C24.0305 29.3118 23.1184 29.0904 22.296 28.666C21.9918 28.5258 21.7299 28.308 21.5365 28.0345C21.3431 27.761 21.225 27.4415 21.1943 27.1079C21.1943 25.8907 22.8785 24.9033 24.9559 24.9033C27.0333 24.9033 28.7175 25.8907 28.7175 27.1079Z" fill="black"/>
<path id="Path 178132" d="M87.0834 35.5853C84.5101 38.3777 80.4792 38.8864 76.6481 38.4076C74.7367 38.2016 72.9686 37.297 71.6832 35.8674C71.4981 35.6575 71.3255 35.437 71.166 35.207C71.0057 35.437 70.8323 35.6575 70.6466 35.8674C69.3604 37.2977 67.5911 38.2023 65.6785 38.4076C61.8496 38.8864 57.8197 38.3777 55.2454 35.5853C52.671 32.793 52.2072 28.1604 54.4973 21.8159C54.6604 21.379 54.9892 21.0241 55.4123 20.8282C55.8355 20.6322 56.3188 20.6111 56.7575 20.7694C57.1961 20.9278 57.5546 21.2527 57.755 21.6737C57.9555 22.0947 57.9818 22.5778 57.8283 23.0181C55.769 28.7321 56.4391 31.657 57.8507 33.183C59.2624 34.709 62.0494 35.2893 65.2404 34.8928C65.7642 34.8588 66.2761 34.7215 66.7467 34.489C67.2172 34.2564 67.6372 33.9332 67.9825 33.5378C68.6026 32.7649 69.0265 31.8534 69.2178 30.8812C69.2873 30.5713 69.3418 30.2624 69.3813 29.9611C69.4395 29.5272 69.4751 29.0906 69.4882 28.6531C69.4252 28.6392 69.361 28.6231 69.3001 28.606C68.0178 28.2545 67.1244 27.4915 67.1244 26.6077C67.1549 26.2738 67.2729 25.9538 67.4665 25.6801C67.6601 25.4063 67.9225 25.1885 68.2272 25.0485C69.0492 24.6235 69.9611 24.4017 70.8865 24.4017C71.8119 24.4017 72.7238 24.6235 73.5458 25.0485C73.85 25.189 74.1118 25.407 74.3051 25.6807C74.4983 25.9543 74.616 26.2741 74.6465 26.6077C74.6465 27.3557 74.0139 28.0151 73.0436 28.4126L72.8502 28.4874C72.8555 28.9839 72.8912 29.4796 72.957 29.9718C72.9955 30.2699 73.0479 30.5777 73.1173 30.8812C73.3098 31.8537 73.7347 32.7652 74.3559 33.5378C74.7008 33.933 75.1205 34.2561 75.5907 34.4887C76.0609 34.7212 76.5724 34.8585 77.0958 34.8928C80.2889 35.2914 83.0802 34.7133 84.4876 33.183C85.895 31.6527 86.5693 28.7321 84.5101 23.0181C84.3916 22.6886 84.3734 22.3313 84.4577 21.9914C84.5421 21.6515 84.7252 21.3442 84.984 21.1082C85.2428 20.8723 85.5657 20.7183 85.9119 20.6656C86.2582 20.613 86.6122 20.6641 86.9295 20.8125C87.3542 21.0133 87.6823 21.374 87.8421 21.8159C90.1279 28.1604 89.6662 32.7908 87.094 35.5853" fill="black"/>
<path id="Path 178133" d="M17.8783 18.4221C17.8783 19.0232 17.6699 19.6056 17.2886 20.0702C16.9073 20.5348 16.3767 20.8528 15.7872 20.97C15.1977 21.0873 14.5858 20.9965 14.0558 20.7132C13.5257 20.4298 13.1103 19.9715 12.8803 19.4162C12.6503 18.8609 12.62 18.2431 12.7944 17.6679C12.9689 17.0928 13.3374 16.5959 13.8372 16.262C14.3369 15.9281 14.937 15.7778 15.5351 15.8367C16.1332 15.8957 16.6924 16.1601 17.1174 16.5851C17.3587 16.8263 17.5501 17.1127 17.6806 17.4279C17.8112 17.7431 17.8783 18.081 17.8783 18.4221Z" fill="black"/>
<path id="Path 178134" d="M37.4974 18.4229C37.4979 19.0239 37.29 19.6065 36.9091 20.0714C36.5283 20.5363 35.998 20.8547 35.4086 20.9725C34.8193 21.0903 34.2074 21.0001 33.6771 20.7173C33.1468 20.4345 32.7309 19.9765 32.5004 19.4215C32.2699 18.8665 32.2389 18.2487 32.4128 17.6734C32.5867 17.0981 32.9546 16.6009 33.454 16.2665C33.9533 15.9321 34.5532 15.7811 35.1513 15.8394C35.7495 15.8976 36.309 16.1615 36.7344 16.5859C36.9756 16.8272 37.167 17.1136 37.2976 17.4288C37.4281 17.744 37.4953 18.0818 37.4953 18.4229" fill="black"/>
<path id="Path 178135" d="M66.1327 18.4221C66.1327 18.9359 65.9803 19.4382 65.6949 19.8654C65.4094 20.2926 65.0037 20.6256 64.529 20.8222C64.0543 21.0188 63.5319 21.0703 63.028 20.97C62.5241 20.8698 62.0612 20.6224 61.6978 20.259C61.3345 19.8957 61.0871 19.4328 60.9869 18.9289C60.8866 18.425 60.9381 17.9026 61.1347 17.4279C61.3313 16.9532 61.6643 16.5475 62.0915 16.262C62.5187 15.9766 63.021 15.8242 63.5348 15.8242C63.876 15.8242 64.2138 15.8914 64.529 16.022C64.8442 16.1525 65.1306 16.3439 65.3718 16.5851C65.613 16.8263 65.8044 17.1127 65.9349 17.4279C66.0655 17.7431 66.1327 18.0809 66.1327 18.4221Z" fill="black"/>
<path id="Path 178136" d="M82.08 18.4221C82.08 19.0232 81.8716 19.6056 81.4903 20.0702C81.109 20.5348 80.5784 20.8528 79.9889 20.97C79.3994 21.0873 78.7875 20.9965 78.2575 20.7132C77.7274 20.4298 77.312 19.9715 77.082 19.4162C76.852 18.8609 76.8217 18.2431 76.9961 17.6679C77.1706 17.0928 77.5391 16.5959 78.0389 16.262C78.5386 15.9281 79.1387 15.7778 79.7368 15.8367C80.335 15.8957 80.8941 16.1601 81.3191 16.5851C81.5604 16.8264 81.7517 17.1128 81.8823 17.428C82.0128 17.7432 82.08 18.081 82.08 18.4221Z" fill="black"/>
<path id="Path 178137" d="M12.0403 49.723C12.2261 49.8075 12.3869 49.9384 12.5075 50.1031C12.628 50.2678 12.7041 50.4607 12.7285 50.6634C12.7677 50.8699 12.7592 51.0827 12.7036 51.2855C12.6481 51.4883 12.5469 51.6758 12.4079 51.8335C12.3204 51.9631 12.205 52.0715 12.0702 52.1508C11.9354 52.2301 11.7847 52.2784 11.6289 52.292C11.3036 52.3192 10.9772 52.2552 10.6863 52.1071C10.3111 51.9362 9.91889 51.8054 9.51618 51.717C9.10208 51.6234 8.67867 51.5771 8.25411 51.5792C7.49449 51.5674 6.73952 51.6998 6.02921 51.9692C5.40413 52.2191 4.84159 52.6032 4.38136 53.0945C3.91528 53.5804 3.556 54.1585 3.32662 54.7915C3.09019 55.4933 2.97386 56.23 2.98252 56.9705C2.96512 57.7977 3.09726 58.6213 3.37257 59.4016C3.62088 60.0485 4.00412 60.635 4.49678 61.1221C4.97415 61.5828 5.54535 61.9349 6.17134 62.1544C6.84516 62.3732 7.54996 62.4815 8.25839 62.475C8.67386 62.4748 9.08845 62.4365 9.49694 62.3607C9.91172 62.2826 10.3126 62.1432 10.6863 61.9471C10.9763 61.7995 11.3043 61.7436 11.6267 61.7868C11.7859 61.8097 11.9388 61.8641 12.0766 61.9469C12.2144 62.0296 12.3343 62.1391 12.4293 62.2688C12.5724 62.4286 12.6759 62.6198 12.7316 62.8269C12.7873 63.034 12.7935 63.2514 12.7499 63.4614C12.7159 63.6522 12.6354 63.8317 12.5153 63.9838C12.3952 64.1359 12.2394 64.256 12.0617 64.3334C11.6622 64.5327 11.2482 64.7013 10.8231 64.8378C10.4097 64.96 9.98788 65.0518 9.56106 65.1124C9.12965 65.1891 8.69229 65.2274 8.25411 65.2268C7.18436 65.2318 6.12168 65.0532 5.11231 64.6989C4.14177 64.3516 3.24657 63.8221 2.47491 63.1386C1.69039 62.4257 1.07047 61.5505 0.658227 60.5739C0.197146 59.4297 -0.0268058 58.2038 -5.42849e-05 56.9705C-0.0123057 55.8555 0.190143 54.7485 0.596246 53.71C0.989725 52.7472 1.57512 51.8746 2.31675 51.1453C3.07234 50.4074 3.96949 49.8302 4.95416 49.4483C6.00377 49.028 7.12567 48.8178 8.25625 48.8296C8.92054 48.8287 9.58264 48.9058 10.229 49.0593C10.8591 49.2067 11.4691 49.4299 12.0456 49.724" fill="black"/>
<path id="Path 178138" d="M25.9861 52.8887C25.8567 52.76 25.7023 52.659 25.5326 52.5919C25.3628 52.5249 25.1811 52.4931 24.9986 52.4987C24.8143 52.4935 24.631 52.5275 24.4608 52.5984C24.2906 52.6694 24.1374 52.7756 24.0112 52.9101C23.8823 53.0394 23.7811 53.1936 23.7141 53.3635C23.647 53.5333 23.6154 53.715 23.6212 53.8975V53.9339C23.4752 53.7986 23.3222 53.6713 23.1627 53.5524C22.2287 52.8569 21.0924 52.4867 19.928 52.4987C18.9343 52.4894 17.9603 52.7762 17.1303 53.3226C16.2697 53.8802 15.5733 54.657 15.1127 55.5731C14.605 56.5981 14.3528 57.7306 14.3774 58.8742C14.3566 60.018 14.6087 61.1503 15.1127 62.1773C15.5863 63.0899 16.2893 63.8633 17.1527 64.4215C18.0126 64.9562 19.0073 65.2342 20.0199 65.2229C20.5663 65.2286 21.1092 65.136 21.6228 64.9494C22.0884 64.7715 22.5282 64.5325 22.9308 64.2387C23.1787 64.056 23.4091 63.8507 23.619 63.6253C23.6161 63.9901 23.7562 64.3414 24.0091 64.6042C24.2767 64.8545 24.6295 64.9938 24.996 64.9938C25.3624 64.9938 25.7152 64.8545 25.9829 64.6042C26.111 64.47 26.2114 64.3118 26.2783 64.1387C26.3453 63.9656 26.3774 63.781 26.3729 63.5954V53.8954C26.38 53.7095 26.349 53.5242 26.2819 53.3508C26.2149 53.1773 26.1131 53.0194 25.9829 52.8866M23.3016 60.8244C23.0459 61.382 22.6414 61.8582 22.1326 62.2008C21.6081 62.5434 20.9924 62.7196 20.3661 62.7063C19.7471 62.7176 19.1391 62.5414 18.6221 62.2008C18.1102 61.8555 17.699 61.3805 17.4305 60.8244C17.1487 60.2139 17.0081 59.5476 17.0191 58.8752C17.0068 58.1958 17.1474 57.5224 17.4305 56.9047C17.6998 56.3491 18.1108 55.8743 18.6221 55.5283C19.1391 55.1877 19.7471 55.0115 20.3661 55.0228C20.9924 55.0095 21.6081 55.1857 22.1326 55.5283C22.6407 55.8716 23.0451 56.3476 23.3016 56.9047C23.5987 57.5184 23.7474 58.1935 23.7355 58.8752C23.746 59.55 23.5974 60.2178 23.3016 60.8244Z" fill="black"/>
<path id="Path 178139" d="M35.8474 62.703C36.0416 62.9322 36.1406 63.227 36.1242 63.5269C36.115 63.7517 36.0435 63.9695 35.9176 64.1559C35.7917 64.3424 35.6165 64.4902 35.4114 64.5827C34.9627 64.8555 34.4469 64.998 33.9217 64.9942C33.5613 64.992 33.2012 64.9688 32.8435 64.9247C32.4561 64.862 32.0832 64.7299 31.7428 64.5347C31.3808 64.2937 31.0883 63.9621 30.8943 63.5729C30.6384 63.0205 30.52 62.4145 30.5491 61.8064V55.4758H29.4954C29.3259 55.4799 29.1573 55.4495 28.9999 55.3865C28.8425 55.3235 28.6995 55.2292 28.5795 55.1093C28.4596 54.9894 28.3653 54.8464 28.3023 54.689C28.2393 54.5315 28.209 54.363 28.2131 54.1934C28.2091 54.0302 28.2398 53.8679 28.3032 53.7174C28.3666 53.5669 28.4611 53.4316 28.5807 53.3204C28.7008 53.2003 28.8442 53.106 29.002 53.0433C29.1599 52.9806 29.3289 52.9509 29.4986 52.9559H30.5523V51.4876C30.5463 51.3049 30.578 51.1229 30.6455 50.953C30.713 50.7831 30.8148 50.629 30.9445 50.5002C31.0754 50.366 31.2325 50.2602 31.406 50.1894C31.5796 50.1186 31.7659 50.0843 31.9533 50.0888C32.1341 50.0819 32.3141 50.1152 32.4805 50.1863C32.6468 50.2575 32.7952 50.3647 32.9151 50.5002C33.0441 50.6294 33.1453 50.7837 33.2123 50.9535C33.2794 51.1234 33.311 51.3051 33.3051 51.4876V52.9559H34.9337C35.1033 52.9518 35.2719 52.9822 35.4293 53.0452C35.5867 53.1082 35.7297 53.2025 35.8496 53.3224C35.9696 53.4423 36.0639 53.5853 36.1269 53.7428C36.1899 53.9002 36.2202 54.0688 36.2161 54.2383C36.2189 54.4047 36.1878 54.57 36.1246 54.7239C36.0613 54.8779 35.9674 55.0174 35.8485 55.1338C35.5996 55.3645 35.2697 55.4877 34.9305 55.4769H33.3019V61.6942C33.2949 61.8772 33.335 62.059 33.4184 62.2221C33.5018 62.3518 33.6209 62.4546 33.7614 62.5181C33.9144 62.579 34.0777 62.6098 34.2423 62.609C34.4151 62.611 34.5866 62.5802 34.7478 62.5181C34.9127 62.4403 35.0934 62.4016 35.2757 62.4048C35.3873 62.4081 35.4968 62.4367 35.5958 62.4883C35.6948 62.54 35.7808 62.6134 35.8474 62.703Z" fill="black"/>
<path id="Path 178140" d="M52.7736 63.209C52.6617 63.0011 52.5137 62.8147 52.3365 62.6586C52.0159 62.3541 51.5959 61.9704 51.0755 61.5109C50.9045 61.3506 50.7239 61.185 50.5412 61.0161C50.6267 60.8558 50.7047 60.6955 50.7763 60.5267C51.1667 59.6656 51.4364 58.7547 51.5778 57.8198C51.6124 57.625 51.6081 57.4252 51.565 57.232C51.5219 57.0389 51.4409 56.8562 51.3267 56.6945C51.2233 56.5415 51.0828 56.4171 50.9184 56.333C50.7539 56.2489 50.5709 56.2078 50.3863 56.2136C50.096 56.1893 49.8057 56.261 49.5602 56.4178C49.4014 56.5692 49.304 56.7739 49.2866 56.9927C49.1897 57.6931 49.0048 58.3786 48.7363 59.0327C48.7064 59.1129 48.6732 59.1898 48.6369 59.2678C48.3021 58.9558 47.9676 58.6405 47.6334 58.3221C47.0528 57.7415 46.5256 57.1986 46.0519 56.6935C45.7619 56.3729 45.395 56.006 44.9511 55.5928C44.5317 55.1905 44.1477 54.7529 43.8034 54.2848C43.4894 53.8761 43.3124 53.3787 43.298 52.8635C43.2947 52.6213 43.3397 52.3809 43.4303 52.1563C43.5209 51.9318 43.6554 51.7275 43.8259 51.5555C44.0393 51.362 44.2896 51.2136 44.5617 51.119C44.8338 51.0245 45.1222 50.9857 45.4096 51.0051C45.9269 50.9934 46.4413 51.0864 46.9217 51.2787C47.3911 51.4667 47.7968 51.7853 48.0908 52.1966C48.1849 52.3018 48.2927 52.3938 48.4114 52.4702C48.585 52.5724 48.7852 52.6204 48.9863 52.6081C49.1457 52.617 49.3052 52.5932 49.4551 52.5381C49.6049 52.4829 49.7417 52.3976 49.8573 52.2875C49.9594 52.1896 50.0406 52.072 50.0957 51.9417C50.1508 51.8114 50.1788 51.6713 50.1779 51.5298C50.1824 51.328 50.1517 51.1269 50.087 50.9356C50.0589 50.8329 50.021 50.733 49.9738 50.6375C49.5892 49.9769 48.9766 49.4794 48.2511 49.2386C47.3488 48.8742 46.3826 48.6947 45.4096 48.7107C44.4841 48.6873 43.5679 48.9002 42.7476 49.3295C42.037 49.6928 41.4358 50.2387 41.0057 50.9111C40.6128 51.536 40.4056 52.2599 40.4084 52.9981C40.4029 53.5427 40.5372 54.0795 40.7984 54.5573C40.9547 54.8167 41.1263 55.0665 41.3124 55.3053C40.6668 55.5802 40.0679 55.9541 39.5374 56.4135C39.015 56.8853 38.6002 57.4641 38.3213 58.1105C38.0547 58.7736 37.9221 59.4829 37.9313 60.1975C37.93 61.0709 38.1849 61.9255 38.6644 62.6554C39.1827 63.4328 39.8844 64.0706 40.7076 64.5127C41.6099 64.9951 42.6201 65.2397 43.6431 65.2234C44.7436 65.2477 45.8367 65.0367 46.8491 64.6046C47.6645 64.2401 48.4051 63.7274 49.0334 63.0925C49.661 63.6368 50.3246 64.2099 51.0242 64.8119C51.1152 64.8797 51.2157 64.9337 51.3224 64.9722C51.4778 65.0214 51.6403 65.0449 51.8033 65.0417C51.9714 65.0555 52.1401 65.0218 52.2901 64.9446C52.4401 64.8673 52.5654 64.7495 52.6518 64.6046C52.8098 64.3904 52.9055 64.1367 52.9286 63.8715C52.9343 63.6394 52.879 63.4098 52.7682 63.2058M46.2079 62.1521C45.6198 62.478 44.9565 62.6438 44.2843 62.633C43.5658 62.6645 42.8501 62.5235 42.1973 62.2215C41.7273 61.9776 41.3376 61.6032 41.0752 61.1433C40.8524 60.7261 40.7339 60.2612 40.73 59.7882C40.7105 59.1794 40.8964 58.5816 41.2579 58.0912C41.7028 57.6128 42.2867 57.2861 42.9272 57.1573L43.345 57.6328C44.0168 58.3987 44.7356 59.1467 45.5015 59.8769C46.0209 60.3803 46.5766 60.8975 47.1632 61.4361C46.875 61.7098 46.5558 61.949 46.2122 62.1489" fill="black"/>
<path id="Path 178141" d="M62.1071 48.9436C63.1199 48.9244 64.1237 49.136 65.0426 49.5623C65.8882 49.9661 66.6269 50.5632 67.1992 51.3053C67.8085 52.0634 68.2607 52.9353 68.5296 53.87C68.8416 54.8731 68.9962 55.9186 68.9881 56.969C69.0061 58.3638 68.7327 59.7469 68.1855 61.0299C67.6875 62.1894 66.8777 63.1882 65.8462 63.9152C64.745 64.6612 63.4354 65.0384 62.106 64.9924H56.625C56.4389 65.0014 56.253 64.9714 56.0792 64.9043C55.9054 64.8372 55.7475 64.7344 55.6158 64.6027C55.4841 64.471 55.3813 64.3131 55.3142 64.1393C55.2471 63.9655 55.2171 63.7796 55.2261 63.5935V50.3424C55.2203 50.1601 55.252 49.9785 55.3191 49.8089C55.3861 49.6392 55.4873 49.4851 55.6162 49.3561C55.7473 49.2221 55.9044 49.1164 56.0779 49.0455C56.2514 48.9745 56.4376 48.9398 56.625 48.9436H62.1071ZM61.8763 62.3571C62.7251 62.3937 63.5603 62.1341 64.239 61.623C64.8603 61.1046 65.3216 60.4205 65.5695 59.6503C66.0795 58.1251 66.1433 56.486 65.7533 54.9258C65.6189 54.3113 65.3698 53.7275 65.0191 53.2053C64.6937 52.7105 64.2538 52.3014 63.7368 52.0127C63.1656 51.7097 62.5258 51.5595 61.8795 51.5767H57.8657L58.0954 51.3704V62.6083L57.9576 62.3561L61.8763 62.3571Z" fill="black"/>
<path id="Path 178142" d="M83.4831 58.873C83.5062 60.0379 83.213 61.1872 82.6346 62.1986C82.1018 63.1298 81.3262 63.8988 80.3904 64.4235C79.4329 64.9651 78.3486 65.2421 77.2486 65.226C76.1415 65.2402 75.05 64.9635 74.0833 64.4235C73.1541 63.8902 72.3805 63.1232 71.8392 62.1986C71.275 61.1825 70.99 60.035 71.0131 58.873C70.9879 57.7178 71.2731 56.5771 71.8392 55.5698C72.3758 54.6366 73.1501 53.8623 74.0833 53.3257C75.0452 52.7714 76.1385 52.486 77.2486 52.4996C78.3515 52.4841 79.4378 52.7697 80.3904 53.3257C81.3301 53.8538 82.1065 54.6301 82.6346 55.5698C83.2148 56.5723 83.5083 57.715 83.4831 58.873ZM80.7303 58.873C80.7488 58.1695 80.5826 57.4735 80.2483 56.8543C79.962 56.2945 79.5249 55.8259 78.9863 55.5014C78.4625 55.1792 77.8582 55.012 77.2433 55.0195C76.6216 55.0141 76.0106 55.1809 75.4779 55.5014C74.9463 55.8345 74.5112 56.3009 74.2158 56.8543C73.8965 57.4782 73.7388 58.1723 73.7574 58.873C73.7425 59.5733 73.8999 60.2665 74.2158 60.8916C74.5162 61.4355 74.9507 61.8935 75.4779 62.2221C76.0106 62.5426 76.6216 62.7094 77.2433 62.7041C77.8582 62.7115 78.4625 62.5444 78.9863 62.2221C79.5204 61.9021 79.9569 61.4419 80.2483 60.8916C80.5791 60.2711 80.7451 59.576 80.7303 58.873Z" fill="black"/>
<path id="Path 178143" d="M94.7904 62.4775V63.3485C94.9465 63.1591 95.0418 62.9271 95.064 62.6827L94.7904 62.4775Z" fill="black"/>
<path id="Path 178144" d="M97.1531 52.8887C97.0243 52.7601 96.8705 52.6591 96.7012 52.592C96.532 52.5249 96.3508 52.4932 96.1688 52.4987C95.9845 52.4935 95.8012 52.5275 95.631 52.5984C95.4608 52.6694 95.3076 52.7756 95.1814 52.9101C95.0525 53.0394 94.9514 53.1936 94.8843 53.3634C94.8172 53.5333 94.7856 53.715 94.7914 53.8975V54.1689C94.5913 53.941 94.3682 53.7344 94.1256 53.5523C93.7098 53.2294 93.2452 52.9747 92.7492 52.7979C92.1841 52.5937 91.5868 52.4927 90.9859 52.4997C89.9701 52.4874 88.9731 52.7739 88.1188 53.3236C87.2472 53.8758 86.5412 54.6534 86.0756 55.5742C85.554 56.595 85.2936 57.7292 85.3179 58.8752C85.2976 60.0216 85.5577 61.1555 86.0756 62.1784C86.5541 63.0952 87.2663 63.8694 88.1402 64.4225C89.024 64.9601 90.0414 65.2378 91.0757 65.224C91.6077 65.2272 92.1358 65.1346 92.6349 64.9504C93.0859 64.7727 93.5102 64.5336 93.8959 64.2398C94.2177 64.0076 94.5036 63.7292 94.7444 63.4137C94.7604 63.3913 94.7775 63.3667 94.7914 63.3443V62.4733L95.065 62.6774C95.0428 62.9218 94.9475 63.1549 94.7914 63.3443V64.4685C94.8089 64.8277 94.7436 65.1861 94.6003 65.516C94.4571 65.8458 94.2398 66.1383 93.9653 66.3707C93.2214 66.8871 92.3216 67.1303 91.4188 67.0589C91.0382 67.0493 90.6607 66.9878 90.2967 66.8761C89.9071 66.7768 89.5238 66.654 89.149 66.5085C88.7974 66.3707 88.5441 66.2787 88.3913 66.2317C88.2368 66.1712 88.0712 66.1441 87.9054 66.1523C87.7396 66.1604 87.5775 66.2035 87.4295 66.2788C87.2637 66.3805 87.1196 66.514 87.0053 66.6715C86.8911 66.829 86.809 67.0075 86.7638 67.1967C86.7091 67.3505 86.6889 67.5145 86.7046 67.677C86.7203 67.8395 86.7715 67.9966 86.8546 68.1371C87.0885 68.4836 87.4247 68.7485 87.8164 68.8948C88.1457 69.0162 88.4827 69.1158 88.8252 69.1929C89.2676 69.2998 89.7346 69.3917 90.224 69.4665C90.6177 69.5351 91.016 69.574 91.4155 69.583C92.4429 69.59 93.4624 69.4033 94.4206 69.0326C95.3298 68.6952 96.1132 68.0863 96.6647 67.2886C97.2879 66.3462 97.5931 65.2292 97.5357 64.1009V53.8943C97.5427 53.7085 97.5117 53.5231 97.4446 53.3497C97.3776 53.1762 97.2758 53.0183 97.1456 52.8855M94.4644 60.8191C94.1921 61.3802 93.7716 61.8562 93.2483 62.1955C92.6994 62.541 92.0607 62.7168 91.4123 62.7009C90.7723 62.7144 90.1425 62.5386 89.6021 62.1955C89.0811 61.857 88.6621 61.383 88.3902 60.8244C88.0934 60.218 87.9437 59.5503 87.9532 58.8752C87.9424 58.1932 88.0921 57.5182 88.3902 56.9047C88.6634 56.3441 89.0837 55.8684 89.6063 55.5283C90.1468 55.1851 90.7766 55.0093 91.4166 55.0228C92.065 55.0069 92.7036 55.1827 93.2525 55.5283C93.7752 55.8684 94.1955 56.3441 94.4686 56.9047C94.7657 57.5184 94.9143 58.1935 94.9025 58.8752C94.913 59.55 94.7643 60.2178 94.4686 60.8244" fill="black"/>
<path id="Path 178145" d="M17.1879 69.7497C17.9814 69.6825 18.7738 69.8904 19.4321 70.3385C19.6791 70.5684 19.8709 70.8513 19.9928 71.1659C20.1148 71.4806 20.1639 71.8188 20.1363 72.1552C20.1649 72.4902 20.1143 72.8272 19.9886 73.1391C19.8629 73.4509 19.6657 73.7289 19.4128 73.9505C18.7631 74.3795 17.9889 74.58 17.2125 74.5201H16.0103V76.4992H14.8711V69.7529L17.1879 69.7497ZM17.3333 73.4899C17.791 73.5435 18.2514 73.4153 18.6156 73.133C18.8652 72.8375 18.9898 72.4565 18.9629 72.0707C18.982 71.8818 18.9522 71.6911 18.8762 71.517C18.8002 71.3429 18.6806 71.1914 18.5291 71.0769C18.1118 70.8536 17.6397 70.7532 17.1676 70.7873H16.0103V73.4803L17.3333 73.4899Z" fill="#FF6600"/>
<path id="Path 178146" d="M29.1064 69.7485V70.8172H25.5073V72.6028H28.741V73.6159H25.5073V75.4208H29.2229V76.4895H24.3681V69.7432L29.1064 69.7485Z" fill="#FF6600"/>
<path id="Path 178147" d="M36.1232 70.79V76.4933H34.984V70.79H32.9376V69.748H38.1685V70.79H36.1232Z" fill="#FF6600"/>
<path id="Path 178148" d="M50.9184 75.462C51.2661 75.4706 51.6115 75.4046 51.9315 75.2686C52.2584 75.1013 52.5579 74.8851 52.8196 74.6274L53.5537 75.3755C53.2327 75.7519 52.8331 76.0533 52.3829 76.2585C51.9327 76.4636 51.443 76.5675 50.9484 76.5627C50.4808 76.5768 50.0152 76.4969 49.5791 76.3279C49.143 76.1588 48.7452 75.904 48.4093 75.5785C47.762 74.9062 47.402 74.0083 47.4056 73.0751C47.4092 72.1418 47.7761 71.2467 48.4285 70.5794C48.7723 70.247 49.1792 69.9869 49.6252 69.8146C50.0713 69.6422 50.5474 69.5611 51.0253 69.5759C51.5208 69.5661 52.0124 69.6647 52.4657 69.8648C52.9191 70.0649 53.3232 70.3617 53.6499 70.7344L52.9264 71.5262C52.6621 71.2573 52.3515 71.0383 52.0095 70.8797C51.691 70.751 51.3495 70.6888 51.0061 70.6969C50.69 70.6886 50.3754 70.7432 50.0806 70.8575C49.7858 70.9718 49.5166 71.1435 49.2888 71.3627C49.0598 71.5787 48.8794 71.841 48.7596 72.1321C48.6399 72.4233 48.5834 72.7365 48.5941 73.0512C48.5863 73.3688 48.643 73.6848 48.7607 73.98C48.8785 74.2751 49.0548 74.5434 49.2791 74.7685C49.492 74.9877 49.7471 75.1614 50.0291 75.2792C50.311 75.3969 50.614 75.4562 50.9195 75.4535" fill="#FF6600"/>
<path id="Path 178149" d="M58.7943 74.9598L58.1189 76.4944H56.9028L59.8758 69.748H61.0919L64.0648 76.4944H62.8466L62.1712 74.9598H58.7943ZM61.7085 73.9082L60.4828 71.1298L59.257 73.9082H61.7085Z" fill="#FF6600"/>
<path id="Path 178150" d="M73.2797 71.9405C73.3298 72.4078 73.2101 72.8775 72.9424 73.2638C72.6748 73.6501 72.2772 73.9273 71.8221 74.0446L73.5886 76.4961H72.1416L70.5301 74.2284H69.034V76.4961H67.8917V69.7498H70.4008C71.1743 69.6831 71.9488 69.8658 72.6108 70.2713C72.8449 70.4778 73.0272 70.7365 73.1428 71.0264C73.2585 71.3164 73.3043 71.6295 73.2765 71.9405M70.4564 73.1951C70.9149 73.2431 71.3763 73.1379 71.7687 72.8958C71.8931 72.7719 71.9888 72.622 72.0488 72.4569C72.1088 72.2918 72.1318 72.1155 72.116 71.9405C72.137 71.7715 72.1154 71.5999 72.053 71.4414C71.9907 71.2829 71.8896 71.1426 71.7591 71.0332C71.3667 70.8309 70.925 70.7439 70.4852 70.7821H69.0372V73.1951H70.4564Z" fill="#FF6600"/>
<path id="Path 178151" d="M82.5555 69.7485V70.8172H78.9553V72.6028H82.189V73.6159H78.9553V75.4208H82.6709V76.4895H77.8161V69.7432L82.5555 69.7485Z" fill="#FF6600"/>
</g>
</g>
</g>
</g>
</svg>
