<svg width="119" height="106" viewBox="0 0 119 106" fill="none" xmlns="http://www.w3.org/2000/svg">
<g id="Layer_1" clip-path="url(#clip0_2016_143)">
<path id="Vector" d="M51.0768 4.66145C50.9751 4.02153 50.8372 3.5416 50.6266 3.21437C50.4523 2.95259 50.1764 2.76352 49.748 2.62536C49.2832 2.47993 48.7967 2.53083 48.3901 2.74171C47.9834 2.95259 47.6567 3.31618 47.5114 3.78157C47.1484 4.9305 47.388 6.35576 47.9326 7.91918C48.4046 9.28627 49.1235 10.7624 49.8859 12.2531C51.3745 11.4751 52.805 10.6824 53.9813 9.84619C55.3247 8.88632 56.3486 7.86101 56.7116 6.71207C56.8569 6.24668 56.806 5.75948 56.5955 5.35226C56.3849 4.94504 56.0218 4.61782 55.5571 4.47238C55.1287 4.33422 54.7946 4.33422 54.4969 4.45056L54.4243 4.47238C54.0757 4.62509 53.6982 4.94504 53.2552 5.40316C52.7687 5.90491 51.9627 5.91945 51.4616 5.42498C51.2438 5.2141 51.1131 4.93777 51.084 4.65417L51.0768 4.66145ZM52.7324 1.81093C52.8413 1.97818 52.943 2.1527 53.0301 2.34176C53.1681 2.26177 53.3133 2.18906 53.4585 2.13088C53.4948 2.10907 53.5384 2.09452 53.582 2.07998C54.4243 1.76003 55.2884 1.73821 56.3123 2.06544C57.4523 2.42902 58.3309 3.21437 58.8392 4.19605C59.3475 5.17774 59.4782 6.34849 59.1152 7.49015C58.556 9.24991 57.1982 10.6752 55.4409 11.9259C53.8143 13.0894 51.861 14.1002 49.9077 15.1109C49.2832 15.4309 48.5208 15.1836 48.2013 14.5655C47.1919 12.6094 46.1826 10.6606 45.5218 8.76997C44.8102 6.73389 44.527 4.78506 45.0861 3.02531C45.4492 1.88364 46.2334 1.00377 47.2137 0.494745C48.194 -0.0142764 49.3631 -0.145168 50.5031 0.218419C51.527 0.545647 52.2314 1.06194 52.7324 1.8182V1.81093Z" fill="#D03531"/>
<path id="Vector_2" d="M89.4533 51.2799C89.4969 51.2799 89.5332 51.2799 89.5768 51.2872C93.2438 51.578 96.8019 51.4908 99.8734 51.1636C99.9896 51.1345 100.113 51.1199 100.237 51.1199C100.672 51.069 101.101 51.0108 101.515 50.9527C104.216 48.2621 105.516 43.9718 106.118 40.9831C102.48 39.7615 101.957 36.831 102.139 34.6495C98.7262 34.5986 92.6411 33.675 87.6961 32.3443C83.2593 31.1518 79.5996 29.5083 79.0477 27.625C78.9315 27.2177 78.8371 26.7742 78.721 26.2579C78.4378 24.949 78.0384 23.1092 77.2542 21.4222C75.5477 17.7354 71.721 14.5359 62.1141 19.008C56.6826 21.5313 53.0301 25.1962 50.5757 29.4647C55.0778 38.0163 61.5187 50.9745 60.1898 60.8786C59.6235 65.1035 57.4232 67.9758 54.7873 69.2774C53.5674 69.881 52.2604 70.1428 50.9678 70.0555C49.6681 69.9682 48.3828 69.5247 47.2427 68.703C44.7884 66.9432 42.9585 63.4528 42.9585 58.0571C42.9585 50.8727 43.0965 42.6774 45.3838 35.1948C45.9938 33.2097 46.749 31.2826 47.693 29.4429C44.2075 22.9929 40.8309 18.1208 39.0519 15.6848L36.1183 22.6947L36.1037 22.7165C35.8205 23.3565 35.0726 23.6473 34.4336 23.3637C34.4336 23.3637 31.9284 22.2293 29.6556 22.3166C27.3465 22.4111 24.3766 23.7782 24.3693 23.7782C23.7884 24.04 23.084 23.8291 22.7573 23.2619L19.25 17.2918C18.2407 19.7206 16.6214 24.5054 15.2635 32.6279C14.9513 34.4895 14.6826 36.4019 14.4502 38.3217C17.1297 38.1762 19.054 38.3944 19.0685 38.3944C19.7656 38.4671 20.2666 39.0925 20.194 39.7906C20.1214 40.4887 19.4969 40.9904 18.7998 40.9177C18.7925 40.9177 16.8174 40.6995 14.1598 40.8741C13.9492 42.9029 13.7676 44.9099 13.6297 46.8223C16.0332 45.5934 17.8849 44.8735 17.8994 44.8662C18.5529 44.6117 19.2863 44.9317 19.5405 45.5861C19.7946 46.2406 19.4751 46.975 18.8216 47.2368C18.8071 47.2368 16.3019 48.2185 13.4264 49.8037C13.0125 56.4719 12.9762 61.4458 12.9762 61.4749C12.9762 62.173 12.4025 62.7401 11.7054 62.7401C11.0083 62.7401 10.4419 62.1657 10.4419 61.4676C10.4419 61.4458 10.471 57.2427 10.7905 51.3817C9.66495 52.1234 8.57573 52.9379 7.65354 53.7959C7.14524 54.2759 6.33922 54.254 5.85997 53.7377C5.38071 53.2287 5.4025 52.4216 5.91806 51.9416C7.3776 50.5673 9.20022 49.3238 10.9793 48.2767C11.1318 46.0224 11.3278 43.6155 11.5747 41.1649C9.79565 41.4485 7.90042 41.9503 6.18673 42.7938C5.55499 43.0992 4.7998 42.8374 4.49482 42.2121C4.18984 41.5794 4.45125 40.8232 5.07573 40.5177C7.25416 39.4488 9.66495 38.8671 11.8579 38.5689C12.112 36.431 12.4025 34.2931 12.751 32.2207C14.9876 18.8698 18.0446 13.9614 18.0519 13.9468C18.4149 13.3506 19.1992 13.1615 19.7946 13.5251C19.9979 13.6487 20.1577 13.8232 20.2593 14.0196L24.3766 21.0295C25.6037 20.5568 27.7023 19.8588 29.5539 19.786C31.2967 19.7133 33.0975 20.1933 34.2448 20.5859L37.556 12.667C37.8247 12.0198 38.5654 11.7144 39.2189 11.9835C39.4367 12.078 39.6183 12.2162 39.749 12.398C40.0903 12.827 44.4326 18.3462 49.1743 26.876C51.8392 22.7529 55.6369 19.2188 61.0539 16.6956C72.5778 11.3363 77.3485 15.5684 79.5633 20.3532C80.471 22.3021 80.8994 24.2945 81.2044 25.7198C81.3133 26.2361 81.4149 26.6796 81.4803 26.9196C81.7344 27.7995 84.6826 28.9048 88.3496 29.8865C93.527 31.2826 99.9098 32.2134 102.872 32.1044C104.884 32.0316 106.663 31.7844 108.115 31.5735C110.976 31.1736 112.821 30.9118 113.743 32.4534C113.786 32.5188 113.815 32.5843 113.844 32.6425C113.866 32.6861 113.881 32.7224 113.895 32.7661C114.331 33.8641 114.861 37.42 114.527 41.0995C114.171 45.0335 112.864 49.2511 109.517 51.2654C109.299 51.3962 109.074 51.5199 108.827 51.6362C107.374 52.3198 105.16 52.9306 102.473 53.3523C102.429 53.3669 102.379 53.3742 102.335 53.3814C103.381 55.4393 103.301 57.17 102.64 58.508C102.262 59.2643 101.696 59.8824 101.035 60.3477C100.396 60.7986 99.6774 61.104 98.9658 61.2567C97.3029 61.613 95.6183 61.1767 94.8703 59.8896C94.2241 58.7771 93.1058 57.41 91.9367 56.2174C90.8766 55.1339 89.8019 54.2104 89.0539 53.7886C87.7977 53.6796 86.527 53.5341 85.2708 53.3378C78.416 52.2616 71.6629 49.7674 67.1681 45.0698C66.6815 44.5608 66.6961 43.7609 67.2044 43.2737C67.7127 42.7865 68.5114 42.8011 68.9979 43.3101C73.0643 47.564 79.2946 49.8401 85.6629 50.8363C86.9336 51.0327 88.2044 51.1854 89.4606 51.2872L89.4533 51.2799ZM49.167 32.2498C48.6442 33.4496 48.194 34.6785 47.8091 35.9365C45.6307 43.0483 45.5 51.0399 45.5 58.0571C45.5 62.5293 46.8724 65.3143 48.7096 66.6305C49.4575 67.1686 50.2925 67.4595 51.1349 67.5177C51.9844 67.5758 52.8558 67.3941 53.6691 66.9941C55.6079 66.0415 57.2344 63.8309 57.6774 60.5368C58.832 51.9271 52.9284 39.6524 49.167 32.2498ZM108.602 41.4849C108.086 43.9936 107.113 47.3532 105.32 50.1891C106.278 49.9274 107.099 49.6438 107.752 49.3383C107.905 49.2656 108.064 49.1856 108.217 49.0911C110.555 47.6877 111.579 44.5681 111.942 41.4922C110.678 41.5867 109.567 41.5794 108.602 41.4922V41.4849ZM92.3506 43.4264C93.1566 43.4264 93.8102 44.0809 93.8102 44.888C93.8102 45.6952 93.1566 46.3497 92.3506 46.3497C91.5446 46.3497 90.8911 45.6952 90.8911 44.888C90.8911 44.0809 91.5446 43.4264 92.3506 43.4264ZM86.8247 43.4264C87.6307 43.4264 88.2842 44.0809 88.2842 44.888C88.2842 45.6952 87.6307 46.3497 86.8247 46.3497C86.0187 46.3497 85.3652 45.6952 85.3652 44.888C85.3652 44.0809 86.0187 43.4264 86.8247 43.4264ZM95.6401 38.678C96.4461 38.678 97.0996 39.3324 97.0996 40.1396C97.0996 40.9468 96.4461 41.6012 95.6401 41.6012C94.834 41.6012 94.1805 40.9468 94.1805 40.1396C94.1805 39.3324 94.834 38.678 95.6401 38.678ZM89.6349 38.678C90.4409 38.678 91.0944 39.3324 91.0944 40.1396C91.0944 40.9468 90.4409 41.6012 89.6349 41.6012C88.8288 41.6012 88.1753 40.9468 88.1753 40.1396C88.1753 39.3324 88.8288 38.678 89.6349 38.678ZM83.7822 38.678C84.5882 38.678 85.2417 39.3324 85.2417 40.1396C85.2417 40.9468 84.5882 41.6012 83.7822 41.6012C82.9761 41.6012 82.3226 40.9468 82.3226 40.1396C82.3226 39.3324 82.9761 38.678 83.7822 38.678ZM73.8413 24.8763C75.1411 24.8763 76.194 26.7451 76.194 29.0575C76.194 31.3699 75.1411 33.2387 73.8413 33.2387C72.5415 33.2387 71.4886 31.3699 71.4886 29.0575C71.4886 26.7451 72.5415 24.8763 73.8413 24.8763ZM64.9969 25.0799C66.2967 25.0799 67.3496 26.9487 67.3496 29.2611C67.3496 31.5735 66.2967 33.4423 64.9969 33.4423C63.6971 33.4423 62.6442 31.5735 62.6442 29.2611C62.6442 26.9487 63.6971 25.0799 64.9969 25.0799ZM93.3019 53.985C93.4544 54.1304 93.5996 54.2758 93.7448 54.4286C95.0591 55.7666 96.3226 57.3227 97.0633 58.5953C97.2158 58.857 97.7894 58.8934 98.4212 58.7552C98.8278 58.668 99.2272 58.5007 99.5757 58.2535C99.9025 58.0281 100.178 57.7299 100.36 57.3591C100.767 56.5446 100.679 55.3303 99.5902 53.7087C97.6297 53.905 95.5021 53.9995 93.3019 53.9777V53.985Z" fill="black"/>
<path id="Vector_3" d="M24.7396 41.5729C24.7396 40.8675 25.306 40.3003 26.0104 40.3003C26.7147 40.3003 27.2811 40.8675 27.2811 41.5729C27.2811 41.5802 27.2739 45.0488 29.0602 44.8088C31.0135 44.5398 30.5415 41.4202 30.5415 41.4129C30.4398 40.7148 30.9263 40.0749 31.6234 39.9731C32.2116 39.8859 32.7635 40.2276 32.9813 40.7512C32.9813 40.7512 34.1432 43.7544 36.4523 43.6163C38.2386 43.5072 37.6141 40.1331 37.6141 40.1185C37.4979 39.4277 37.9627 38.766 38.6525 38.6497C39.3423 38.5333 40.0031 38.9987 40.1193 39.6895C40.1193 39.7041 41.2884 45.8705 36.6048 46.1468C34.9419 46.2486 33.6566 45.5578 32.7054 44.6997C32.2407 45.9359 31.2894 47.0631 29.4015 47.3248C24.7178 47.9647 24.7396 41.5947 24.7396 41.5729Z" fill="black"/>
<path id="Vector_4" fill-rule="evenodd" clip-rule="evenodd" d="M24.0934 31.2758C25.11 31.174 26.0539 32.3157 26.2064 33.8282C26.3589 35.3407 25.6618 36.6497 24.6525 36.7515C23.6359 36.8533 22.6919 35.7116 22.5394 34.1991C22.3869 32.6866 23.084 31.3776 24.0934 31.2758Z" fill="black"/>
<path id="Vector_5" fill-rule="evenodd" clip-rule="evenodd" d="M37.4906 29.2544C38.5072 29.1526 39.4512 30.2942 39.6037 31.8067C39.7562 33.3193 39.0591 34.6282 38.0498 34.73C37.0332 34.8318 36.0892 33.6901 35.9367 32.1776C35.7842 30.6651 36.4813 29.3562 37.4906 29.2544Z" fill="black"/>
<path id="Vector_6" d="M24.4564 100.496V105.949H25.6836V104.393H26.7655C28.1525 104.393 28.944 103.659 28.944 102.393C28.944 101.128 28.1525 100.503 26.7655 100.503H24.4564V100.496ZM25.6836 101.514H26.7002C27.3828 101.514 27.7749 101.819 27.7749 102.423C27.7749 103.026 27.3828 103.361 26.7002 103.361H25.6836V101.514ZM38.8776 105.942H40.2718L39.1099 104.146C39.7707 103.833 40.1265 103.23 40.1265 102.386C40.1265 101.179 39.3205 100.496 37.8973 100.496H35.5301V105.949H36.7572V104.393H38.0062L38.8703 105.949L38.8776 105.942ZM36.7645 103.361V101.514H37.8973C38.5726 101.514 38.9647 101.819 38.9647 102.423C38.9647 103.026 38.5726 103.361 37.8973 103.361H36.7645ZM51.1131 101.514V100.496H46.9668V105.949H51.2002V104.931H48.2012V103.724H50.8299V102.706H48.2012V101.521H51.1203L51.1131 101.514ZM63.8714 105.942V100.488H62.499L60.9232 103.819L59.3402 100.488H57.9606V105.942H59.0716V102.263L60.5166 105.382H61.3153L62.7604 102.263V105.942H63.8641H63.8714ZM72.1131 105.942V100.488H70.8859V105.942H72.1131ZM83.9346 100.496H82.7075V103.666C82.7075 104.451 82.2282 104.924 81.4948 104.924C80.7614 104.924 80.2531 104.451 80.2531 103.666V100.496H79.0259V103.666C79.0259 105.106 79.9917 106 81.5021 106C83.0124 106 83.9419 105.106 83.9419 103.666V100.496H83.9346ZM96.7438 105.942V100.488H95.3714L93.7956 103.819L92.2126 100.488H90.833V105.942H91.944V102.263L93.389 105.382H94.1878L95.6328 102.263V105.942H96.7365H96.7438Z" fill="#D03531"/>
<path id="Vector_7" d="M0 77.7498V90.868H2.95539V87.1231H5.55498C8.88797 87.1231 10.7905 85.3633 10.7905 82.3092C10.7905 79.2551 8.8807 77.7571 5.55498 77.7571H0V77.7498ZM2.95539 80.2077H5.40975C7.05809 80.2077 7.99481 80.9348 7.99481 82.3964C7.99481 83.8581 7.05809 84.6434 5.40975 84.6434H2.95539V80.2004V80.2077ZM28.2905 80.2077V77.7498H18.3205V90.868H28.501V88.4102H21.2759V85.5087H27.6006V83.0509H21.2759V80.2004H28.2905V80.2077ZM46.0954 80.2658V77.7571H35.1525V80.2658H39.139V90.868H42.0944V80.2658H46.0954ZM56.2759 88.2793V77.7498H53.3205V90.868H61.889V88.2793H56.2759ZM75.3734 77.6553C71.3724 77.6553 68.3371 80.484 68.3371 84.3089C68.3371 88.1338 71.3651 90.9989 75.3734 90.9989C79.3817 90.9989 82.4097 88.0975 82.4097 84.3089C82.4097 80.5203 79.3817 77.6553 75.3734 77.6553ZM75.4097 80.244C77.5954 80.244 79.3745 82.0038 79.3745 84.3089C79.3745 86.614 77.5954 88.4102 75.4097 88.4102C73.2241 88.4102 71.3651 86.614 71.3651 84.3089C71.3651 82.0038 73.2023 80.244 75.4097 80.244ZM96.5477 90.868L101.747 77.7498H98.6971L95.1027 87.6394L91.5301 77.7498H88.3496L93.4979 90.868H96.5477ZM118.797 80.2077V77.7498H108.827V90.868H119.007V88.4102H111.782V85.5087H118.107V83.0509H111.782V80.2004H118.797V80.2077Z" fill="black"/>
</g>
<defs>
<clipPath id="clip0_2016_143">
<rect width="119" height="106" fill="white"/>
</clipPath>
</defs>
</svg>
