<svg width="111" height="89" viewBox="0 0 111 89" fill="none" xmlns="http://www.w3.org/2000/svg">
<g id="Group 25162">
<g id="Clip path group">
<mask id="mask0_2016_40" style="mask-type:luminance" maskUnits="userSpaceOnUse" x="0" y="0" width="111" height="89">
<g id="clip-path-3">
<path id="Rectangle 8718" d="M110.364 0H0V88.4064H110.364V0Z" fill="white"/>
</g>
</mask>
<g mask="url(#mask0_2016_40)">
<g id="Group 25161">
<path id="Path 178176" fill-rule="evenodd" clip-rule="evenodd" d="M96.0001 10.0457C96.9454 10.8812 97.8121 11.8016 98.5894 12.7953C98.9847 9.6529 98.7563 6.46341 97.9172 3.40942L92.3603 3.10059C91.198 3.87166 90.2012 4.86672 89.428 6.02759C91.8315 6.98172 94.0537 8.34076 95.998 10.0457" fill="white"/>
<path id="Path 178177" fill-rule="evenodd" clip-rule="evenodd" d="M64.5212 10.0458C66.4909 8.31676 68.7457 6.94275 71.1853 5.98493C70.4171 4.84084 69.4299 3.8602 68.2807 3.09961L62.7238 3.40845C61.8962 6.42118 61.661 9.56588 62.0313 12.6682C62.7825 11.7228 63.6149 10.845 64.5191 10.0447" fill="white"/>
<path id="Path 178178" fill-rule="evenodd" clip-rule="evenodd" d="M83.8594 71.1959C83.8541 71.2066 81.7681 74.8293 81.799 76.99C82.0907 78.692 82.649 80.3372 83.4533 81.8652C84.0849 83.2758 84.5721 84.3615 84.0945 84.8649C83.963 85.0042 83.7843 85.0895 83.5933 85.1042C83.0679 85.0357 82.5889 84.7679 82.2554 84.3562C81.7713 83.8731 81.324 83.3544 80.9174 82.8045C79.6244 81.0829 78.2896 78.6048 78.4809 76.5252C78.7211 74.273 79.2602 72.0629 80.0839 69.9531C80.1525 69.7878 80.28 69.654 80.4417 69.5774C80.6034 69.5008 80.7878 69.4869 80.9591 69.5384L83.4106 70.1347C83.5029 70.1566 83.59 70.1964 83.6668 70.252C83.7437 70.3076 83.8088 70.3778 83.8584 70.4587C83.9081 70.5395 83.9413 70.6293 83.9561 70.723C83.971 70.8167 83.9671 70.9124 83.9449 71.0046C83.9295 71.0699 83.9047 71.1325 83.8711 71.1905" fill="#3F494F"/>
<path id="Path 178179" fill-rule="evenodd" clip-rule="evenodd" d="M80.3606 77.0073C80.5642 75.0085 81.1767 73.073 82.1602 71.321L81.192 71.0859C80.5418 72.8856 80.1113 74.7571 79.9097 76.66C79.981 78.3838 80.596 80.0409 81.6665 81.394C80.9805 80.0202 80.5379 78.5377 80.3585 77.0126" fill="white"/>
<path id="Path 178180" fill-rule="evenodd" clip-rule="evenodd" d="M81.6772 79.4873C82.4904 81.7047 83.8241 84.106 83.574 84.3678C83.324 84.6296 81.0905 82.3267 79.9097 79.7619C80.4922 79.6298 81.0831 79.5381 81.6783 79.4873" fill="#3F494F"/>
<path id="Path 178181" fill-rule="evenodd" clip-rule="evenodd" d="M80.9954 71.7732C88.494 71.7732 94.6088 65.3357 94.6088 57.4427C94.6088 49.5498 88.494 43.1123 80.9954 43.1123C73.4967 43.1123 67.382 49.5498 67.382 57.4427C67.382 65.3357 73.4978 71.7732 80.9954 71.7732Z" fill="white"/>
<path id="Path 178182" fill-rule="evenodd" clip-rule="evenodd" d="M80.9954 71.0494C82.7036 71.0436 84.3926 70.6883 85.9584 70.0053C87.5242 69.3224 88.9337 68.3263 90.1002 67.0783C92.5341 64.4599 93.8871 61.0174 93.8871 57.4424C93.8871 53.8675 92.5341 50.4249 90.1002 47.8065C88.9377 46.5536 87.5292 45.5542 85.9627 44.8707C84.3962 44.1872 82.7055 43.8345 80.9964 43.8345C79.2873 43.8345 77.5967 44.1872 76.0302 44.8707C74.4637 45.5542 73.0552 46.5536 71.8927 47.8065C69.4588 50.4249 68.1058 53.8675 68.1058 57.4424C68.1058 61.0174 69.4588 64.4599 71.8927 67.0783C73.0589 68.3261 74.4681 69.322 76.0335 70.0049C77.5989 70.6878 79.2875 71.0433 80.9954 71.0494ZM91.1475 68.0722C89.8507 69.4673 88.2803 70.5801 86.5342 71.341C84.7881 72.102 82.9038 72.4947 80.9991 72.4947C79.0944 72.4947 77.2102 72.102 75.4641 71.341C73.7179 70.5801 72.1475 69.4673 70.8508 68.0722C68.1597 65.1868 66.6632 61.388 66.6632 57.4424C66.6632 53.4968 68.1597 49.6981 70.8508 46.8127C72.1474 45.4174 73.7178 44.3045 75.464 43.5435C77.2101 42.7824 79.0944 42.3896 80.9991 42.3896C82.9039 42.3896 84.7881 42.7824 86.5343 43.5435C88.2804 44.3045 89.8508 45.4174 91.1475 46.8127C93.8383 49.6982 95.3346 53.4969 95.3346 57.4424C95.3346 61.3879 93.8383 65.1866 91.1475 68.0722Z" fill="#3F494F"/>
<path id="Path 178183" fill-rule="evenodd" clip-rule="evenodd" d="M28.7678 71.7732C36.2654 71.7732 42.3802 65.3357 42.3802 57.4427C42.3802 49.5498 36.2654 43.1123 28.7678 43.1123C21.2703 43.1123 15.1534 49.5508 15.1534 57.4438C15.1534 65.3368 21.2692 71.7743 28.7668 71.7743" fill="#FFCC00"/>
<path id="Path 178184" fill-rule="evenodd" clip-rule="evenodd" d="M28.7689 71.0493C30.4768 71.0433 32.1654 70.6879 33.7308 70.0049C35.2962 69.322 36.7054 68.326 37.8716 67.0783C40.3055 64.4598 41.6584 61.0173 41.6584 57.4423C41.6584 53.8674 40.3055 50.4249 37.8716 47.8064C36.7091 46.5535 35.3006 45.5541 33.7341 44.8706C32.1676 44.1872 30.4769 43.8344 28.7678 43.8344C27.0587 43.8344 25.3681 44.1872 23.8016 44.8706C22.2351 45.5541 20.8266 46.5535 19.6641 47.8064C17.2297 50.4246 15.8765 53.8672 15.8765 57.4423C15.8765 61.0175 17.2297 64.4601 19.6641 67.0783C20.8305 68.326 22.2399 69.322 23.8055 70.0049C25.3711 70.6878 27.0598 71.0432 28.7678 71.0493M38.9199 68.0721C37.6233 69.4672 36.0529 70.58 34.3069 71.3409C32.5609 72.1018 30.6767 72.4946 28.7721 72.4946C26.8675 72.4946 24.9833 72.1018 23.2373 71.3409C21.4913 70.58 19.9209 69.4672 18.6243 68.0721C15.9325 65.187 14.4355 61.3882 14.4355 57.4423C14.4355 53.4965 15.9325 49.6977 18.6243 46.8126C19.9209 45.4173 21.4912 44.3045 23.2372 43.5434C24.9832 42.7824 26.8675 42.3896 28.7721 42.3896C30.6768 42.3896 32.561 42.7824 34.307 43.5434C36.053 44.3045 37.6234 45.4173 38.9199 46.8126C41.6112 49.6979 43.1079 53.4967 43.1079 57.4423C43.1079 61.388 41.6112 65.1868 38.9199 68.0721Z" fill="#3F494F"/>
<path id="Path 178185" fill-rule="evenodd" clip-rule="evenodd" d="M26.3185 88.3395C26.2316 88.3842 26.1366 88.4107 26.0391 88.4177C25.9417 88.4247 25.8438 88.4118 25.7515 88.38C25.6591 88.3482 25.5741 88.298 25.5017 88.2325C25.4292 88.167 25.3707 88.0875 25.3297 87.9988C25.2888 87.9101 25.2662 87.814 25.2633 87.7164C25.2604 87.6187 25.2773 87.5215 25.313 87.4305C25.3487 87.3396 25.4024 87.2568 25.4708 87.1871C25.5393 87.1174 25.6212 87.0623 25.7115 87.0251C30.701 84.7158 31.1862 83.3105 30.5525 81.9416C30.3003 81.4437 30.0117 80.9651 29.689 80.5096C28.2186 78.3061 26.5087 75.7435 29.9391 71.5747C29.9978 71.4967 30.0716 71.4314 30.1562 71.3827C30.2409 71.3339 30.3345 71.3028 30.4314 71.2912C30.5283 71.2797 30.6266 71.2878 30.7203 71.3152C30.814 71.3426 30.9012 71.3887 30.9767 71.4507C31.0521 71.5127 31.1142 71.5893 31.1592 71.676C31.2042 71.7626 31.2312 71.8574 31.2386 71.9548C31.246 72.0522 31.2336 72.15 31.2022 72.2424C31.1708 72.3349 31.121 72.42 31.0558 72.4927C28.3073 75.8322 29.6965 77.9139 30.8902 79.7039C31.257 80.2219 31.5838 80.767 31.868 81.3346C32.8565 83.4719 32.4162 85.5183 26.3185 88.3406" fill="#3F494F"/>
<path id="Path 178186" fill-rule="evenodd" clip-rule="evenodd" d="M6.62562 39.1849H103.744C105.499 39.1894 107.182 39.8889 108.424 41.1304C109.665 42.372 110.365 44.0546 110.369 45.8104V59.5649C110.365 61.3208 109.665 63.0035 108.424 64.2452C107.182 65.4868 105.499 66.1862 103.744 66.1904H6.62562C4.86972 66.1862 3.18694 65.4868 1.94532 64.2452C0.703701 63.0035 0.00429385 61.3208 6.10352e-05 59.5649L6.10352e-05 45.8072C0.00457474 44.0514 0.704072 42.3688 1.94563 41.1272C3.18719 39.8857 4.8698 39.1862 6.62562 39.1816" fill="#3F494F"/>
<path id="Path 178187" fill-rule="evenodd" clip-rule="evenodd" d="M80.2613 43.1517C92.1488 43.1517 101.848 34.5812 101.848 24.0743C101.848 13.5675 92.152 4.99805 80.2613 4.99805C68.3705 4.99805 58.6747 13.5675 58.6747 24.0743C58.6747 34.5812 68.3705 43.1517 80.2613 43.1517Z" fill="white"/>
<path id="Path 178188" d="M62.9856 12.6598C62.8091 11.3966 62.7554 10.1193 62.8253 8.84578C62.8661 7.31764 63.0667 5.79795 63.4238 4.31155L68.0371 4.05507C69.1051 4.85246 70.0158 5.84135 70.7226 6.97139C71.3039 6.71705 71.8995 6.48552 72.5093 6.27677C71.5337 4.58919 70.1545 3.17003 68.4955 2.14648L62.1382 2.49914C61.0118 4.17049 60.3696 11.7696 61.5526 14.5854C61.9892 13.915 62.4675 13.2725 62.9846 12.6619" fill="#3F494F"/>
<path id="Path 178189" d="M89.8929 7.016C90.605 5.86882 91.5256 4.86516 92.6072 4.05693L97.2205 4.31341C97.5782 5.79972 97.7792 7.31944 97.82 8.84764C97.8942 10.1634 97.8334 11.4833 97.6384 12.7866C98.1445 13.3939 98.6124 14.0321 99.0394 14.6974C100.29 11.9788 99.6464 4.19693 98.5051 2.50313L92.1477 2.14941C90.4774 3.18193 89.0906 4.61428 88.1125 6.31711C88.7195 6.53083 89.3133 6.76451 89.894 7.01813" fill="#3F494F"/>
<path id="Path 178190" fill-rule="evenodd" clip-rule="evenodd" d="M80.2612 33.1458C83.1466 33.1458 85.5061 31.5108 85.5061 29.5071C85.5061 27.5034 83.1551 25.8662 80.2612 25.8662C77.3674 25.8662 75.0164 27.5023 75.0164 29.5071C75.0164 31.5118 77.3674 33.1458 80.2612 33.1458Z" fill="#3F494F"/>
<path id="Path 178191" fill-rule="evenodd" clip-rule="evenodd" d="M83.1733 24.0005C84.2334 24.0005 85.0969 22.2512 85.0969 20.1043C85.0969 17.9574 84.2323 16.208 83.1733 16.208C82.1143 16.208 81.2498 17.9584 81.2498 20.1043C81.2498 22.2501 82.1153 24.0005 83.1733 24.0005Z" fill="#3F494F"/>
<path id="Path 178192" fill-rule="evenodd" clip-rule="evenodd" d="M77.3502 24.0005C78.4103 24.0005 79.2737 22.2512 79.2737 20.1043C79.2737 17.9574 78.4082 16.208 77.3502 16.208C76.2923 16.208 75.4266 17.9584 75.4266 20.1043C75.4266 22.2501 76.2912 24.0005 77.3502 24.0005Z" fill="#3F494F"/>
<path id="Path 178193" fill-rule="evenodd" clip-rule="evenodd" d="M88.6586 32.5396C88.6723 32.4838 88.698 32.4316 88.7339 32.3866C88.7697 32.3416 88.8149 32.3049 88.8662 32.279C88.9176 32.2531 88.974 32.2386 89.0315 32.2366C89.089 32.2345 89.1462 32.245 89.1993 32.2671C89.3081 32.3287 89.3914 32.4272 89.4339 32.5448C89.4764 32.6624 89.4755 32.7914 89.4312 32.9083C88.9945 34.2987 88.11 35.5056 86.9156 36.3408C86.1697 36.8498 85.2931 37.1332 84.3904 37.1572C83.4993 37.1717 82.6276 36.8968 81.9059 36.3739C80.8987 35.6017 80.1756 34.5175 79.8498 33.2909C79.8098 33.1739 79.8132 33.0464 79.8593 32.9317C79.9054 32.817 79.9911 32.7226 80.1009 32.6657C80.1552 32.6456 80.2132 32.6374 80.271 32.6417C80.3288 32.6461 80.3849 32.6628 80.4357 32.6908C80.4864 32.7188 80.5304 32.7574 80.5649 32.804C80.5993 32.8505 80.6233 32.904 80.6352 32.9607C80.9048 33.9852 81.506 34.8915 82.345 35.5382C82.9382 35.967 83.6544 36.192 84.3862 36.1794C85.1462 36.1588 85.8842 35.9195 86.5117 35.4902C87.5346 34.7721 88.2913 33.7358 88.6639 32.5429" fill="#3F494F"/>
<path id="Path 178194" fill-rule="evenodd" clip-rule="evenodd" d="M71.0817 32.1807C71.0443 32.0628 71.0507 31.9354 71.0998 31.8219C71.1489 31.7084 71.2374 31.6164 71.3489 31.563C71.404 31.5455 71.4623 31.54 71.5198 31.5467C71.5773 31.5535 71.6327 31.5724 71.6823 31.6022C71.7319 31.6321 71.7747 31.6721 71.8076 31.7197C71.8406 31.7673 71.8631 31.8213 71.8736 31.8782C72.1842 33.1197 72.8956 34.224 73.8976 35.02C74.5002 35.4881 75.2238 35.7746 75.9836 35.8461C76.7089 35.9082 77.4345 35.7306 78.0492 35.3406C78.9025 34.7584 79.5387 33.9098 79.8584 32.9276C79.8738 32.8724 79.9009 32.8211 79.938 32.7773C79.9751 32.7336 80.0213 32.6985 80.0734 32.6744C80.1255 32.6503 80.1821 32.6378 80.2395 32.6378C80.2969 32.6378 80.3535 32.6503 80.4056 32.6744C80.511 32.7389 80.5903 32.8387 80.6294 32.956C80.6685 33.0733 80.665 33.2006 80.6193 33.3156C80.2329 34.4914 79.4678 35.506 78.4436 36.2009C77.695 36.6772 76.8111 36.8953 75.9269 36.8218C75.0242 36.737 74.1644 36.3971 73.4477 35.8418C72.2775 34.9141 71.4455 33.6266 71.0806 32.1785" fill="#3F494F"/>
<path id="Path 178195" fill-rule="evenodd" clip-rule="evenodd" d="M90.5886 15.7094C90.6552 15.8158 90.6829 15.9419 90.6669 16.0664C90.6509 16.191 90.5923 16.3061 90.501 16.3922C90.4629 16.4346 90.4158 16.4678 90.3631 16.4896C90.3105 16.5114 90.2536 16.5211 90.1967 16.518C90.1399 16.5149 90.0844 16.4992 90.0344 16.4718C89.9844 16.4445 89.9412 16.4064 89.9079 16.3602C89.2753 15.5807 88.499 14.9298 87.621 14.443C86.6446 13.8458 85.583 13.4005 84.4728 13.1222C84.4163 13.1042 84.364 13.0751 84.3189 13.0366C84.2739 12.9981 84.237 12.951 84.2104 12.898C84.1838 12.845 84.1681 12.7873 84.1641 12.7281C84.1602 12.669 84.1681 12.6097 84.1874 12.5537C84.2101 12.4345 84.2776 12.3286 84.376 12.2576C84.4744 12.1867 84.5962 12.1561 84.7164 12.1722C85.8992 12.4683 87.0302 12.9421 88.0709 13.5774C89.0407 14.1204 89.8961 14.8462 90.5897 15.7147" fill="#3F494F"/>
<path id="Path 178196" fill-rule="evenodd" clip-rule="evenodd" d="M71.7592 17.7923C71.7259 17.8386 71.6826 17.8769 71.6326 17.9043C71.5826 17.9317 71.527 17.9476 71.47 17.9508C71.4131 17.9539 71.3561 17.9443 71.3034 17.9227C71.2506 17.901 71.2033 17.8678 71.1651 17.8254C71.0737 17.7393 71.0152 17.6241 70.9994 17.4995C70.9836 17.375 71.0116 17.2488 71.0785 17.1426C71.7718 16.2738 72.6272 15.5479 73.5973 15.0053C74.6376 14.3703 75.7683 13.8969 76.9507 13.6011C77.071 13.5845 77.1931 13.6149 77.2916 13.6859C77.3901 13.757 77.4574 13.8632 77.4796 13.9826C77.499 14.0385 77.5069 14.0977 77.5031 14.1567C77.4992 14.2157 77.4835 14.2733 77.457 14.3262C77.4306 14.3791 77.3938 14.4261 77.3488 14.4646C77.3039 14.503 77.2517 14.5321 77.1954 14.5501C76.0849 14.828 75.023 15.273 74.0461 15.8698C73.168 16.3565 72.3916 17.0073 71.7592 17.787" fill="#3F494F"/>
<path id="Path 178197" fill-rule="evenodd" clip-rule="evenodd" d="M37.5339 6.73583C41.5509 4.45108 42.8771 3.74364 46.3704 3.20932C49.6928 2.70599 49.6704 8.47557 48.3271 15.7038L37.5339 6.73583Z" fill="#3F494F"/>
<path id="Path 178198" fill-rule="evenodd" clip-rule="evenodd" d="M20.4335 6.73583C16.4165 4.45108 15.0903 3.74364 11.597 3.20932C8.27562 2.70599 8.297 8.47557 9.64028 15.7038L20.4335 6.73583Z" fill="#3F494F"/>
<path id="Path 178199" fill-rule="evenodd" clip-rule="evenodd" d="M28.7689 43.1517C40.6564 43.1517 50.3554 34.5812 50.3554 24.0743C50.3554 13.5675 40.6596 4.99805 28.7689 4.99805C16.8781 4.99805 7.18237 13.5675 7.18237 24.0743C7.18237 34.5812 16.8792 43.1517 28.7689 43.1517Z" fill="#FFCC00"/>
<path id="Path 178200" fill-rule="evenodd" clip-rule="evenodd" d="M28.7679 4.27547C34.5413 4.22139 40.1366 6.2729 44.5068 10.0461C46.5405 11.7791 48.1791 13.928 49.312 16.3479C50.445 18.7677 51.046 21.4023 51.0747 24.0741C51.0455 26.7459 50.4443 29.3803 49.3114 31.8001C48.1784 34.2199 46.5401 36.3688 44.5068 38.1022C40.1087 41.828 34.5315 43.8728 28.7674 43.8728C23.0032 43.8728 17.426 41.828 13.0279 38.1022C10.9948 36.3687 9.35669 34.2197 8.22395 31.8C7.0912 29.3802 6.4901 26.7458 6.46112 24.0741C6.4901 21.4025 7.0912 18.7681 8.22395 16.3483C9.35669 13.9285 10.9948 11.7796 13.0279 10.0461C17.3983 6.27266 22.9941 4.22113 28.7679 4.27547ZM43.5525 11.1244C39.4164 7.63437 34.1791 5.71999 28.7674 5.71999C23.3556 5.71999 18.1183 7.63437 13.9822 11.1244C12.1029 12.7234 10.588 14.7066 9.53972 16.9404C8.4914 19.1742 7.93392 21.6068 7.90485 24.0741C7.9337 26.5417 8.49107 28.9745 9.53941 31.2085C10.5877 33.4425 12.1027 35.4258 13.9822 37.025C18.1186 40.5144 23.3558 42.4284 28.7674 42.4284C34.1789 42.4284 39.4162 40.5144 43.5525 37.025C45.4315 35.4256 46.9459 33.4421 47.9937 31.2081C49.0414 28.9741 49.5983 26.5415 49.6267 24.0741C49.5978 21.6067 49.0404 19.1741 47.9921 16.9403C46.9437 14.7065 45.4288 12.7233 43.5493 11.1244" fill="#3F494F"/>
<path id="Path 178201" fill-rule="evenodd" clip-rule="evenodd" d="M28.7732 33.1458C31.6585 33.1458 34.017 31.5108 34.017 29.5071C34.017 27.5034 31.666 25.8662 28.7732 25.8662C25.8804 25.8662 23.5283 27.5023 23.5283 29.5071C23.5283 31.5118 25.8793 33.1458 28.7732 33.1458Z" fill="#3F494F"/>
<path id="Path 178202" fill-rule="evenodd" clip-rule="evenodd" d="M25.8568 24.0005C26.918 24.0005 27.7804 22.2512 27.7804 20.1043C27.7804 17.9574 26.9159 16.208 25.8568 16.208C24.7978 16.208 23.9333 17.9584 23.9333 20.1043C23.9333 22.2501 24.7989 24.0005 25.8568 24.0005Z" fill="#3F494F"/>
<path id="Path 178203" fill-rule="evenodd" clip-rule="evenodd" d="M31.6787 24.269C32.7399 24.269 33.6023 22.5186 33.6023 20.3738C33.6023 18.229 32.7378 16.4775 31.6787 16.4775C30.6197 16.4775 29.7552 18.228 29.7552 20.3738C29.7552 22.5196 30.6208 24.269 31.6787 24.269Z" fill="#3F494F"/>
<path id="Path 178204" fill-rule="evenodd" clip-rule="evenodd" d="M20.3512 34.4066C20.2846 34.3 20.2567 34.1737 20.2723 34.0489C20.2878 33.9242 20.3459 33.8086 20.4367 33.7216C20.4795 33.6842 20.5302 33.6569 20.585 33.6419C20.6398 33.6268 20.6973 33.6243 20.7532 33.6346C20.8091 33.6449 20.8619 33.6676 20.9078 33.7012C20.9536 33.7348 20.9913 33.7783 21.018 33.8285C21.6063 34.8188 22.5316 35.5643 23.6244 35.9283C24.1059 36.0777 24.6132 36.1253 25.1141 36.0683C25.6111 36.0084 26.0886 35.8387 26.5119 35.5714C27.446 34.9301 28.1158 33.9718 28.397 32.8742C28.4086 32.8173 28.4324 32.7636 28.4667 32.7168C28.5011 32.67 28.5452 32.6312 28.5959 32.6031C28.6467 32.5749 28.703 32.5581 28.7609 32.5538C28.8188 32.5495 28.8769 32.5578 28.9313 32.5782C29.0411 32.635 29.1268 32.7294 29.1729 32.8441C29.219 32.9588 29.2224 33.0863 29.1824 33.2033C28.8412 34.5209 28.0321 35.6692 26.9062 36.4338C26.3886 36.7611 25.8045 36.9689 25.1964 37.0419C24.5979 37.1111 23.9915 37.0547 23.416 36.8762C22.1316 36.4495 21.0437 35.5748 20.3512 34.4119" fill="#3F494F"/>
<path id="Path 178205" fill-rule="evenodd" clip-rule="evenodd" d="M35.8347 34.2785C35.8709 34.2348 35.9165 34.2 35.9681 34.1766C36.0198 34.1532 36.0761 34.142 36.1327 34.1436C36.1894 34.1452 36.2449 34.1598 36.2951 34.1861C36.3453 34.2125 36.3889 34.2499 36.4224 34.2956C36.4995 34.3953 36.54 34.5185 36.5373 34.6445C36.5345 34.7705 36.4887 34.8917 36.4075 34.988C35.8305 35.6469 35.1017 36.1552 34.2841 36.4692C33.5774 36.7373 32.8123 36.8133 32.0667 36.6893C31.2903 36.5499 30.5693 36.1934 29.9871 35.6613C29.2693 34.9914 28.7263 34.156 28.4055 33.228C28.3599 33.1131 28.3563 32.9857 28.3954 32.8684C28.4345 32.7511 28.5138 32.6514 28.6192 32.5868C28.6713 32.5625 28.728 32.5499 28.7854 32.5498C28.8428 32.5497 28.8996 32.5622 28.9517 32.5863C29.0038 32.6104 29.05 32.6456 29.0871 32.6895C29.1242 32.7333 29.1512 32.7847 29.1664 32.8401C29.4337 33.6189 29.8871 34.3206 30.4872 34.8844C30.9628 35.3181 31.5516 35.6082 32.1853 35.7211C32.807 35.8245 33.4451 35.7607 34.034 35.5363C34.7261 35.27 35.3429 34.8395 35.8315 34.2817" fill="#3F494F"/>
<path id="Path 178206" fill-rule="evenodd" clip-rule="evenodd" d="M20.302 17.9603C20.2615 18.0013 20.2125 18.033 20.1585 18.0532C20.1045 18.0734 20.0468 18.0816 19.9893 18.0774C19.9318 18.0731 19.8759 18.0564 19.8254 18.0285C19.775 18.0005 19.7313 17.9619 19.6972 17.9154C19.6126 17.8247 19.563 17.7068 19.5573 17.5829C19.5516 17.4589 19.5902 17.337 19.6662 17.239C20.4923 16.3202 21.4177 15.4959 22.4254 14.7811C23.2799 14.1645 24.2257 13.6857 25.2285 13.3619C25.3473 13.3366 25.4714 13.3581 25.5747 13.422C25.678 13.4859 25.7527 13.5873 25.7831 13.705C25.8064 13.7594 25.8186 13.8179 25.8189 13.8771C25.8193 13.9363 25.8077 13.995 25.785 14.0497C25.7623 14.1044 25.7289 14.154 25.6867 14.1955C25.6445 14.2371 25.5945 14.2698 25.5394 14.2917C24.6078 14.5939 23.7291 15.0399 22.9352 15.6136C21.9729 16.2975 21.0895 17.086 20.301 17.9646" fill="#3F494F"/>
<path id="Path 178207" fill-rule="evenodd" clip-rule="evenodd" d="M37.8769 17.0226C37.9598 17.1148 38.0072 17.2335 38.0105 17.3575C38.0139 17.4815 37.9729 17.6026 37.895 17.6991C37.8643 17.748 37.8234 17.7896 37.7751 17.8211C37.7267 17.8526 37.6721 17.8732 37.615 17.8816C37.5578 17.8899 37.4996 17.8857 37.4443 17.8694C37.3889 17.853 37.3378 17.8248 37.2944 17.7867C36.4455 16.9653 35.5083 16.2403 34.4999 15.6248C33.6676 15.1093 32.7596 14.7271 31.8091 14.4921C31.7529 14.474 31.7008 14.4448 31.6559 14.4064C31.6111 14.3679 31.5743 14.3209 31.5479 14.268C31.5214 14.2152 31.5057 14.1576 31.5018 14.0987C31.4978 14.0397 31.5057 13.9805 31.5249 13.9246C31.5473 13.8043 31.6155 13.6973 31.7151 13.6262C31.8148 13.5551 31.9381 13.5253 32.0592 13.5431C33.0821 13.7958 34.0592 14.2069 34.9552 14.7614C36.0108 15.405 36.9921 16.1634 37.8811 17.0226" fill="#3F494F"/>
<path id="Path 178208" fill-rule="evenodd" clip-rule="evenodd" d="M52.7416 28.4689C52.7986 28.4831 52.8522 28.5088 52.899 28.5444C52.9458 28.58 52.9849 28.6248 53.0139 28.6759C53.0429 28.7271 53.0612 28.7837 53.0676 28.8421C53.0741 28.9006 53.0686 28.9597 53.0515 29.016C53.0335 29.1365 52.9704 29.2457 52.875 29.3215C52.7795 29.3972 52.6589 29.434 52.5375 29.4242C49.154 29.1381 45.7506 29.1832 42.3758 29.5589C39.8844 29.73 37.4365 30.2989 35.1251 31.2441C35.0747 31.2697 35.0192 31.2837 34.9627 31.2848C34.9062 31.286 34.8502 31.2744 34.7988 31.2508C34.7474 31.2273 34.702 31.1925 34.666 31.1489C34.63 31.1054 34.6043 31.0543 34.5908 30.9994C34.555 30.8779 34.5622 30.7477 34.6113 30.6309C34.6604 30.5141 34.7482 30.4178 34.8601 30.3582C37.2573 29.3705 39.7979 28.7752 42.3843 28.595C45.825 28.2137 49.2947 28.1704 52.7437 28.4656" fill="#3F494F"/>
<path id="Path 178209" fill-rule="evenodd" clip-rule="evenodd" d="M50.38 32.2316C50.4848 32.2858 50.5668 32.3755 50.6112 32.4848C50.6557 32.5941 50.6596 32.7156 50.6224 32.8275C50.5851 32.9394 50.5091 33.0344 50.408 33.0952C50.3069 33.156 50.1875 33.1787 50.0711 33.1592C47.5264 32.5645 44.917 32.2913 42.3043 32.346C40.0005 32.307 37.7031 32.6007 35.4832 33.218C35.4287 33.2348 35.3713 33.2392 35.3149 33.2308C35.2586 33.2225 35.2048 33.2016 35.1577 33.1697C35.1105 33.1378 35.0711 33.0957 35.0423 33.0465C35.0136 32.9974 34.9962 32.9424 34.9916 32.8856C34.9709 32.7622 34.9936 32.6353 35.056 32.5268C35.1184 32.4182 35.2165 32.3347 35.3335 32.2904C37.6282 31.6478 40.004 31.3415 42.3866 31.381C45.0767 31.329 47.7627 31.6162 50.381 32.2359" fill="#3F494F"/>
<path id="Path 178210" fill-rule="evenodd" clip-rule="evenodd" d="M4.99698 29.422C4.87553 29.4317 4.75491 29.395 4.65949 29.3192C4.56408 29.2434 4.50099 29.1343 4.48296 29.0138C4.46601 28.9575 4.46064 28.8984 4.46717 28.84C4.4737 28.7816 4.492 28.7251 4.52097 28.674C4.54993 28.6228 4.58896 28.5781 4.63569 28.5425C4.68242 28.5068 4.73589 28.481 4.79287 28.4666C8.24194 28.1713 11.7116 28.2147 15.1523 28.5959C17.7384 28.7761 20.2786 29.3715 22.6755 30.3592C22.7874 30.4187 22.8753 30.515 22.9246 30.6317C22.9738 30.7485 22.9813 30.8787 22.9458 31.0004C22.9323 31.0552 22.9066 31.1064 22.8706 31.1499C22.8346 31.1934 22.7892 31.2283 22.7378 31.2518C22.6864 31.2753 22.6304 31.287 22.5739 31.2858C22.5174 31.2846 22.4619 31.2707 22.4115 31.2451C20.1002 30.2995 17.6522 29.7306 15.1608 29.5598C11.7861 29.184 8.38264 29.1389 4.99912 29.4252" fill="#3F494F"/>
<path id="Path 178211" fill-rule="evenodd" clip-rule="evenodd" d="M6.90023 33.2759C6.78462 33.2933 6.66657 33.2694 6.56692 33.2082C6.46727 33.1471 6.39243 33.0527 6.35561 32.9417C6.31879 32.8308 6.32237 32.7104 6.36571 32.6018C6.40904 32.4932 6.48936 32.4034 6.59246 32.3483C9.35048 31.7042 12.1759 31.3938 15.008 31.4239C17.4353 31.3588 19.859 31.6515 22.201 32.2927C22.318 32.3372 22.4161 32.4207 22.4787 32.5292C22.5412 32.6377 22.5643 32.7644 22.544 32.888C22.5392 32.9448 22.5217 32.9998 22.4929 33.0489C22.464 33.0981 22.4245 33.1402 22.3772 33.172C22.33 33.2039 22.2762 33.2248 22.2198 33.2332C22.1634 33.2415 22.1059 33.2371 22.0514 33.2203C19.7858 32.6051 17.4423 32.3254 15.0956 32.39C12.3383 32.3577 9.58696 32.6551 6.90023 33.2759Z" fill="#3F494F"/>
<path id="Path 178212" fill-rule="evenodd" clip-rule="evenodd" d="M47.7981 43.2131C48.653 43.5337 51.7702 45.0918 51.7702 41.2821C51.7702 38.0762 48.1903 35.084 45.1137 35.084C43.3917 35.2106 41.7723 35.9514 40.5506 37.1716C39.3288 38.3917 38.5859 40.0101 38.4572 41.732C38.4572 45.0138 41.0529 44.6376 43.0021 43.3756C43.2158 46.0814 47.3183 46.2406 47.7981 43.2099" fill="#FFCC00"/>
<path id="Path 178213" fill-rule="evenodd" clip-rule="evenodd" d="M48.0492 42.5404C48.1561 42.5789 48.2192 42.6056 48.294 42.6355C48.8256 42.8814 49.3964 43.0316 49.9803 43.079C50.5392 43.079 51.0489 42.706 51.0489 41.2837C51.007 40.5793 50.8228 39.8907 50.5075 39.2594C50.1921 38.6281 49.7521 38.0673 49.2141 37.6108C48.1124 36.5326 46.6552 35.8935 45.1158 35.8133C43.5854 35.9384 42.1489 36.6024 41.0623 37.6874C39.9756 38.7723 39.3092 40.2076 39.1817 41.7379C39.1487 42.2229 39.2524 42.7076 39.4809 43.1367C39.5698 43.2796 39.6972 43.3944 39.8485 43.468C40.0238 43.5445 40.2141 43.581 40.4053 43.5749C41.1995 43.514 41.9622 43.2384 42.612 42.7777L43.6283 42.1194L43.7245 43.3248C43.7349 43.5729 43.8093 43.8142 43.9403 44.0252C44.0714 44.2362 44.2547 44.4098 44.4725 44.5291C44.7108 44.6545 44.9749 44.7229 45.2441 44.729C45.7004 44.746 46.1458 44.5869 46.488 44.2845C46.8302 43.9821 47.0429 43.5596 47.0821 43.1047L47.22 42.2326L48.0492 42.5404ZM49.9803 44.5227C49.3971 44.5033 48.8215 44.3852 48.2779 44.1733C47.9789 44.9275 47.4 45.537 46.6622 45.8746C46.207 46.0814 45.7107 46.1815 45.2109 46.1674C44.7182 46.1554 44.2349 46.0292 43.7993 45.7987C43.2433 45.5065 42.8007 45.0372 42.5415 44.465C41.8781 44.8038 41.1486 44.9931 40.4042 45.0196C39.9983 45.0247 39.5965 44.9381 39.2287 44.7664C38.8373 44.5797 38.5063 44.2868 38.2733 43.9211C37.8883 43.2601 37.7028 42.5019 37.739 41.7379C37.8687 39.8239 38.6881 38.0219 40.0451 36.666C41.4022 35.3101 43.2049 34.4923 45.119 34.3643C47.0232 34.4482 48.8307 35.2263 50.2004 36.5518C50.8847 37.1424 51.4413 37.8664 51.8363 38.6794C52.2314 39.4925 52.4565 40.3775 52.498 41.2805C52.498 43.8452 51.299 44.5206 49.9845 44.5206" fill="#3F494F"/>
<path id="Path 178214" fill-rule="evenodd" clip-rule="evenodd" d="M15.1063 43.2131C15.9612 43.5337 19.0784 45.0918 19.0784 41.2821C19.0784 38.0762 15.4985 35.084 12.4208 35.084C10.6989 35.2108 9.07987 35.9517 7.85835 37.1719C6.63683 38.392 5.89408 40.0103 5.76532 41.732C5.76532 45.0138 8.36104 44.6376 10.3102 43.3756C10.524 46.0814 14.6265 46.2406 15.1063 43.2099" fill="#FFCC00"/>
<path id="Path 178215" fill-rule="evenodd" clip-rule="evenodd" d="M15.3575 42.5402C15.4644 42.5787 15.5274 42.6054 15.6011 42.6353C16.1331 42.8813 16.7043 43.0315 17.2885 43.0788C17.8464 43.0788 18.3572 42.7059 18.3572 41.2835C18.3152 40.5791 18.131 39.8905 17.8156 39.2593C17.5003 38.628 17.0603 38.0672 16.5223 37.6106C15.4202 36.5324 13.9627 35.8933 12.423 35.8132C10.8773 35.891 9.42179 36.5648 8.36218 37.6929C7.23594 38.7471 6.56377 40.198 6.48779 41.7388C6.45454 42.2239 6.55822 42.7085 6.78701 43.1376C6.87591 43.2804 7.00334 43.3953 7.15462 43.4689C7.32991 43.5456 7.52015 43.5821 7.71138 43.5757C8.5056 43.5148 9.26835 43.2393 9.91812 42.7785L10.9344 42.1203L11.0306 43.3257C11.041 43.5738 11.1154 43.8151 11.2464 44.0261C11.3775 44.2371 11.5608 44.4107 11.7786 44.53C12.0177 44.6553 12.2825 44.7237 12.5523 44.7299C13.0087 44.7469 13.4541 44.5878 13.7963 44.2854C14.1384 43.983 14.3512 43.5605 14.3904 43.1055L14.5282 42.2335L15.3575 42.5402ZM17.2885 44.5226C16.705 44.5033 16.129 44.3852 15.5851 44.1731C15.2862 44.9278 14.7067 45.5374 13.9683 45.8744C13.5142 46.0811 13.0189 46.1812 12.5203 46.1672C12.0272 46.1553 11.5436 46.0291 11.1075 45.7985C10.5527 45.5057 10.1113 45.0365 9.85293 44.4648C9.18959 44.8037 8.46005 44.993 7.71566 45.0195C7.30978 45.0243 6.90802 44.9378 6.54016 44.7662C6.14894 44.5793 5.81796 44.2864 5.58479 43.9209C5.19981 43.2599 5.01424 42.5017 5.05047 41.7377C5.12905 39.8132 5.95571 37.9954 7.35446 36.6713C8.67969 35.2758 10.495 34.4494 12.4177 34.3662C14.3218 34.4501 16.1294 35.2283 17.499 36.5537C18.1834 37.1443 18.7401 37.8682 19.1351 38.6813C19.5302 39.4944 19.7553 40.3794 19.7966 41.2824C19.7966 43.8472 18.5987 44.5226 17.2843 44.5226" fill="#3F494F"/>
<path id="Path 178216" fill-rule="evenodd" clip-rule="evenodd" d="M43.857 64.1901C44.7119 63.8695 47.8292 62.3125 47.8292 66.1211C47.8292 69.327 44.2503 72.3192 41.1726 72.3192C39.4507 72.1927 37.8315 71.452 36.6098 70.2321C35.3881 69.0121 34.6451 67.394 34.5161 65.6723C34.5161 62.3905 37.1107 62.7667 39.062 64.0287C39.2758 61.3229 43.3783 61.1626 43.857 64.1944" fill="#FFCC00"/>
<path id="Path 178217" fill-rule="evenodd" clip-rule="evenodd" d="M44.3539 64.7726C44.2791 64.8025 44.2118 64.8292 44.1092 64.8677L43.2842 65.1744L43.1464 64.3034C43.1136 63.9932 43.0025 63.6965 42.8234 63.4411C42.6443 63.1857 42.4031 62.9801 42.1226 62.8436C41.8674 62.7281 41.5894 62.6719 41.3094 62.6791C41.0398 62.6854 40.7753 62.7542 40.5368 62.88C40.319 62.9994 40.1356 63.1729 40.0046 63.3839C39.8735 63.5949 39.7992 63.8362 39.7887 64.0844L39.6925 65.2887L38.6773 64.6315C38.028 64.1705 37.2656 63.8946 36.4717 63.8332C36.2805 63.8273 36.0903 63.8638 35.9149 63.9401C35.7634 64.0142 35.6357 64.1294 35.5462 64.2724C35.3183 64.7018 35.215 65.1863 35.2481 65.6713C35.3756 67.2015 36.042 68.6369 37.1287 69.7218C38.2153 70.8067 39.6518 71.4708 41.1822 71.5958C42.7216 71.515 44.1788 70.8755 45.2805 69.7973C45.8188 69.3408 46.259 68.7798 46.5743 68.1483C46.8897 67.5168 47.0737 66.8279 47.1153 66.1233C47.1153 64.702 46.6056 64.3291 46.0467 64.3291C45.4628 64.3765 44.892 64.5266 44.3604 64.7726M44.3433 63.2337C44.8873 63.0219 45.4632 62.9037 46.0467 62.8843C47.3611 62.8843 48.559 63.5575 48.559 66.1233C48.5174 67.0264 48.2922 67.9115 47.8972 68.7247C47.5022 69.5379 46.9456 70.2621 46.2615 70.8531C44.8912 72.1776 43.0839 72.9552 41.1801 73.0395C39.2661 72.9113 37.4635 72.0934 36.1064 70.7376C34.7494 69.3817 33.93 67.5798 33.8001 65.6659C33.7634 64.9022 33.949 64.1442 34.3344 63.4838C34.5672 63.117 34.8987 62.8233 35.2908 62.6363C35.659 62.4662 36.0607 62.3807 36.4663 62.3863C37.2107 62.4131 37.9402 62.6023 38.6036 62.9409C38.8619 62.3692 39.3039 61.9002 39.8593 61.6083C40.2962 61.3769 40.7809 61.2503 41.2752 61.2386C41.774 61.2248 42.2693 61.3253 42.7232 61.5324C43.4615 61.8693 44.0406 62.4791 44.339 63.2337" fill="#3F494F"/>
<path id="Path 178218" fill-rule="evenodd" clip-rule="evenodd" d="M18.5709 64.4043C19.4258 64.0838 22.543 62.5267 22.543 66.3354C22.543 69.5413 18.9631 72.5335 15.8865 72.5335C14.1646 72.4069 12.5454 71.6663 11.3237 70.4463C10.102 69.2264 9.35895 67.6082 9.22992 65.8865C9.22992 62.6037 11.8246 62.9799 13.7748 64.243C13.9886 61.5361 18.0921 61.3769 18.5709 64.4086" fill="#FFCC00"/>
<path id="Path 178219" fill-rule="evenodd" clip-rule="evenodd" d="M19.0688 64.9836C18.994 65.0135 18.9299 65.0402 18.823 65.0787L17.9991 65.3854L17.858 64.5145C17.8183 64.0597 17.6054 63.6376 17.2634 63.3353C16.9213 63.033 16.4762 62.8736 16.02 62.8902C15.7514 62.8967 15.488 62.9655 15.2505 63.0911C15.0327 63.2104 14.8494 63.384 14.7184 63.595C14.5873 63.806 14.513 64.0473 14.5025 64.2954L14.4053 65.5008L13.39 64.8426C12.7408 64.3815 11.9784 64.1055 11.1844 64.0443C10.9929 64.0389 10.8025 64.0753 10.6265 64.1511C10.4755 64.2256 10.3482 64.3407 10.2589 64.4835C10.0303 64.913 9.92667 65.398 9.95972 65.8834C10.0874 67.4136 10.7539 68.8488 11.8405 69.9337C12.9272 71.0186 14.3635 71.6827 15.8939 71.8079C17.4337 71.7274 18.8912 71.0879 19.9932 70.0094C20.5313 69.5527 20.9714 68.9917 21.2867 68.3603C21.6021 67.7288 21.7862 67.04 21.828 66.3354C21.828 64.9152 21.3183 64.5412 20.7594 64.5412C20.176 64.5883 19.6055 64.7381 19.0741 64.9836M19.056 63.4458C19.6 63.2341 20.1759 63.116 20.7594 63.0964C22.0738 63.0964 23.2728 63.7696 23.2728 66.3354C23.2315 67.2386 23.0064 68.1238 22.6114 68.9371C22.2163 69.7503 21.6596 70.4745 20.9752 71.0653C19.6056 72.3907 17.798 73.1688 15.8939 73.2528C13.9799 73.1247 12.1773 72.3069 10.8204 70.9509C9.46348 69.595 8.64435 67.793 8.51492 65.8791C8.47829 65.1147 8.66388 64.356 9.04923 63.6948C9.28236 63.3293 9.61335 63.0364 10.0046 62.8495C10.3724 62.6777 10.7742 62.5908 11.1801 62.5952C11.9246 62.6219 12.6542 62.8116 13.3174 63.1509C13.576 62.5797 14.0174 62.1109 14.572 61.8183C15.0088 61.5877 15.4931 61.4615 15.9868 61.4496C16.4866 61.4351 16.983 61.5353 17.438 61.7424C18.1763 62.0789 18.7554 62.6883 19.0538 63.4426" fill="#3F494F"/>
<path id="Path 178220" fill-rule="evenodd" clip-rule="evenodd" d="M96.0858 64.1901C96.9407 63.8695 100.058 62.3125 100.058 66.1211C100.058 69.327 96.479 72.3192 93.4024 72.3192C91.6805 72.1927 90.0613 71.452 88.8396 70.2321C87.6179 69.0121 86.8749 67.394 86.7458 65.6723C86.7458 62.3905 89.3416 62.7667 91.2918 64.0287C91.5056 61.3229 95.6081 61.1626 96.0868 64.1944" fill="white"/>
<path id="Path 178221" fill-rule="evenodd" clip-rule="evenodd" d="M96.5816 64.7725C96.5068 64.8024 96.4405 64.8291 96.3369 64.8676L95.5119 65.1743L95.374 64.3034C95.3341 63.8487 95.1211 63.4267 94.7791 63.1244C94.4371 62.8222 93.9921 62.6628 93.536 62.679C93.2666 62.6853 93.0023 62.7533 92.7634 62.8778C92.5441 62.9962 92.3593 63.1694 92.2269 63.3804C92.0945 63.5915 92.019 63.8333 92.0078 64.0822L91.9117 65.2865L90.8964 64.6293C90.2467 64.1682 89.484 63.8923 88.6897 63.831C88.4985 63.8253 88.3084 63.8618 88.1329 63.9379C87.9815 64.0102 87.8539 64.1244 87.7653 64.267C87.5366 64.6961 87.433 65.1808 87.4661 65.6659C87.5936 67.1961 88.26 68.6315 89.3467 69.7164C90.4334 70.8013 91.8698 71.4654 93.4003 71.5904C94.94 71.5097 96.3975 70.8702 97.4996 69.7919C98.0377 69.3352 98.4776 68.7742 98.7928 68.1427C99.108 67.5113 99.2918 66.8225 99.3333 66.1179C99.3333 64.6966 98.8247 64.3237 98.2647 64.3237C97.6808 64.371 97.11 64.5211 96.5784 64.7671M96.5602 63.2283C97.1042 63.0165 97.6802 62.8983 98.2636 62.8789C99.5781 62.8789 100.777 63.5521 100.777 66.1179C100.735 67.0211 100.51 67.9063 100.115 68.7195C99.7197 69.5328 99.1628 70.2569 98.4784 70.8477C97.1089 72.1725 95.3018 72.9502 93.3981 73.0341C91.4841 72.9059 89.6815 72.088 88.3245 70.7322C86.9674 69.3763 86.148 67.5744 86.0181 65.6605C85.9815 64.8968 86.1671 64.1388 86.5524 63.4784C86.784 63.1108 87.1148 62.8163 87.5067 62.6288C87.8745 62.4571 88.2763 62.3706 88.6822 62.3755C89.4266 62.4022 90.1561 62.5915 90.8195 62.9302C91.0779 62.3585 91.5198 61.8895 92.0751 61.5976C92.5109 61.366 92.9946 61.2394 93.4879 61.2278C93.9863 61.214 94.4813 61.3145 94.9348 61.5217C95.6732 61.8584 96.2524 62.4682 96.5506 63.223" fill="#3F494F"/>
<path id="Path 178222" fill-rule="evenodd" clip-rule="evenodd" d="M70.8017 64.4043C71.6566 64.0838 74.7738 62.5267 74.7738 66.3354C74.7738 69.5413 71.1939 72.5335 68.1162 72.5335C66.3942 72.407 64.7748 71.6663 63.5529 70.4464C62.3311 69.2265 61.5878 67.6083 61.4586 65.8865C61.4586 62.6037 64.0553 62.9799 66.0045 64.243C66.2183 61.5361 70.3208 61.3769 70.8006 64.4086" fill="white"/>
<path id="Path 178223" fill-rule="evenodd" clip-rule="evenodd" d="M71.2975 64.9827C71.2216 65.0126 71.1586 65.0394 71.0528 65.0778L70.2278 65.3845L70.0899 64.5136C70.0502 64.0588 69.8374 63.6367 69.4953 63.3344C69.1532 63.0321 68.7081 62.8727 68.2519 62.8892C67.9826 62.8957 67.7185 62.9644 67.4803 63.0902C67.261 63.2084 67.0761 63.3815 66.9436 63.5926C66.8112 63.8037 66.7358 64.0456 66.7248 64.2945L66.6286 65.4999L65.6134 64.8416C64.9637 64.3807 64.201 64.1048 63.4067 64.0434C63.2155 64.038 63.0255 64.0745 62.8499 64.1503C62.6984 64.2244 62.5707 64.3395 62.4812 64.4826C62.2529 64.9122 62.1493 65.3971 62.182 65.8825C62.3099 67.4126 62.9765 68.8477 64.0631 69.9326C65.1497 71.0174 66.5859 71.6816 68.1162 71.8071C69.656 71.7265 71.1135 71.087 72.2155 70.0085C72.7538 69.552 73.194 68.991 73.5093 68.3595C73.8247 67.7281 74.0087 67.0392 74.0503 66.3345C74.0503 64.9143 73.5406 64.5403 72.9817 64.5403C72.3983 64.5874 71.8288 64.7372 71.2975 64.9827ZM71.2783 63.4449C71.8223 63.2333 72.3982 63.1152 72.9817 63.0955C74.2961 63.0955 75.4941 63.7698 75.4941 66.3345C75.4527 67.2377 75.2276 68.1229 74.8326 68.9362C74.4375 69.7494 73.8808 70.4736 73.1965 71.0643C71.8268 72.3898 70.0192 73.1679 68.1151 73.2519C66.2012 73.1236 64.3987 72.3057 63.0419 70.9498C61.685 69.5939 60.8658 67.792 60.7361 65.8782C60.6991 65.1138 60.8847 64.355 61.2705 63.6939C61.503 63.3283 61.8337 63.0354 62.2248 62.8486C62.5926 62.6769 62.9943 62.59 63.4003 62.5943C64.1448 62.621 64.8743 62.8107 65.5375 63.15C65.7951 62.5776 66.2367 62.1077 66.7921 61.8153C67.229 61.5839 67.7138 61.4573 68.2081 61.4455C68.7065 61.4321 69.2013 61.5326 69.655 61.7394C70.3932 62.0758 70.9723 62.6852 71.2708 63.4396" fill="#3F494F"/>
<path id="Path 178224" fill-rule="evenodd" clip-rule="evenodd" d="M80.2613 5.72043C74.8395 5.66387 69.583 7.58511 65.4756 11.1245C63.5962 12.7235 62.0815 14.7067 61.0333 16.9406C59.9851 19.1744 59.428 21.6069 59.3993 24.0743C59.4278 26.5418 59.9849 28.9746 61.0331 31.2086C62.0812 33.4426 63.5961 35.426 65.4756 37.0251C69.6118 40.5147 74.8491 42.4289 80.2607 42.4289C85.6724 42.4289 90.9096 40.5147 95.0459 37.0251C96.9253 35.4262 98.4401 33.443 99.4883 31.2091C100.536 28.9753 101.094 26.5427 101.122 24.0754C101.093 21.608 100.536 19.1755 99.488 16.9417C98.4398 14.7079 96.9251 12.7247 95.0459 11.1256C90.9384 7.58627 85.6819 5.66504 80.2602 5.7215M64.5202 10.0473C68.9182 6.32131 74.4955 4.27637 80.2597 4.27637C86.0238 4.27637 91.6011 6.32131 95.9991 10.0473C98.0322 11.7808 99.6703 13.9298 100.803 16.3496C101.936 18.7693 102.537 21.4037 102.566 24.0754C102.537 26.7472 101.936 29.3818 100.803 31.8018C99.6705 34.2217 98.0324 36.3709 95.9991 38.1045C91.601 41.8303 86.0238 43.8751 80.2597 43.8751C74.4955 43.8751 68.9183 41.8303 64.5202 38.1045C62.4869 36.3709 60.8488 34.2217 59.716 31.8018C58.5833 29.3818 57.9823 26.7472 57.9534 24.0754C57.982 21.4037 58.5829 18.7691 59.7157 16.3493C60.8485 13.9294 62.4868 11.7805 64.5202 10.0473Z" fill="#3F494F"/>
<path id="Path 178225" fill-rule="evenodd" clip-rule="evenodd" d="M69.1976 3.94763C71.1212 2.01874 62.089 -0.555615 59.6482 0.100529C56.188 1.03666 52.8453 11.3896 52.4093 14.4876C51.8172 18.6938 56.6304 18.8348 60.2424 17.9885C63.895 17.1336 63.5552 16.6548 64.2626 13.3527C65.0107 9.86468 68.3448 4.7972 69.1976 3.94229" fill="#3F494F"/>
<path id="Path 178226" fill-rule="evenodd" clip-rule="evenodd" d="M91.4467 3.94763C89.5231 2.01874 98.5553 -0.555615 100.996 0.100529C104.457 1.03666 107.799 11.3896 108.236 14.4876C108.828 18.6938 104.015 18.8348 100.403 17.9885C96.7503 17.1336 97.0902 16.6548 96.3827 13.3527C95.6347 9.86468 92.3005 4.7972 91.4478 3.94229" fill="#3F494F"/>
<path id="Path 178227" fill-rule="evenodd" clip-rule="evenodd" d="M65.4019 41.594C66.2568 41.9146 69.374 43.4727 69.374 39.663C69.374 36.457 65.7941 33.4648 62.7164 33.4648C60.9946 33.5916 59.3755 34.3323 58.1538 35.5523C56.9322 36.7722 56.1891 38.3902 56.0598 40.1118C56.0598 43.3946 58.6545 43.0185 60.6047 41.7553C60.8185 44.4611 64.921 44.6214 65.4008 41.5897" fill="white"/>
<path id="Path 178228" fill-rule="evenodd" clip-rule="evenodd" d="M65.653 40.9198C65.7598 40.9583 65.8229 40.985 65.8977 41.0149C66.4297 41.2601 67.0003 41.4105 67.584 41.4595C68.1429 41.4595 68.6526 41.0865 68.6526 39.6653C68.6111 38.9606 68.427 38.2717 68.1117 37.6403C67.7963 37.0088 67.3561 36.4478 66.8178 35.9913C65.7159 34.9127 64.2583 34.2732 62.7185 34.1928C61.1881 34.318 59.7518 34.9821 58.6652 36.067C57.5785 37.1519 56.9121 38.5871 56.7843 40.1173C56.7516 40.6024 56.8553 41.0869 57.0836 41.5161C57.1733 41.6592 57.3009 41.7746 57.4522 41.8496C57.6278 41.9255 57.8178 41.9619 58.009 41.9564C58.8033 41.8952 59.5661 41.6193 60.2157 41.1581L61.2299 40.5009L61.3271 41.7064C61.3376 41.9545 61.4119 42.1958 61.543 42.4068C61.674 42.6178 61.8574 42.7913 62.0752 42.9107C62.3125 43.0365 62.576 43.1049 62.8446 43.1105C63.3016 43.1291 63.7481 42.9711 64.0917 42.6693C64.4353 42.3674 64.6496 41.945 64.6901 41.4894L64.828 40.6185L65.653 40.9198ZM67.584 42.9C67.0009 42.8832 66.425 42.7676 65.8806 42.5581C65.5823 43.3128 65.0032 43.9225 64.2648 44.2593C63.8096 44.466 63.3133 44.5662 62.8136 44.5521C62.3194 44.5406 61.8347 44.4144 61.3977 44.1835C60.843 43.891 60.4016 43.4221 60.1431 42.8509C59.4798 43.1897 58.7502 43.3791 58.0058 43.4055C57.5999 43.4103 57.1982 43.3237 56.8303 43.1522C56.4383 42.9656 56.1068 42.6723 55.8739 42.3059C55.4889 41.6449 55.3033 40.8867 55.3395 40.1226C55.4686 38.2095 56.2869 36.4081 57.6427 35.0522C58.9986 33.6964 60.8 32.8781 62.7132 32.749C64.6172 32.8327 66.4247 33.6104 67.7945 34.9355C68.4789 35.5263 69.0356 36.2504 69.4306 37.0636C69.8257 37.8769 70.0508 38.7621 70.0921 39.6653C70.0921 42.23 68.8931 42.9043 67.5797 42.9043L67.584 42.9Z" fill="#3F494F"/>
<path id="Path 178229" fill-rule="evenodd" clip-rule="evenodd" d="M101.406 41.594C102.261 41.9146 105.379 43.4727 105.379 39.663C105.379 36.457 101.8 33.4648 98.7221 33.4648C97.0001 33.5914 95.3807 34.332 94.1588 35.5519C92.9369 36.7719 92.1937 38.39 92.0645 40.1118C92.0645 43.3946 94.6602 43.0185 96.6104 41.7553C96.8242 44.4611 100.927 44.6214 101.406 41.5897" fill="white"/>
<path id="Path 178230" fill-rule="evenodd" clip-rule="evenodd" d="M101.656 40.9207C101.763 40.9602 101.826 40.9859 101.901 41.0158C102.433 41.2607 103.004 41.4101 103.587 41.4571C104.145 41.4571 104.656 41.0842 104.656 39.6607C104.615 38.9561 104.43 38.2673 104.115 37.6358C103.8 37.0043 103.36 36.4433 102.821 35.9868C101.719 34.9087 100.262 34.2693 98.722 34.1883C97.1916 34.3135 95.7553 34.9776 94.6687 36.0625C93.582 37.1474 92.9156 38.5826 92.7878 40.1128C92.7551 40.5977 92.8583 41.0822 93.086 41.5116C93.1756 41.6548 93.3032 41.7703 93.4547 41.845C93.6302 41.9209 93.8203 41.9574 94.0114 41.9519C94.8055 41.8904 95.5679 41.6141 96.2171 41.1526L97.2334 40.4954L97.3296 41.7008C97.34 41.9489 97.4144 42.1902 97.5454 42.4012C97.6765 42.6122 97.8598 42.7858 98.0776 42.9051C98.3157 43.031 98.5799 43.0995 98.8492 43.105C99.305 43.1234 99.7506 42.9661 100.094 42.6657C100.437 42.3653 100.652 41.9445 100.695 41.4903L100.831 40.6193L101.656 40.9207ZM103.587 42.9009C103.004 42.8811 102.428 42.7629 101.884 42.5514C101.585 43.3057 101.006 43.915 100.268 44.2516C99.8142 44.458 99.319 44.5581 98.8203 44.5444C98.3265 44.5328 97.8421 44.4066 97.4054 44.1757C96.8495 43.8834 96.4069 43.4141 96.1476 42.8421C95.4843 43.181 94.7548 43.3703 94.0103 43.3967C93.6045 43.4015 93.2027 43.3149 92.8348 43.1434C92.443 42.957 92.1118 42.6636 91.8795 42.2971C91.4944 41.6362 91.3088 40.8779 91.3452 40.1139C91.4746 38.2 92.2937 36.3979 93.6506 35.042C95.0075 33.6861 96.8101 32.8683 98.7241 32.7402C100.628 32.8239 102.436 33.6016 103.806 34.9267C104.49 35.5175 105.047 36.2416 105.442 37.0548C105.837 37.8681 106.062 38.7533 106.103 39.6565C106.103 42.2212 104.904 42.8923 103.591 42.8923" fill="#3F494F"/>
<path id="Path 178231" d="M25.4903 55.2334L26.7214 56.7968C25.585 57.8772 24.069 58.4669 22.5013 58.4382C19.0624 58.4382 16.6591 55.9569 16.6591 51.3649C16.6591 46.8318 19.258 44.3504 22.5205 44.3504C23.9959 44.2908 25.4375 44.8017 26.5461 45.777L25.2156 47.3191C24.5186 46.691 23.6138 46.343 22.6755 46.3423C20.8385 46.3423 19.3734 47.7315 19.3734 51.3649C19.3734 54.9214 20.7626 56.3672 22.6167 56.3672C23.6831 56.366 24.7105 55.9609 25.4903 55.2334Z" fill="white"/>
<path id="Path 178232" d="M36.1403 55.4674C36.1403 56.2485 36.354 56.5413 36.8627 56.7369L36.3156 58.3986C35.8489 58.4115 35.3888 58.2866 34.9928 58.0395C34.5967 57.7925 34.2822 57.4342 34.0885 57.0094C33.7129 57.4774 33.2323 57.8504 32.6858 58.0983C32.1392 58.3461 31.542 58.4618 30.9425 58.436C30.499 58.4778 30.0517 58.4239 29.6308 58.2779C29.21 58.1319 28.8254 57.8972 28.5031 57.5897C28.1808 57.2822 27.9283 56.909 27.7627 56.4955C27.597 56.082 27.5222 55.6377 27.5431 55.1927C27.5431 53.0041 29.2829 51.7731 32.4471 51.7731H33.7177V51.1875C33.7177 49.8784 33.1118 49.4295 31.6659 49.4295C30.7447 49.4601 29.8344 49.6383 28.9698 49.9575L28.3638 48.238C29.5376 47.787 30.7806 47.5426 32.0378 47.5156C34.9488 47.5156 36.1414 48.7659 36.1414 51.0325L36.1403 55.4674ZM33.7177 55.3498V53.2788H32.8382C30.904 53.2788 30.2201 53.92 30.2201 55.057C30.2201 56.0733 30.6892 56.6204 31.7247 56.6204C32.1398 56.6052 32.5433 56.4795 32.8937 56.2564C33.244 56.0332 33.5285 55.7196 33.7177 55.3498Z" fill="white"/>
<path id="Path 178233" d="M44.6392 57.6567C43.8805 58.1769 42.9794 58.4497 42.0595 58.4379C39.7545 58.4186 38.9327 57.1096 38.9327 54.999V49.5863H37.3511V47.8081H38.9338V45.5223L41.4355 45.2295V47.8092H43.9564L43.6828 49.5874H41.4387V54.9958C41.4387 56.0121 41.771 56.4224 42.533 56.4224C42.9726 56.4141 43.4002 56.2782 43.764 56.0313L44.6392 57.6567Z" fill="white"/>
<path id="Path 178234" d="M57.2823 53.0449C56.97 54.088 56.5131 55.0823 55.9251 55.9987L58.2761 58.2107H55.9401L54.8458 57.1955C53.9998 57.9989 52.8759 58.4438 51.7093 58.4373C49.5207 58.4373 48.2373 57.3013 48.2373 55.5135C48.2581 54.8958 48.4453 54.2952 48.7792 53.7751C49.113 53.255 49.5812 52.8348 50.1341 52.5587C49.1425 51.5895 48.6455 50.9558 48.6455 49.9833C48.6455 48.6197 49.6073 47.5137 51.5779 47.5137C53.401 47.5137 54.5391 48.5289 54.5391 49.8925C54.5391 51.1802 53.6639 51.9678 52.5546 52.6955L54.8159 54.9525C55.197 54.1893 55.4766 53.3795 55.6473 52.5438L57.2823 53.0449ZM53.8391 56.2263L51.2135 53.59C50.8983 53.7737 50.6368 54.0368 50.4551 54.3531C50.2734 54.6695 50.1779 55.0279 50.178 55.3927C50.1636 55.6174 50.1992 55.8424 50.2824 56.0515C50.3656 56.2607 50.4942 56.4488 50.6589 56.6022C50.8236 56.7555 51.0204 56.8704 51.235 56.9385C51.4495 57.0065 51.6765 57.0261 51.8995 56.9957C52.6215 56.9961 53.316 56.7195 53.8402 56.2231M51.4892 51.6782C52.2768 51.1631 52.7288 50.6629 52.7288 49.9683C52.741 49.8152 52.72 49.6612 52.6673 49.5169C52.6146 49.3726 52.5314 49.2414 52.4234 49.1322C52.3154 49.0229 52.1851 48.9383 52.0414 48.884C51.8977 48.8296 51.744 48.8069 51.5907 48.8174C51.4341 48.8042 51.2765 48.826 51.1293 48.8814C50.9822 48.9367 50.8493 49.0242 50.7403 49.1375C50.6313 49.2507 50.5489 49.3868 50.4991 49.5359C50.4493 49.685 50.4334 49.8433 50.4526 49.9993C50.4526 50.6052 50.8031 51.0295 51.4881 51.6814" fill="#FFCC00"/>
<path id="Path 178235" d="M65.5108 58.1439H61.8176V44.6416H65.2757C68.6953 44.6416 72.0562 45.7359 72.0562 51.3238C72.0562 56.854 68.7146 58.1428 65.5108 58.1428M65.7245 46.5758H64.4144V56.2096H65.7245C67.6395 56.2096 69.3579 55.2478 69.3579 51.3249C69.3579 47.264 67.5604 46.5769 65.7245 46.5769" fill="white"/>
<path id="Path 178236" d="M78.2703 47.5146C81.3384 47.5146 83.1166 49.6637 83.1166 52.9647C83.1166 56.286 81.3192 58.4361 78.2511 58.4361C75.183 58.4361 73.3867 56.3651 73.3867 52.9647C73.3867 49.7214 75.2023 47.5146 78.2703 47.5146ZM78.2714 49.4104C76.8063 49.4104 76.0048 50.5239 76.0048 52.9668C76.0048 55.4482 76.7871 56.5425 78.249 56.5425C79.7344 56.5425 80.4931 55.4482 80.4931 52.9668C80.4931 50.525 79.7312 49.4104 78.2661 49.4104" fill="white"/>
<path id="Path 178237" d="M85.675 59.1626C85.675 60.3156 86.5149 60.648 88.1756 60.648C90.2862 60.648 90.7937 60.0228 90.7937 59.2993C90.7937 58.5759 90.4219 58.049 88.9771 58.049H87.512C85.5574 58.049 84.5198 57.2283 84.5198 56.0186C84.5377 55.6435 84.6467 55.2783 84.8374 54.9547C85.028 54.6311 85.2946 54.3588 85.6141 54.1613C85.0735 53.8746 84.6277 53.4374 84.3305 52.9025C84.0333 52.3677 83.8975 51.7582 83.9395 51.1478C83.9395 48.7839 85.9325 47.5144 88.214 47.5144C89.8959 47.5587 91.5599 47.1612 93.04 46.3613L93.7047 48.3543C92.7469 48.6332 91.7497 48.752 90.7531 48.7059V48.7839C91.2745 48.9798 91.7219 49.3333 92.0329 49.7953C92.344 50.2573 92.5033 50.8047 92.4886 51.3615C92.4886 53.3545 90.9252 54.8388 88.3466 54.8388C87.8994 54.8364 87.4538 54.7841 87.0183 54.6828C86.8254 54.883 86.7138 55.1477 86.7051 55.4255C86.7051 55.9727 87.0183 56.1682 88.2686 56.1682H89.2848C91.8496 56.1682 93.3093 57.302 93.3093 59.138C93.3093 61.3073 91.2383 62.4016 88.1318 62.4016C84.6737 62.4016 83.4233 61.2261 83.4233 59.1957V59.1626H85.675ZM88.2729 53.2027C89.4484 53.2027 90.0703 52.4408 90.0703 51.1894C90.0703 49.9199 89.4836 49.236 88.2729 49.236C87.772 49.2728 87.3035 49.4977 86.9617 49.8656C86.6198 50.2335 86.4298 50.7171 86.4298 51.2194C86.4298 51.7216 86.6198 52.2052 86.9617 52.5731C87.3035 52.941 87.772 53.166 88.2729 53.2027Z" fill="white"/>
</g>
</g>
</g>
</g>
</svg>
