<svg width="195" height="63" viewBox="0 0 195 63" fill="none" xmlns="http://www.w3.org/2000/svg">
<g id="Layer_1" clip-path="url(#clip0_2016_151)">
<path id="Vector" opacity="0.65" fill-rule="evenodd" clip-rule="evenodd" d="M21.2018 35.0019C21.2018 37.8213 22.8023 39.682 24.8091 40.4766C25.6301 40.8035 26.5216 40.9725 27.4046 40.9788C28.2988 40.9879 29.179 40.8399 29.9698 40.5355C31.8491 39.8145 33.3088 38.1446 33.3264 35.5132L33.3391 16.001L23.8064 24.5406L21.0715 24.2874L21.2025 35.0019H21.2018Z" fill="#C8905E"/>
<path id="Vector_2" opacity="0.9" fill-rule="evenodd" clip-rule="evenodd" d="M50.6794 49.0877C63.4912 48.3464 66.9444 39.4519 65.672 31.803C63.9053 32.883 61.5612 32.6593 60.0304 31.1346C58.7953 29.9051 58.4116 28.1468 58.8784 26.5898L47.5227 27.3249C40.1848 29.3889 36.2789 40.6315 38.6526 49.8935C43.0295 49.9237 47.6177 49.2672 50.6794 49.0884" fill="#C8905E"/>
<path id="Vector_3" d="M17.091 20.8441L17.0565 16.4115C17.0565 11.8977 18.9105 7.79268 21.8947 4.82037C24.6915 2.03461 28.4854 0.23916 32.6807 0.0231445L32.704 0H33.5349C38.0674 0.00280539 42.1888 1.84805 45.173 4.82037C48.1578 7.79338 50.0118 11.8977 50.0118 16.4115L49.859 24.1958L62.3646 24.6292C63.3279 24.6622 64.2222 24.9771 64.9657 25.5136C65.7065 26.0481 66.2853 26.7971 66.6148 27.6962C67.2943 29.5464 67.7267 31.5558 67.8457 33.5876C68.0344 36.8117 67.438 40.1311 65.7966 43.027C64.1391 45.9509 61.4457 48.4085 57.4659 49.8588C55.4964 50.577 53.2206 51.0448 50.6132 51.1956C42.3134 51.1192 38.5498 51.0574 37.3372 51.0357C37.7534 49.7473 38.0386 48.4134 38.185 47.052C39.6975 47.0675 43.0295 47.1082 50.3808 47.2155C52.5925 47.0878 54.4824 46.7042 56.0816 46.1214C59.0932 45.0251 61.1063 43.2087 62.321 41.0632C63.5525 38.8905 63.9975 36.3368 63.8504 33.8183C63.7539 32.1722 63.4075 30.5542 62.8632 29.073C62.8082 28.925 62.7223 28.8072 62.6188 28.7307C62.5174 28.6578 62.3787 28.6129 62.2203 28.608L45.7898 28.0392L46.0102 16.4108C46.0052 13.0009 44.6005 9.89462 42.3395 7.64119C40.0926 5.40459 36.9992 4.00891 33.5982 3.99137H33.5342C30.1085 3.99137 26.9905 5.38986 24.7295 7.64119C22.4678 9.89392 21.0638 13.0009 21.0638 16.4108L21.0962 20.8434H17.0917L17.091 20.8441ZM36.5148 35.1389C36.512 35.4062 36.5021 35.672 36.481 35.9378C36.4057 36.8734 36.2015 37.7409 35.8944 38.5335C33.9616 43.5137 27.8658 45.5673 22.7375 43.3195C19.5076 41.9055 17.2079 38.854 17.1987 34.6957L17.1529 28.8282H21.1518L21.1933 34.6725C21.1919 36.6966 22.0946 38.2641 23.5029 39.2082C25.916 40.8276 29.3797 40.533 31.233 38.5398C31.8414 37.8826 32.278 37.0417 32.4434 36.0219C32.4955 35.7077 32.5139 35.416 32.5188 35.1046L32.5223 29.6768L32.5286 21.1919L24.2711 26.8329H12.3429L4.00799 21.2249V44.9241C4.00799 48.7963 5.60006 52.3171 8.16244 54.8693C10.7255 57.4229 14.2596 59.0072 18.1465 59.0072C22.0334 59.0072 25.5675 57.4229 28.1313 54.8693C30.6655 52.3444 32.2498 48.8727 32.285 45.0539C33.925 44.2971 35.2727 43.2255 36.2923 41.9091C36.2902 43.3903 36.2874 45.4263 36.2824 45.5631C36.117 50.2818 34.1101 54.5551 30.9633 57.6915C27.675 60.9661 23.1375 63.0007 18.1472 63.0007C13.1569 63.0007 8.61731 60.9661 5.32896 57.6915C2.04202 54.4169 0 49.8974 0 44.9241V13.6111L13.3485 22.8408H22.9044L36.0395 13.55L36.3986 29.8164L36.5155 35.1389H36.5148Z" fill="black"/>
<path id="Vector_4" fill-rule="evenodd" clip-rule="evenodd" d="M42.9295 20.8782C43.9998 21.9442 43.9998 23.671 42.9295 24.7363C41.8592 25.8024 40.1249 25.8024 39.0546 24.7363C37.9843 23.6703 37.9843 21.9442 39.0546 20.8782C40.1249 19.8114 41.8592 19.8114 42.9295 20.8782Z" fill="black"/>
<path id="Vector_5" fill-rule="evenodd" clip-rule="evenodd" d="M66.1571 31.3843C65.722 29.6435 64.9594 28.0283 63.9384 26.6081L58.7932 26.4307C58.2904 28.0192 58.67 29.8259 59.9346 31.0848C61.6386 32.7807 64.3383 32.8803 66.1578 31.3843" fill="black"/>
<path id="Vector_6" fill-rule="evenodd" clip-rule="evenodd" d="M18.1486 43.8623C20.3315 43.8623 22.0996 44.8912 22.0996 46.1592C22.0996 47.4273 20.3308 48.4561 18.1486 48.4561C15.9665 48.4561 14.1977 47.4273 14.1977 46.1592C14.1977 44.8912 15.9672 43.8623 18.1486 43.8623Z" fill="black"/>
<path id="Vector_7" d="M190.575 30.514C190.575 29.3252 190.382 28.29 189.997 27.4161C189.609 26.5443 189.058 25.8851 188.342 25.4355C187.628 24.988 186.802 24.7657 185.875 24.7657C185.217 24.7657 184.604 24.8899 184.046 25.136C183.482 25.3864 183 25.7462 182.597 26.2196C182.194 26.6923 181.874 27.2983 181.638 28.0333C181.406 28.7718 181.288 29.5973 181.288 30.514C181.288 31.4306 181.406 32.2751 181.638 33.0262C181.874 33.7724 182.205 34.3938 182.631 34.8855C183.056 35.3778 183.547 35.746 184.099 35.9887C184.654 36.2342 185.258 36.3555 185.921 36.3555C186.769 36.3555 187.545 36.1437 188.256 35.7229C188.963 35.3021 189.526 34.6505 189.948 33.7675C190.366 32.8894 190.575 31.8016 190.575 30.514ZM185.875 22.1504C187.571 22.1504 189.023 22.4905 190.236 23.1779C191.45 23.8589 192.37 24.8316 192.994 26.0941C193.618 27.3544 193.929 28.837 193.929 30.5364C193.929 31.7939 193.759 32.9392 193.416 33.9639C193.073 34.9956 192.564 35.8863 191.88 36.6388C191.195 37.3928 190.358 37.9693 189.362 38.3705C188.366 38.7681 187.229 38.9687 185.943 38.9687C184.658 38.9687 183.521 38.7639 182.513 38.3515C181.502 37.9412 180.662 37.364 179.985 36.6171C179.308 35.8709 178.798 34.9724 178.452 33.9197C178.105 32.8705 177.935 31.7343 177.935 30.514C177.935 29.2936 178.113 28.1217 178.475 27.076C178.836 26.0331 179.357 25.1458 180.042 24.4122C180.723 23.6814 181.555 23.119 182.537 22.7332C183.514 22.3447 184.629 22.1504 185.876 22.1504H185.875ZM175.538 32.0836V35.2011C175.538 35.6163 175.497 35.9459 175.416 36.1942C175.333 36.4432 175.185 36.6669 174.964 36.864C174.743 37.0646 174.463 37.2574 174.12 37.444C173.134 37.9728 172.184 38.3592 171.272 38.6068C170.359 38.8481 169.363 38.9701 168.286 38.9701C167.031 38.9701 165.887 38.7758 164.856 38.395C163.822 38.0093 162.943 37.4517 162.217 36.716C161.487 35.9845 160.928 35.0994 160.54 34.0579C160.148 33.0122 159.954 31.8493 159.954 30.561C159.954 29.2726 160.145 28.1406 160.521 27.0872C160.902 26.038 161.457 25.1473 162.194 24.4136C162.928 23.6828 163.822 23.1204 164.879 22.7346C165.933 22.3461 167.126 22.1518 168.465 22.1518C169.564 22.1518 170.538 22.2998 171.382 22.5915C172.231 22.8833 172.918 23.2508 173.443 23.6934C173.973 24.138 174.369 24.6058 174.638 25.1031C174.904 25.6003 175.038 26.0387 175.038 26.4258C175.038 26.8375 174.881 27.1896 174.573 27.4813C174.265 27.778 173.896 27.9211 173.463 27.9211C173.227 27.9211 172.999 27.8671 172.779 27.7549C172.558 27.6448 172.375 27.4891 172.227 27.292C171.816 26.6559 171.473 26.1747 171.192 25.8479C170.907 25.5274 170.526 25.2496 170.051 25.0301C169.571 24.8078 168.959 24.6977 168.218 24.6977C167.476 24.6977 166.769 24.8302 166.168 25.0911C165.567 25.352 165.053 25.7357 164.627 26.2364C164.201 26.7323 163.874 27.346 163.647 28.0691C163.422 28.795 163.308 29.5987 163.308 30.4768C163.308 32.3859 163.749 33.8531 164.627 34.8834C165.506 35.9108 166.734 36.4249 168.304 36.4249C169.069 36.4249 169.788 36.3267 170.461 36.1262C171.13 35.9256 171.815 35.6401 172.503 35.2698V32.6299H169.944C169.328 32.6299 168.86 32.5402 168.545 32.3536C168.229 32.167 168.073 31.8542 168.073 31.4068C168.073 31.0477 168.206 30.7433 168.468 30.5084C168.73 30.2706 169.088 30.1528 169.544 30.1528H173.298C173.758 30.1528 174.15 30.1934 174.469 30.2741C174.789 30.3576 175.047 30.5385 175.241 30.8198C175.44 31.0996 175.538 31.5225 175.538 32.085V32.0836ZM154.431 30.514C154.431 29.3252 154.238 28.29 153.853 27.4161C153.466 26.5443 152.914 25.8851 152.199 25.4355C151.484 24.988 150.659 24.7657 149.731 24.7657C149.073 24.7657 148.46 24.8899 147.902 25.136C147.339 25.3864 146.856 25.7462 146.453 26.2196C146.05 26.6923 145.73 27.2983 145.494 28.0333C145.263 28.7718 145.145 29.5973 145.145 30.514C145.145 31.4306 145.263 32.2751 145.494 33.0262C145.73 33.7724 146.061 34.3938 146.487 34.8855C146.913 35.3778 147.403 35.746 147.955 35.9887C148.511 36.2342 149.115 36.3555 149.778 36.3555C150.626 36.3555 151.402 36.1437 152.113 35.7229C152.82 35.3021 153.382 34.6505 153.804 33.7675C154.223 32.8894 154.431 31.8016 154.431 30.514ZM149.731 22.1504C151.427 22.1504 152.879 22.4905 154.093 23.1779C155.307 23.8589 156.227 24.8316 156.851 26.0941C157.475 27.3544 157.787 28.837 157.787 30.5364C157.787 31.7939 157.616 32.9392 157.273 33.9639C156.93 34.9956 156.421 35.8863 155.737 36.6388C155.052 37.3928 154.215 37.9693 153.219 38.3705C152.223 38.7681 151.086 38.9687 149.8 38.9687C148.515 38.9687 147.378 38.7639 146.37 38.3515C145.359 37.9412 144.519 37.364 143.842 36.6171C143.165 35.8709 142.655 34.9724 142.31 33.9197C141.963 32.8705 141.792 31.7343 141.792 30.514C141.792 29.2936 141.971 28.1217 142.332 27.076C142.693 26.0331 143.214 25.1458 143.899 24.4122C144.58 23.6814 145.412 23.119 146.394 22.7332C147.372 22.3447 148.485 22.1504 149.733 22.1504H149.731ZM133.138 24.1471V35.9915H139.847C140.379 35.9915 140.789 36.1219 141.075 36.3772C141.364 36.6395 141.505 36.965 141.505 37.3563C141.505 37.7477 141.364 38.0794 141.082 38.3249C140.801 38.5704 140.387 38.6959 139.847 38.6959H131.856C131.138 38.6959 130.62 38.5374 130.305 38.219C129.989 37.9006 129.829 37.3858 129.829 36.6774V24.1471C129.829 23.4851 129.981 22.9843 130.282 22.6519C130.583 22.3173 130.978 22.1511 131.469 22.1511C131.961 22.1511 132.367 22.3145 132.675 22.6448C132.983 22.9745 133.139 23.478 133.139 24.1478L133.138 24.1471ZM120.547 25.1515H116.937V36.9615C116.937 37.6425 116.785 38.146 116.477 38.4757C116.173 38.8053 115.777 38.9694 115.294 38.9694C114.811 38.9694 114.401 38.8032 114.092 38.4687C113.785 38.1362 113.628 37.6355 113.628 36.9622V25.1522H110.02C109.453 25.1522 109.034 25.0266 108.761 24.7818C108.487 24.5315 108.346 24.2018 108.346 23.7922C108.346 23.3827 108.49 23.0383 108.776 22.7914C109.061 22.5445 109.475 22.4246 110.02 22.4246H120.546C121.12 22.4246 121.542 22.5502 121.824 22.8026C122.101 23.0558 122.242 23.3855 122.242 23.7922C122.242 24.199 122.097 24.5308 121.816 24.7818C121.535 25.0273 121.112 25.1522 120.546 25.1522L120.547 25.1515ZM105.475 24.9698H98.0211V28.9689H104.886C105.391 28.9689 105.768 29.0825 106.015 29.3062C106.266 29.53 106.388 29.8287 106.388 30.197C106.388 30.5652 106.266 30.8667 106.023 31.0982C105.775 31.3296 105.399 31.4468 104.886 31.4468H98.0211V36.0834H105.73C106.251 36.0834 106.643 36.2033 106.905 36.4425C107.171 36.6816 107.304 37.0035 107.304 37.4012C107.304 37.7989 107.171 38.0976 106.905 38.3368C106.643 38.576 106.25 38.6959 105.73 38.6959H96.7402C96.0213 38.6959 95.5037 38.5374 95.1883 38.219C94.8728 37.9006 94.713 37.3858 94.713 36.6774V24.4431C94.713 23.969 94.7855 23.5818 94.9256 23.2824C95.0665 22.9836 95.2876 22.7634 95.5868 22.628C95.8875 22.4898 96.2713 22.4239 96.7395 22.4239H105.474C106.003 22.4239 106.395 22.5417 106.65 22.7711C106.904 23.0067 107.033 23.3132 107.033 23.6891C107.033 24.0651 106.904 24.3856 106.65 24.6198C106.395 24.8527 106.003 24.9698 105.474 24.9698H105.475ZM85.0303 24.9011H82.8017V29.8778H85.0303C85.8098 29.8778 86.4639 29.7958 86.9892 29.6324C87.5103 29.469 87.9096 29.2045 88.187 28.8321C88.4609 28.4653 88.5975 27.9758 88.5975 27.3782C88.5975 26.6587 88.3848 26.0744 87.9624 25.6249C87.4871 25.1444 86.5097 24.9018 85.0303 24.9018V24.9011ZM85.8323 32.3557H82.8017V36.9615C82.8017 37.6193 82.6468 38.118 82.3341 38.4581C82.0222 38.7976 81.6265 38.9694 81.1554 38.9694C80.6569 38.9694 80.2541 38.8032 79.9492 38.4659C79.645 38.1285 79.4929 37.6327 79.4929 36.9846V24.4438C79.4929 23.7207 79.6605 23.2017 79.995 22.8896C80.3294 22.5789 80.8576 22.4246 81.5877 22.4246H85.8316C87.0871 22.4246 88.0532 22.5193 88.7299 22.7122C89.3988 22.8973 89.9769 23.2045 90.4635 23.6323C90.9514 24.0644 91.3197 24.5869 91.5711 25.2083C91.826 25.8297 91.9513 26.5296 91.9513 27.3067C91.9513 28.9654 91.438 30.2208 90.4149 31.0757C89.3883 31.9279 87.8631 32.3564 85.8316 32.3564L85.8323 32.3557Z" fill="black"/>
<path id="Vector_8" d="M73.9781 0H72.8669V63H73.9781V0Z" fill="black"/>
<path id="Vector_9" d="M194.973 46.2642H192.194V50.0038H194.999V49.4104H192.848V48.411H194.731V47.8184H192.848V46.8561H194.972V46.2642H194.973ZM186.727 47.4831C186.727 47.6774 186.657 47.8303 186.516 47.9453C186.376 48.0589 186.188 48.1164 185.952 48.1164H184.983V46.8554H185.946C186.194 46.8554 186.385 46.908 186.521 47.0139C186.659 47.1198 186.727 47.2755 186.727 47.4831ZM187.515 50.0038L186.502 48.5877C186.634 48.552 186.754 48.5008 186.864 48.4341C186.973 48.3675 187.066 48.2883 187.145 48.1936C187.223 48.0989 187.285 47.9916 187.33 47.8682C187.375 47.7454 187.397 47.6058 187.397 47.4487C187.397 47.2671 187.365 47.1023 187.3 46.9543C187.236 46.8063 187.144 46.6836 187.024 46.5812C186.904 46.4788 186.757 46.4009 186.584 46.3462C186.411 46.2901 186.217 46.2642 186.002 46.2642H184.328V50.0038H184.982V48.6999H185.811L186.736 50.0038H187.514H187.515ZM179.526 46.2642H176.749V50.0038H179.554V49.4104H177.403V48.411H179.286V47.8184H177.403V46.8561H179.527V46.2642H179.526ZM171.141 48.4264V50.0038H171.795V46.2642H171.141V47.8184H169.339V46.2642H168.685V50.0038H169.339V48.4264H171.141ZM162.272 46.2642H159.494V50.0038H162.299V49.4104H160.148V48.411H162.031V47.8184H160.148V46.8561H162.271V46.2642H162.272ZM153.886 48.8479L151.88 46.2635H151.268V50.0031H151.923V47.3421L153.989 50.0031H154.54V46.2635H153.886V48.8479H153.886ZM145.618 46.2642V50.0038H146.273V46.2642H145.618ZM138.273 50.0038H140.901V49.4104H138.928V46.2642H138.274V50.0038H138.273ZM133.428 49.4848V47.9144H131.83V48.4853H132.79V49.1881C132.676 49.2751 132.54 49.3438 132.385 49.395C132.229 49.449 132.062 49.4742 131.883 49.4742C131.69 49.4742 131.516 49.4399 131.361 49.3718C131.205 49.3045 131.071 49.2112 130.959 49.0906C130.846 48.9707 130.76 48.8297 130.698 48.6649C130.638 48.5001 130.607 48.3212 130.607 48.1291C130.607 47.9474 130.639 47.7763 130.702 47.6157C130.764 47.4544 130.85 47.3141 130.959 47.1928C131.068 47.0714 131.196 46.9753 131.345 46.9052C131.493 46.8365 131.653 46.8028 131.825 46.8028C131.943 46.8028 132.051 46.8119 132.15 46.8309C132.247 46.8512 132.338 46.8771 132.42 46.9101C132.502 46.9459 132.581 46.9866 132.656 47.0378C132.732 47.0868 132.804 47.143 132.876 47.2012L133.294 46.7053C133.199 46.624 133.098 46.5524 132.997 46.4879C132.895 46.4262 132.787 46.3743 132.672 46.3322C132.558 46.2887 132.433 46.2558 132.299 46.2326C132.165 46.2095 132.016 46.1982 131.852 46.1982C131.569 46.1982 131.309 46.2508 131.071 46.3532C130.833 46.457 130.628 46.5959 130.457 46.7726C130.285 46.9494 130.152 47.1556 130.057 47.3898C129.962 47.6248 129.915 47.8745 129.915 48.1375C129.915 48.4005 129.962 48.6663 130.055 48.9019C130.148 49.1369 130.279 49.3417 130.449 49.5142C130.619 49.6867 130.823 49.8221 131.063 49.9196C131.302 50.0192 131.569 50.0676 131.862 50.0676C132.027 50.0676 132.184 50.0522 132.335 50.0213C132.484 49.9904 132.625 49.9498 132.756 49.8957C132.886 49.8417 133.007 49.7807 133.121 49.7092C133.234 49.6377 133.336 49.5619 133.429 49.4841L133.428 49.4848ZM124.361 48.5169H123.068L123.712 47.0202L124.361 48.5169ZM124.029 46.2361H123.417L121.765 50.0038H122.44L122.826 49.1004H124.602L124.982 50.0038H125.68L124.028 46.2361H124.029ZM116.694 46.8722H117.885V46.2635H114.838V46.8722H116.029V50.0031H116.694V46.8722ZM106.42 47.4831C106.42 47.6774 106.351 47.8303 106.21 47.9453C106.07 48.0589 105.882 48.1164 105.645 48.1164H104.677V46.8554H105.64C105.888 46.8554 106.079 46.908 106.215 47.0139C106.352 47.1198 106.42 47.2755 106.42 47.4831ZM107.208 50.0038L106.195 48.5877C106.327 48.552 106.448 48.5008 106.557 48.4341C106.667 48.3675 106.76 48.2883 106.838 48.1936C106.917 48.0989 106.979 47.9916 107.024 47.8682C107.068 47.7454 107.09 47.6058 107.09 47.4487C107.09 47.2671 107.058 47.1023 106.994 46.9543C106.929 46.8063 106.838 46.6836 106.717 46.5812C106.598 46.4788 106.451 46.4009 106.277 46.3462C106.104 46.2901 105.91 46.2642 105.696 46.2642H104.022V50.0038H104.677V48.6999H105.505L106.431 50.0038H107.208ZM99.1287 46.2642H98.4745V48.4166C98.4745 48.7617 98.3893 49.0226 98.2203 49.1965C98.0513 49.3704 97.819 49.4581 97.5246 49.4581C97.2303 49.4581 96.993 49.3676 96.8233 49.186C96.655 49.0043 96.5698 48.7385 96.5698 48.39V46.2649H95.9157V48.4173C95.9157 48.688 95.9537 48.9258 96.0276 49.1306C96.103 49.3347 96.2107 49.5065 96.3494 49.6468C96.4888 49.7842 96.6564 49.8894 96.8536 49.9589C97.05 50.0276 97.2704 50.0627 97.5134 50.0627C97.7563 50.0627 97.983 50.0283 98.1809 49.9589C98.3795 49.8901 98.5485 49.7849 98.6886 49.6433C98.8273 49.5037 98.9357 49.3277 99.0125 49.118C99.0893 48.9076 99.128 48.6635 99.128 48.3843V46.2656L99.1287 46.2642ZM90.4959 48.1375C90.4959 48.3191 90.4642 48.4917 90.4015 48.6537C90.3396 48.8143 90.2529 48.9552 90.1424 49.0752C90.0311 49.1951 89.8974 49.2898 89.7424 49.3592C89.5875 49.4287 89.4164 49.4623 89.2305 49.4623C89.0446 49.4623 88.8721 49.4265 88.7151 49.3564C88.5581 49.2849 88.4236 49.1881 88.3102 49.0675C88.1976 48.9461 88.1102 48.8045 88.0476 48.6431C87.9856 48.4797 87.9539 48.3086 87.9539 48.1269C87.9539 47.9453 87.9856 47.7742 88.0476 47.6108C88.1102 47.4494 88.1968 47.3092 88.3081 47.1892C88.4186 47.07 88.5517 46.976 88.7074 46.9052C88.863 46.8365 89.0341 46.8028 89.22 46.8028C89.4059 46.8028 89.5784 46.8372 89.7354 46.9073C89.8924 46.9788 90.0283 47.0763 90.1403 47.1963C90.2529 47.319 90.3403 47.4593 90.4029 47.622C90.4656 47.7847 90.4973 47.9558 90.4973 48.1368L90.4959 48.1375ZM91.1881 48.1277C91.1881 47.8646 91.1395 47.6136 91.043 47.38C90.9465 47.1444 90.812 46.9389 90.6409 46.7649C90.4691 46.591 90.2635 46.4528 90.0234 46.3511C89.784 46.2487 89.5192 46.1989 89.2298 46.1989C88.9404 46.1989 88.6757 46.2515 88.4356 46.3539C88.1961 46.4577 87.9891 46.5966 87.8131 46.7733C87.6385 46.9501 87.5026 47.1563 87.4054 47.3905C87.3082 47.6255 87.261 47.8752 87.261 48.1382C87.261 48.4012 87.3089 48.6516 87.4054 48.8872C87.5026 49.1222 87.6363 49.327 87.8075 49.5009C87.9793 49.6762 88.1849 49.8137 88.425 49.9147C88.6644 50.0171 88.9292 50.0683 89.2186 50.0683C89.508 50.0683 89.7727 50.0171 90.0121 49.9126C90.2522 49.8102 90.4593 49.6699 90.6353 49.4932C90.8106 49.3164 90.9465 49.1123 91.043 48.8767C91.1395 48.6417 91.1881 48.3914 91.1881 48.1277ZM81.692 48.512L83.1826 46.2642H82.4264L81.3638 47.9193L80.3132 46.2642H79.5352L81.0265 48.5288V50.0038H81.692V48.512Z" fill="black"/>
</g>
<defs>
<clipPath id="clip0_2016_151">
<rect width="195" height="63" fill="white"/>
</clipPath>
</defs>
</svg>
