<svg width="204" height="63" viewBox="0 0 204 63" fill="none" xmlns="http://www.w3.org/2000/svg">
<g id="background" clip-path="url(#clip0_2016_161)">
<g id="Group">
<path id="Vector" d="M79.6283 33.6364H77.1031V40.5207C76.4267 40.6515 75.5812 40.7141 74.5666 40.7141C73.552 40.7141 72.6896 40.6515 72.0302 40.5207V18.7071L72.2556 18.4795C74.1044 18.434 75.6376 18.4055 76.8607 18.3828C78.0839 18.36 79.0139 18.3486 79.6509 18.3486C80.8176 18.3486 81.8886 18.5079 82.8524 18.8322C83.8163 19.1509 84.6449 19.6345 85.3213 20.2774C86.0033 20.9203 86.5275 21.7225 86.8995 22.6727C87.2715 23.6285 87.4576 24.7266 87.4576 25.9726C87.4576 27.2186 87.2659 28.3167 86.8826 29.2725C86.4993 30.2283 85.9639 31.0249 85.2818 31.6678C84.5998 32.3107 83.7712 32.8 82.8017 33.13C81.8322 33.4657 80.7725 33.6307 79.6227 33.6307L79.6283 33.6364ZM77.1031 22.2801V29.7789C77.7006 29.7561 78.1797 29.739 78.5292 29.7277C78.8843 29.7163 79.1097 29.7106 79.2168 29.7106C79.7918 29.7106 80.2765 29.6082 80.6598 29.4034C81.0431 29.1985 81.3531 28.9311 81.5898 28.6011C81.8266 28.2711 81.9957 27.8786 82.1028 27.4291C82.2099 26.9796 82.2606 26.5074 82.2606 26.0124C82.2606 25.5174 82.2042 25.0793 82.1028 24.6299C81.9957 24.1804 81.8322 23.7821 81.6068 23.4407C81.3813 23.0994 81.0882 22.8263 80.7218 22.6215C80.3611 22.4166 79.9327 22.3142 79.4367 22.3142H78.1233C77.74 22.3142 77.3962 22.3028 77.0975 22.2801H77.1031Z" fill="#2B1212"/>
<path id="Vector_2" d="M101.966 34.1202H93.6747C93.7198 35.076 93.9622 35.8156 94.4075 36.3504C94.8528 36.8796 95.5799 37.147 96.6001 37.147C97.1074 37.147 97.6936 37.073 98.3644 36.9308C99.0295 36.7885 99.7961 36.5496 100.664 36.2139C101.363 36.9422 101.797 37.9321 101.966 39.1724C100.264 40.3957 98.184 41.0045 95.7208 41.0045C94.3793 41.0045 93.2633 40.7883 92.3558 40.3616C91.4539 39.9348 90.7212 39.3318 90.1575 38.558C89.5938 37.7842 89.1936 36.8739 88.9625 35.8213C88.7258 34.7688 88.6131 33.6252 88.6131 32.3792C88.6131 31.1332 88.754 30.0692 89.0414 29.0508C89.3289 28.0324 89.7629 27.1448 90.3491 26.3938C90.9353 25.6428 91.6794 25.0511 92.5812 24.6244C93.4831 24.1976 94.5428 23.9814 95.7546 23.9814C96.7749 23.9814 97.6936 24.1521 98.5109 24.4935C99.3283 24.8349 100.027 25.3071 100.596 25.9102C101.171 26.5133 101.611 27.2302 101.921 28.0665C102.231 28.9029 102.383 29.8132 102.383 30.8032C102.383 32.1118 102.248 33.2155 101.972 34.1202H101.966ZM93.6466 30.6439H97.8233V30.2911C97.8233 29.5003 97.6485 28.8403 97.2991 28.3282C96.9496 27.8162 96.431 27.5545 95.7321 27.5545C95.0332 27.5545 94.554 27.7934 94.2271 28.277C93.9002 28.7606 93.7029 29.5458 93.6409 30.6439H93.6466Z" fill="#2B1212"/>
<path id="Vector_3" d="M114.716 24.4362C114.846 25.0336 114.908 25.6253 114.908 26.2227C114.908 26.8201 114.846 27.4004 114.716 27.9751L110.923 27.9125V35.3146C110.923 36.3216 111.391 36.828 112.326 36.828H114.113C114.389 37.6074 114.53 38.3186 114.53 38.9729C114.53 39.6272 114.485 40.0881 114.401 40.3668C112.828 40.583 111.385 40.6911 110.066 40.6911C107.389 40.6911 106.047 39.1948 106.047 36.2078V27.9523L103.561 27.9865C103.415 27.4573 103.336 26.877 103.336 26.2512C103.336 25.6253 103.409 25.0222 103.561 24.4476L106.047 24.5102V22.644C106.047 21.5516 106.256 20.7722 106.667 20.3113C107.084 19.8505 107.778 19.6172 108.753 19.6172H110.697L110.923 19.8448V24.5102L114.716 24.4476V24.4362Z" fill="#2B1212"/>
<path id="Vector_4" d="M116.086 39.4277C116.108 38.8701 116.249 38.2613 116.514 37.5956C116.779 36.93 117.095 36.4065 117.456 36.0197C119.158 36.9186 120.635 37.3738 121.886 37.3738C122.483 37.3738 122.94 37.2713 123.256 37.0665C123.577 36.8617 123.735 36.5886 123.735 36.2472C123.735 35.6043 123.244 35.1207 122.269 34.7964L120.516 34.1194C117.861 33.1351 116.531 31.5249 116.531 29.2946C116.531 27.6674 117.089 26.3702 118.205 25.4201C119.321 24.4642 120.826 23.9863 122.715 23.9863C123.65 23.9863 124.682 24.1229 125.809 24.3903C126.936 24.6577 127.861 24.9763 128.582 25.3404C128.622 25.9435 128.509 26.5978 128.233 27.3204C127.957 28.0373 127.618 28.5493 127.213 28.8509C125.426 28.0373 123.938 27.6276 122.748 27.6276C122.326 27.6276 121.999 27.7243 121.779 27.9178C121.553 28.1112 121.446 28.3559 121.446 28.6574C121.446 29.1752 121.852 29.5791 122.658 29.8807L124.637 30.5862C127.461 31.5932 128.875 33.3228 128.875 35.7636C128.875 37.3738 128.289 38.6482 127.122 39.5927C125.956 40.5371 124.287 41.0094 122.117 41.0094C119.947 41.0094 117.94 40.4859 116.092 39.4334L116.086 39.4277Z" fill="#2B1212"/>
<path id="Vector_5" d="M145.064 29.9038V36.4979C145.064 37.9374 145.329 38.9956 145.858 39.6841C145.052 40.4123 144.072 40.7764 142.927 40.7764C141.783 40.7764 141.067 40.5204 140.661 40.0027C140.256 39.4906 140.058 38.7055 140.058 37.6529V30.797C140.058 30.0688 139.963 29.534 139.771 29.1869C139.579 28.8455 139.207 28.6748 138.655 28.6748C138.334 28.6748 137.973 28.7602 137.573 28.9309C137.167 29.1016 136.755 29.3803 136.327 29.7672V40.5147C135.628 40.6456 134.816 40.7082 133.903 40.7082C132.99 40.7082 132.184 40.6456 131.479 40.5147V17.0625L131.705 16.835H133.616C134.636 16.835 135.341 17.0625 135.735 17.512C136.13 17.9615 136.327 18.7466 136.327 19.8618V25.9439C137.753 24.7661 139.173 24.1744 140.599 24.1744C142.026 24.1744 143.125 24.6922 143.897 25.7334C144.675 26.7745 145.058 28.1628 145.058 29.8981L145.064 29.9038Z" fill="#FBB040"/>
<path id="Vector_6" d="M160.266 25.8811C161.793 27.423 162.56 29.6362 162.56 32.5094C162.56 33.7952 162.396 34.9673 162.064 36.0141C161.737 37.0667 161.258 37.9599 160.632 38.6996C160.006 39.4392 159.234 40.0082 158.321 40.4064C157.408 40.8047 156.354 41.0038 155.164 41.0038C153.975 41.0038 152.927 40.799 152.025 40.3951C151.123 39.9854 150.356 39.4165 149.731 38.6768C149.105 37.9372 148.632 37.0439 148.31 35.9914C147.989 34.9388 147.831 33.7838 147.831 32.5151C147.831 31.2463 147.989 30.0629 148.31 29.0217C148.626 27.9805 149.094 27.0873 149.714 26.3363C150.328 25.5853 151.095 25.0049 152.008 24.601C152.921 24.1913 153.975 23.9922 155.164 23.9922C157.267 23.9922 158.969 24.6237 160.266 25.8925V25.8811ZM155.181 27.7473C154.708 27.7473 154.33 27.8611 154.043 28.083C153.755 28.3105 153.524 28.6121 153.355 28.999C153.186 29.3858 153.068 29.8296 153 30.336C152.938 30.8424 152.904 31.3829 152.904 31.9632C152.904 32.8621 152.932 33.6416 152.983 34.2959C153.034 34.9502 153.141 35.4964 153.304 35.9345C153.462 36.3726 153.688 36.7026 153.981 36.9188C154.268 37.135 154.646 37.2374 155.119 37.2374C156.061 37.2374 156.681 36.822 156.979 35.9971C157.278 35.1721 157.43 33.9944 157.43 32.4753C157.43 30.9562 157.278 29.7557 156.979 28.9534C156.681 28.1512 156.083 27.7473 155.181 27.7473Z" fill="#FBB040"/>
<path id="Vector_7" d="M173.94 30.8372C173.94 29.3978 173.461 28.6809 172.508 28.6809C172.17 28.6809 171.821 28.7833 171.471 28.9881C171.122 29.193 170.767 29.4547 170.4 29.779V40.5265C170.039 40.5891 169.645 40.6403 169.222 40.6687C168.799 40.7028 168.36 40.7199 167.914 40.7199C167.469 40.7199 167.035 40.7028 166.607 40.6687C166.184 40.6346 165.789 40.5891 165.429 40.5265V24.4707L165.654 24.2431H167.503C168.861 24.2431 169.758 24.9201 170.18 26.2685C171.691 24.8746 173.156 24.1748 174.577 24.1748C176.296 24.1748 177.542 24.9144 178.308 26.3937C179.966 24.9144 181.538 24.1748 183.026 24.1748C184.514 24.1748 185.625 24.6413 186.357 25.5744C187.09 26.5075 187.457 27.7478 187.457 29.2897V36.4983C187.457 37.8922 187.721 38.9562 188.251 39.6844C187.445 40.4127 186.476 40.7768 185.348 40.7768C184.221 40.7768 183.488 40.5208 183.083 40.003C182.677 39.491 182.479 38.7058 182.479 37.6533V30.7974C182.479 29.3807 181.978 28.6752 180.98 28.6752C180.366 28.6752 179.684 29.0507 178.94 29.8017V40.5151C178.579 40.5777 178.184 40.6289 177.762 40.6573C177.339 40.6915 176.899 40.7085 176.454 40.7085C176.009 40.7085 175.569 40.6915 175.129 40.6573C174.695 40.6232 174.295 40.5777 173.934 40.5151V30.8315L173.94 30.8372Z" fill="#FBB040"/>
<path id="Vector_8" d="M203.589 34.1202H195.297C195.337 35.076 195.585 35.8156 196.03 36.3504C196.475 36.8796 197.202 37.147 198.222 37.147C198.73 37.147 199.316 37.073 199.987 36.9308C200.652 36.7885 201.418 36.5496 202.286 36.2139C202.985 36.9422 203.419 37.9321 203.589 39.1724C201.886 40.3957 199.806 41.0045 197.343 41.0045C196.007 41.0045 194.886 40.7883 193.978 40.3616C193.076 39.9348 192.343 39.3318 191.78 38.558C191.216 37.7842 190.816 36.8739 190.585 35.8213C190.348 34.7688 190.235 33.6252 190.235 32.3792C190.235 31.1332 190.376 30.0692 190.664 29.0508C190.951 28.0324 191.385 27.1448 191.971 26.3938C192.558 25.6428 193.302 25.0511 194.204 24.6244C195.105 24.1976 196.165 23.9814 197.377 23.9814C198.397 23.9814 199.316 24.1521 200.133 24.4935C200.951 24.8349 201.65 25.3071 202.219 25.9102C202.794 26.5133 203.233 27.2302 203.543 28.0665C203.853 28.9029 204.006 29.8132 204.006 30.8032C204.006 32.1118 203.865 33.2155 203.594 34.1202H203.589ZM195.269 30.6439H199.446V30.2911C199.446 29.5003 199.271 28.8403 198.921 28.3282C198.572 27.8162 198.053 27.5545 197.354 27.5545C196.656 27.5545 196.176 27.7934 195.849 28.277C195.523 28.7606 195.325 29.5458 195.263 30.6439H195.269Z" fill="#FBB040"/>
</g>
<path id="Vector_9" d="M58.4629 22.9626L53.3279 18.1721V5.31375C53.3279 4.17016 52.4092 3.24846 51.2819 3.24846H44.3939C43.1595 3.24846 42.1618 4.2555 42.1618 5.50151V7.75455L36.9029 2.85019C32.8163 -0.961783 26.5146 -0.961783 22.4281 2.85019L0.868066 22.9626C0.0563954 23.7193 -0.214161 24.9084 0.186037 25.9496C0.591873 26.9908 1.58392 27.6792 2.69433 27.6792H5.49008C5.41681 28.453 5.37735 29.2382 5.37735 30.029V38.4836C5.37735 51.9678 16.3067 63.0054 29.6711 63.0054C43.0299 63.0054 53.9649 51.9735 53.9649 38.4836V30.029C53.9649 29.2382 53.9254 28.453 53.8521 27.6792H56.6479C57.7583 27.6792 58.7504 26.9908 59.1562 25.9496C59.562 24.9084 59.2915 23.725 58.4742 22.9626H58.4629ZM31.0126 23.7307C32.3654 21.1363 35.3021 20.0041 37.5793 21.2103C39.8565 22.4164 40.6005 25.5002 39.2533 28.0946C37.9006 30.689 34.9639 31.8212 32.6867 30.615C30.4095 29.4088 29.6655 26.3251 31.0126 23.7307ZM21.746 21.2159C24.0232 20.0098 26.9599 21.1363 28.3127 23.7364C29.6655 26.3308 28.9158 29.4145 26.6386 30.6207C24.3614 31.8269 21.4248 30.7004 20.072 28.1003C18.7192 25.5058 19.4689 22.4221 21.746 21.2159ZM13.2066 34.1425C12.0511 31.9236 12.6937 29.2951 14.6327 28.2653C16.5773 27.2355 19.0856 28.197 20.2411 30.4159C21.3966 32.6348 20.754 35.2634 18.815 36.2932C16.8704 37.323 14.3621 36.3614 13.2066 34.1425ZM29.6655 54.0558C26.5484 53.9819 18.0315 53.9534 18.0315 46.3693C18.0315 37.6359 24.9251 32.7315 29.6655 32.7258C34.4059 32.7315 41.2994 37.6359 41.2994 46.3693C41.2994 53.9534 32.7825 53.9819 29.6655 54.0558ZM46.1187 34.1425C44.9632 36.3614 42.4549 37.323 40.5103 36.2932C38.5657 35.2634 37.9287 32.6291 39.0842 30.4159C40.2397 28.197 42.748 27.2355 44.6927 28.2653C46.6373 29.2951 47.2742 31.9293 46.1187 34.1425Z" fill="#FBB040"/>
</g>
<defs>
<clipPath id="clip0_2016_161">
<rect width="204" height="63" fill="white"/>
</clipPath>
</defs>
</svg>
